STARTFONT 2.3
FONT -FontForge-STIX Two Math-Book-R-Normal--11-110-72-72-P-75-ISO10646-1
SIZE 11 72 72  2
FONTBOUNDINGBOX 45 48 -11 -19
COMMENT "Generated by fontforge, http://fontforge.sourceforge.net"
COMMENT "Copyright 2001-2021 The STIX Fonts Project Authors (https://github.com/stipub/stixfonts)"
STARTPROPERTIES 41
FOUNDRY "FontForge"
FAMILY_NAME "STIX Two Math"
WEIGHT_NAME "Book"
SLANT "R"
SETWIDTH_NAME "Normal"
ADD_STYLE_NAME ""
PIXEL_SIZE 11
POINT_SIZE 110
RESOLUTION_X 72
RESOLUTION_Y 72
SPACING "P"
AVERAGE_WIDTH 75
CHARSET_REGISTRY "ISO10646"
CHARSET_ENCODING "1"
FONTNAME_REGISTRY ""
CHARSET_COLLECTIONS "ASCII ISOLatin1Encoding ISO8859-2 ISO8859-5 ISO8859-7 ISO8859-9 ISO8859-4 ISO10646-1"
BITS_PER_PIXEL 2
FONT_NAME "STIXTwoMath-Regular"
FACE_NAME "STIX Two Math Regular"
COPYRIGHT "Copyright 2001-2021 The STIX Fonts Project Authors (https://github.com/stipub/stixfonts)"
FONT_VERSION "2.12 b168a"
FONT_ASCENT 8
FONT_DESCENT 3
UNDERLINE_POSITION -1
UNDERLINE_THICKNESS 1
X_HEIGHT 5
CAP_HEIGHT 7
RAW_ASCENT 762
RAW_DESCENT 238
NORM_SPACE 3
RELATIVE_WEIGHT 40
RELATIVE_SETWIDTH 50
SUPERSCRIPT_X 0
SUPERSCRIPT_Y 5
SUPERSCRIPT_SIZE 5
SUBSCRIPT_X 0
SUBSCRIPT_Y 2
SUBSCRIPT_SIZE 5
FIGURE_WIDTH 5
AVG_LOWERCASE_WIDTH 53
AVG_UPPERCASE_WIDTH 74
ENDPROPERTIES
CHARS 6611
STARTCHAR space
ENCODING 32
SWIDTH 235 0
DWIDTH 3 0
BBX 1 1 0 0
BITMAP
00
ENDCHAR
STARTCHAR exclam
ENCODING 33
SWIDTH 283 0
DWIDTH 3 0
BBX 1 8 1 0
BITMAP
C0
C0
C0
80
80
40
40
C0
ENDCHAR
STARTCHAR quotedbl
ENCODING 34
SWIDTH 334 0
DWIDTH 4 0
BBX 3 3 0 6
BITMAP
58
58
44
ENDCHAR
STARTCHAR numbersign
ENCODING 35
SWIDTH 702 0
DWIDTH 8 0
BBX 7 8 0 0
BITMAP
0520
0520
2AA8
0820
0850
6EA4
0840
1480
ENDCHAR
STARTCHAR dollar
ENCODING 36
SWIDTH 495 0
DWIDTH 5 0
BBX 5 10 0 -1
BITMAP
0400
2A40
9480
6800
2D00
0B80
04C0
84C0
6A40
0400
ENDCHAR
STARTCHAR percent
ENCODING 37
SWIDTH 692 0
DWIDTH 8 0
BBX 7 8 0 0
BITMAP
2664
5160
5580
2540
0214
0584
0884
1494
ENDCHAR
STARTCHAR ampersand
ENCODING 38
SWIDTH 736 0
DWIDTH 8 0
BBX 8 8 0 0
BITMAP
0980
1880
0E29
1A14
6310
9190
A0D1
3A29
ENDCHAR
STARTCHAR quotesingle
ENCODING 39
SWIDTH 187 0
DWIDTH 2 0
BBX 2 3 0 6
BITMAP
50
50
40
ENDCHAR
STARTCHAR parenleft
ENCODING 40
SWIDTH 357 0
DWIDTH 4 0
BBX 4 10 0 -2
BITMAP
05
14
20
60
50
50
60
20
14
05
ENDCHAR
STARTCHAR parenright
ENCODING 41
SWIDTH 357 0
DWIDTH 4 0
BBX 4 10 0 -2
BITMAP
50
14
08
09
09
09
09
08
14
50
ENDCHAR
STARTCHAR asterisk
ENCODING 42
SWIDTH 410 0
DWIDTH 5 0
BBX 4 5 0 4
BITMAP
08
5A
29
5A
04
ENDCHAR
STARTCHAR plus
ENCODING 43
SWIDTH 720 0
DWIDTH 8 0
BBX 8 7 0 0
BITMAP
0140
0140
0140
7FFD
0140
0140
0140
ENDCHAR
STARTCHAR comma
ENCODING 44
SWIDTH 245 0
DWIDTH 3 0
BBX 2 4 0 -2
BITMAP
10
70
20
10
ENDCHAR
STARTCHAR hyphen
ENCODING 45
SWIDTH 315 0
DWIDTH 3 0
BBX 3 1 0 3
BITMAP
68
ENDCHAR
STARTCHAR period
ENCODING 46
SWIDTH 245 0
DWIDTH 3 0
BBX 2 2 0 0
BITMAP
10
70
ENDCHAR
STARTCHAR slash
ENCODING 47
SWIDTH 386 0
DWIDTH 4 0
BBX 4 10 0 -1
BITMAP
02
05
04
08
08
14
20
20
50
40
ENDCHAR
STARTCHAR zero
ENCODING 48
SWIDTH 495 0
DWIDTH 5 0
BBX 5 8 0 0
BITMAP
1600
6180
90C0
90C0
90C0
90C0
6180
1A00
ENDCHAR
STARTCHAR one
ENCODING 49
SWIDTH 495 0
DWIDTH 5 0
BBX 4 8 1 0
BITMAP
74
24
24
24
24
24
24
79
ENDCHAR
STARTCHAR two
ENCODING 50
SWIDTH 495 0
DWIDTH 5 0
BBX 5 8 0 0
BITMAP
2A00
4280
0180
0240
0200
0800
2040
7FC0
ENDCHAR
STARTCHAR three
ENCODING 51
SWIDTH 495 0
DWIDTH 5 0
BBX 5 8 0 0
BITMAP
2A00
1240
0200
0A00
0280
00C0
0080
7900
ENDCHAR
STARTCHAR four
ENCODING 52
SWIDTH 495 0
DWIDTH 5 0
BBX 6 8 0 0
BITMAP
0240
0740
0640
2240
4240
BFD0
0240
0240
ENDCHAR
STARTCHAR five
ENCODING 53
SWIDTH 495 0
DWIDTH 5 0
BBX 5 8 0 0
BITMAP
1F80
1000
2E00
0680
00C0
0080
0080
7900
ENDCHAR
STARTCHAR six
ENCODING 54
SWIDTH 495 0
DWIDTH 5 0
BBX 5 8 0 0
BITMAP
0640
1800
3000
6A40
6180
60C0
60C0
1640
ENDCHAR
STARTCHAR seven
ENCODING 55
SWIDTH 495 0
DWIDTH 5 0
BBX 5 8 0 0
BITMAP
7FC0
5080
0140
0200
0200
0500
0800
0800
ENDCHAR
STARTCHAR eight
ENCODING 56
SWIDTH 495 0
DWIDTH 5 0
BBX 5 8 0 0
BITMAP
2600
6180
6140
2E00
2B40
6180
5080
2540
ENDCHAR
STARTCHAR nine
ENCODING 57
SWIDTH 495 0
DWIDTH 5 0
BBX 5 8 0 0
BITMAP
2600
6180
90C0
61C0
2AC0
0180
0300
1800
ENDCHAR
STARTCHAR colon
ENCODING 58
SWIDTH 245 0
DWIDTH 3 0
BBX 2 6 0 0
BITMAP
10
70
00
00
10
70
ENDCHAR
STARTCHAR semicolon
ENCODING 59
SWIDTH 245 0
DWIDTH 3 0
BBX 2 8 0 -2
BITMAP
10
70
00
00
10
70
20
10
ENDCHAR
STARTCHAR less
ENCODING 60
SWIDTH 720 0
DWIDTH 8 0
BBX 6 6 1 0
BITMAP
0060
0680
6800
A400
0A40
0060
ENDCHAR
STARTCHAR equal
ENCODING 61
SWIDTH 720 0
DWIDTH 8 0
BBX 8 4 0 1
BITMAP
6AA9
0000
0000
6AA9
ENDCHAR
STARTCHAR greater
ENCODING 62
SWIDTH 720 0
DWIDTH 8 0
BBX 6 6 1 0
BITMAP
9000
2900
0290
01A0
1900
9000
ENDCHAR
STARTCHAR question
ENCODING 63
SWIDTH 411 0
DWIDTH 5 0
BBX 5 8 0 0
BITMAP
6A00
9240
4300
0600
0800
0400
0400
1800
ENDCHAR
STARTCHAR at
ENCODING 64
SWIDTH 905 0
DWIDTH 10 0
BBX 10 10 0 -2
BITMAP
01A800
080240
205480
220C80
520C50
660C90
221C80
229A40
190000
02A900
ENDCHAR
STARTCHAR A
ENCODING 65
SWIDTH 718 0
DWIDTH 8 0
BBX 8 8 0 0
BITMAP
0240
0380
05C0
08A0
0870
19B4
2028
A02D
ENDCHAR
STARTCHAR B
ENCODING 66
SWIDTH 618 0
DWIDTH 7 0
BBX 7 8 0 0
BITMAP
7A90
2430
2470
2A90
2420
2424
2434
79A0
ENDCHAR
STARTCHAR C
ENCODING 67
SWIDTH 670 0
DWIDTH 7 0
BBX 7 8 0 0
BITMAP
0AB8
2418
7004
6000
6000
7000
2804
0AA0
ENDCHAR
STARTCHAR D
ENCODING 68
SWIDTH 730 0
DWIDTH 8 0
BBX 8 8 0 0
BITMAP
6AA0
2418
240D
2409
2409
240D
2418
69A0
ENDCHAR
STARTCHAR E
ENCODING 69
SWIDTH 626 0
DWIDTH 7 0
BBX 7 8 0 0
BITMAP
7AB4
2400
2410
2990
2410
2404
2404
6AB4
ENDCHAR
STARTCHAR F
ENCODING 70
SWIDTH 588 0
DWIDTH 6 0
BBX 7 8 0 0
BITMAP
7AA4
2404
2410
2990
2410
2400
2400
6900
ENDCHAR
STARTCHAR G
ENCODING 71
SWIDTH 720 0
DWIDTH 8 0
BBX 8 8 0 0
BITMAP
0AB8
2408
7004
6000
6029
7018
2418
0AA4
ENDCHAR
STARTCHAR H
ENCODING 72
SWIDTH 777 0
DWIDTH 9 0
BBX 8 8 0 0
BITMAP
6D1E
1809
1809
195D
1809
1809
1809
2D1E
ENDCHAR
STARTCHAR I
ENCODING 73
SWIDTH 357 0
DWIDTH 4 0
BBX 4 8 0 0
BITMAP
79
24
24
24
24
24
24
79
ENDCHAR
STARTCHAR J
ENCODING 74
SWIDTH 396 0
DWIDTH 4 0
BBX 4 8 0 0
BITMAP
1E
0C
0C
0C
0C
0C
4C
A8
ENDCHAR
STARTCHAR K
ENCODING 75
SWIDTH 702 0
DWIDTH 8 0
BBX 8 8 0 0
BITMAP
7978
2450
2540
2A00
2B40
25C0
2470
697D
ENDCHAR
STARTCHAR L
ENCODING 76
SWIDTH 585 0
DWIDTH 6 0
BBX 6 8 0 0
BITMAP
7900
2400
2400
2400
2400
2400
2410
6AB0
ENDCHAR
STARTCHAR M
ENCODING 77
SWIDTH 895 0
DWIDTH 10 0
BBX 9 8 0 0
BITMAP
780380
2C0740
2A0A40
270640
225240
21A240
20D240
748780
ENDCHAR
STARTCHAR N
ENCODING 78
SWIDTH 742 0
DWIDTH 8 0
BBX 8 8 0 0
BITMAP
781D
2D08
2708
2288
20D8
2078
202C
7408
ENDCHAR
STARTCHAR O
ENCODING 79
SWIDTH 738 0
DWIDTH 8 0
BBX 8 8 0 0
BITMAP
0AA0
241C
7009
600A
600A
7009
2418
0AA0
ENDCHAR
STARTCHAR P
ENCODING 80
SWIDTH 569 0
DWIDTH 6 0
BBX 6 8 0 0
BITMAP
6A90
2470
2430
2460
2A40
2400
2400
6900
ENDCHAR
STARTCHAR Q
ENCODING 81
SWIDTH 737 0
DWIDTH 8 0
BBX 8 10 0 -2
BITMAP
0AA0
241C
7009
600A
600A
7009
240C
0AA0
00A0
0019
ENDCHAR
STARTCHAR R
ENCODING 82
SWIDTH 659 0
DWIDTH 7 0
BBX 7 8 0 0
BITMAP
7A90
2470
2430
2460
2A80
25C0
24A0
6928
ENDCHAR
STARTCHAR S
ENCODING 83
SWIDTH 504 0
DWIDTH 6 0
BBX 5 8 0 0
BITMAP
2A80
6080
7040
2D00
0780
40C0
80C0
BA40
ENDCHAR
STARTCHAR T
ENCODING 84
SWIDTH 603 0
DWIDTH 7 0
BBX 7 8 0 0
BITMAP
ABA4
4604
0600
0600
0600
0600
0700
0B40
ENDCHAR
STARTCHAR U
ENCODING 85
SWIDTH 752 0
DWIDTH 8 0
BBX 8 8 0 0
BITMAP
781E
2408
2408
2408
2408
2408
1808
0AA0
ENDCHAR
STARTCHAR V
ENCODING 86
SWIDTH 680 0
DWIDTH 7 0
BBX 8 8 0 0
BITMAP
B41D
3414
2820
1C20
0950
0680
0340
0240
ENDCHAR
STARTCHAR W
ENCODING 87
SWIDTH 944 0
DWIDTH 10 0
BBX 11 8 0 0
BITMAP
B4B4B4
346050
283480
1C6880
0D9C40
0A4E00
034A00
020100
ENDCHAR
STARTCHAR X
ENCODING 88
SWIDTH 664 0
DWIDTH 7 0
BBX 7 8 0 0
BITMAP
7838
1C20
0980
0340
0680
08D0
2070
7078
ENDCHAR
STARTCHAR Y
ENCODING 89
SWIDTH 647 0
DWIDTH 7 0
BBX 7 8 0 0
BITMAP
B428
2820
0C50
0A80
0340
0300
0300
0780
ENDCHAR
STARTCHAR Z
ENCODING 90
SWIDTH 594 0
DWIDTH 7 0
BBX 6 8 0 0
BITMAP
7AB0
5090
0180
0340
0A00
1C00
3410
BAB0
ENDCHAR
STARTCHAR bracketleft
ENCODING 91
SWIDTH 349 0
DWIDTH 4 0
BBX 2 12 1 -3
BITMAP
90
C0
C0
C0
C0
C0
C0
C0
C0
C0
C0
D0
ENDCHAR
STARTCHAR backslash
ENCODING 92
SWIDTH 385 0
DWIDTH 4 0
BBX 4 10 0 -1
BITMAP
40
50
20
20
14
08
08
04
05
02
ENDCHAR
STARTCHAR bracketright
ENCODING 93
SWIDTH 349 0
DWIDTH 4 0
BBX 3 12 0 -3
BITMAP
58
0C
0C
0C
0C
0C
0C
0C
0C
0C
0C
5C
ENDCHAR
STARTCHAR asciicircum
ENCODING 94
SWIDTH 480 0
DWIDTH 5 0
BBX 5 5 0 4
BITMAP
0400
0900
2200
2140
5080
ENDCHAR
STARTCHAR underscore
ENCODING 95
SWIDTH 512 0
DWIDTH 6 0
BBX 6 1 0 -2
BITMAP
AA90
ENDCHAR
STARTCHAR grave
ENCODING 96
SWIDTH 222 0
DWIDTH 2 0
BBX 2 2 0 6
BITMAP
60
20
ENDCHAR
STARTCHAR a
ENCODING 97
SWIDTH 480 0
DWIDTH 5 0
BBX 5 6 0 0
BITMAP
2600
5240
0640
2240
9240
7A80
ENDCHAR
STARTCHAR b
ENCODING 98
SWIDTH 522 0
DWIDTH 6 0
BBX 6 9 0 0
BITMAP
A000
2000
2000
2B80
30C0
2090
2090
2080
2A40
ENDCHAR
STARTCHAR c
ENCODING 99
SWIDTH 446 0
DWIDTH 5 0
BBX 5 6 0 0
BITMAP
1640
5140
9000
9000
6040
2E00
ENDCHAR
STARTCHAR d
ENCODING 100
SWIDTH 539 0
DWIDTH 6 0
BBX 6 9 0 0
BITMAP
0180
00C0
00C0
1AC0
60C0
90C0
90C0
60C0
2DD0
ENDCHAR
STARTCHAR e
ENCODING 101
SWIDTH 464 0
DWIDTH 5 0
BBX 5 6 0 0
BITMAP
2A00
5140
AA80
9000
6040
2E00
ENDCHAR
STARTCHAR f
ENCODING 102
SWIDTH 307 0
DWIDTH 3 0
BBX 4 9 0 0
BITMAP
1A
21
30
79
30
30
30
30
78
ENDCHAR
STARTCHAR g
ENCODING 103
SWIDTH 484 0
DWIDTH 5 0
BBX 5 9 0 -3
BITMAP
2780
6140
6240
2500
5000
7F80
5080
9080
7A40
ENDCHAR
STARTCHAR h
ENCODING 104
SWIDTH 577 0
DWIDTH 6 0
BBX 6 9 0 0
BITMAP
7000
3000
3000
3680
3490
3090
3090
3090
74A0
ENDCHAR
STARTCHAR i
ENCODING 105
SWIDTH 285 0
DWIDTH 3 0
BBX 3 8 0 0
BITMAP
30
10
70
30
30
30
30
74
ENDCHAR
STARTCHAR j
ENCODING 106
SWIDTH 263 0
DWIDTH 3 0
BBX 3 11 -1 -3
BITMAP
0C
04
1C
0C
0C
0C
0C
0C
0C
48
A4
ENDCHAR
STARTCHAR k
ENCODING 107
SWIDTH 542 0
DWIDTH 6 0
BBX 6 9 0 0
BITMAP
7000
3000
3000
3290
3200
3800
3A00
3240
75D0
ENDCHAR
STARTCHAR l
ENCODING 108
SWIDTH 283 0
DWIDTH 3 0
BBX 3 9 0 0
BITMAP
70
30
30
30
30
30
30
30
74
ENDCHAR
STARTCHAR m
ENCODING 109
SWIDTH 852 0
DWIDTH 9 0
BBX 9 6 0 0
BITMAP
769A00
349240
309240
309240
309240
75E280
ENDCHAR
STARTCHAR n
ENCODING 110
SWIDTH 576 0
DWIDTH 6 0
BBX 6 6 0 0
BITMAP
7680
3490
3090
3090
3090
74E0
ENDCHAR
STARTCHAR o
ENCODING 111
SWIDTH 514 0
DWIDTH 6 0
BBX 6 6 0 0
BITMAP
2640
60C0
9090
9090
60C0
2640
ENDCHAR
STARTCHAR p
ENCODING 112
SWIDTH 537 0
DWIDTH 6 0
BBX 6 9 0 -3
BITMAP
7780
3090
3090
3090
3080
3A40
3000
3000
7800
ENDCHAR
STARTCHAR q
ENCODING 113
SWIDTH 521 0
DWIDTH 6 0
BBX 6 9 0 -3
BITMAP
1A80
60C0
90C0
90C0
60C0
2EC0
00C0
00C0
02D0
ENDCHAR
STARTCHAR r
ENCODING 114
SWIDTH 380 0
DWIDTH 4 0
BBX 4 6 0 0
BITMAP
77
35
30
30
30
74
ENDCHAR
STARTCHAR s
ENCODING 115
SWIDTH 395 0
DWIDTH 4 0
BBX 4 6 0 0
BITMAP
66
91
74
1A
43
66
ENDCHAR
STARTCHAR t
ENCODING 116
SWIDTH 315 0
DWIDTH 3 0
BBX 3 8 0 0
BITMAP
10
20
78
30
30
30
30
28
ENDCHAR
STARTCHAR u
ENCODING 117
SWIDTH 570 0
DWIDTH 6 0
BBX 6 6 0 0
BITMAP
71D0
3090
3090
3090
30D0
2AA0
ENDCHAR
STARTCHAR v
ENCODING 118
SWIDTH 481 0
DWIDTH 5 0
BBX 6 6 0 0
BITMAP
A1D0
6080
2140
1600
0900
0800
ENDCHAR
STARTCHAR w
ENCODING 119
SWIDTH 749 0
DWIDTH 8 0
BBX 8 6 0 0
BITMAP
A2C7
70C1
25D4
1964
0D34
0820
ENDCHAR
STARTCHAR x
ENCODING 120
SWIDTH 479 0
DWIDTH 5 0
BBX 5 6 0 0
BITMAP
7580
2500
0D00
0A00
2340
A280
ENDCHAR
STARTCHAR y
ENCODING 121
SWIDTH 483 0
DWIDTH 5 0
BBX 6 9 0 -3
BITMAP
A1D0
7040
2540
1900
0D00
0900
0800
0400
A000
ENDCHAR
STARTCHAR z
ENCODING 122
SWIDTH 458 0
DWIDTH 5 0
BBX 5 6 0 0
BITMAP
6B40
4700
0900
1800
3040
BA80
ENDCHAR
STARTCHAR braceleft
ENCODING 123
SWIDTH 327 0
DWIDTH 4 0
BBX 3 12 0 -3
BITMAP
04
20
20
20
20
20
50
20
20
20
20
14
ENDCHAR
STARTCHAR bar
ENCODING 124
SWIDTH 267 0
DWIDTH 3 0
BBX 1 12 1 -3
BITMAP
80
80
80
80
80
80
80
80
80
80
80
80
ENDCHAR
STARTCHAR braceright
ENCODING 125
SWIDTH 327 0
DWIDTH 4 0
BBX 4 12 0 -3
BITMAP
50
14
18
14
14
18
09
14
14
14
18
60
ENDCHAR
STARTCHAR asciitilde
ENCODING 126
SWIDTH 557 0
DWIDTH 6 0
BBX 6 2 0 2
BITMAP
2960
5280
ENDCHAR
STARTCHAR uni00A0
ENCODING 160
SWIDTH 235 0
DWIDTH 3 0
BBX 1 1 0 0
BITMAP
00
ENDCHAR
STARTCHAR exclamdown
ENCODING 161
SWIDTH 282 0
DWIDTH 3 0
BBX 1 9 1 -3
BITMAP
C0
40
40
80
80
C0
C0
C0
C0
ENDCHAR
STARTCHAR cent
ENCODING 162
SWIDTH 495 0
DWIDTH 5 0
BBX 5 9 0 -1
BITMAP
0500
1A40
2580
5400
6400
7840
1E00
0400
0400
ENDCHAR
STARTCHAR sterling
ENCODING 163
SWIDTH 495 0
DWIDTH 5 0
BBX 5 8 0 0
BITMAP
0A80
1440
1400
6A00
1800
1800
6840
5B80
ENDCHAR
STARTCHAR currency
ENCODING 164
SWIDTH 617 0
DWIDTH 7 0
BBX 6 6 0 1
BITMAP
4010
2AA0
2060
2020
2450
6A60
ENDCHAR
STARTCHAR yen
ENCODING 165
SWIDTH 495 0
DWIDTH 5 0
BBX 6 8 0 0
BITMAP
A090
7040
2500
1D00
2E40
2E40
0900
1E00
ENDCHAR
STARTCHAR brokenbar
ENCODING 166
SWIDTH 267 0
DWIDTH 3 0
BBX 1 9 1 0
BITMAP
80
80
80
40
00
40
80
80
80
ENDCHAR
STARTCHAR section
ENCODING 167
SWIDTH 491 0
DWIDTH 5 0
BBX 4 11 1 -3
BITMAP
58
85
90
74
5D
85
91
38
0C
89
94
ENDCHAR
STARTCHAR dieresis
ENCODING 168
SWIDTH 392 0
DWIDTH 4 0
BBX 4 1 0 7
BITMAP
92
ENDCHAR
STARTCHAR copyright
ENCODING 169
SWIDTH 781 0
DWIDTH 9 0
BBX 8 9 0 0
BITMAP
0550
1404
1261
4911
4901
4901
1291
1404
0550
ENDCHAR
STARTCHAR ordfeminine
ENCODING 170
SWIDTH 410 0
DWIDTH 5 0
BBX 4 4 0 3
BITMAP
69
06
56
66
ENDCHAR
STARTCHAR guillemotleft
ENCODING 171
SWIDTH 517 0
DWIDTH 6 0
BBX 5 5 0 0
BITMAP
0440
2240
5600
2540
0440
ENDCHAR
STARTCHAR logicalnot
ENCODING 172
SWIDTH 720 0
DWIDTH 8 0
BBX 7 5 0 0
BITMAP
7FFC
0008
0008
0008
0004
ENDCHAR
STARTCHAR uni00AD
ENCODING 173
SWIDTH 315 0
DWIDTH 3 0
BBX 3 1 0 3
BITMAP
68
ENDCHAR
STARTCHAR registered
ENCODING 174
SWIDTH 413 0
DWIDTH 5 0
BBX 4 5 0 4
BITMAP
14
55
58
55
14
ENDCHAR
STARTCHAR macron
ENCODING 175
SWIDTH 350 0
DWIDTH 4 0
BBX 4 1 0 7
BITMAP
A9
ENDCHAR
STARTCHAR degree
ENCODING 176
SWIDTH 409 0
DWIDTH 5 0
BBX 4 4 0 5
BITMAP
29
52
52
29
ENDCHAR
STARTCHAR plusminus
ENCODING 177
SWIDTH 720 0
DWIDTH 8 0
BBX 8 8 0 0
BITMAP
0140
0140
0140
6BE9
0140
0140
0000
6AA9
ENDCHAR
STARTCHAR twosuperior
ENCODING 178
SWIDTH 373 0
DWIDTH 4 0
BBX 4 5 0 3
BITMAP
69
06
08
10
AA
ENDCHAR
STARTCHAR threesuperior
ENCODING 179
SWIDTH 374 0
DWIDTH 4 0
BBX 4 5 0 3
BITMAP
68
09
19
06
55
ENDCHAR
STARTCHAR acute
ENCODING 180
SWIDTH 222 0
DWIDTH 2 0
BBX 2 2 0 6
BITMAP
30
50
ENDCHAR
STARTCHAR uni00B5
ENCODING 181
SWIDTH 556 0
DWIDTH 6 0
BBX 6 9 0 -3
BITMAP
60C0
6080
2080
1180
6180
6DA0
5000
5000
5000
ENDCHAR
STARTCHAR paragraph
ENCODING 182
SWIDTH 605 0
DWIDTH 7 0
BBX 6 10 0 -2
BITMAP
2AE0
6280
6280
6280
1680
0280
0280
0280
0280
0A90
ENDCHAR
STARTCHAR periodcentered
ENCODING 183
SWIDTH 282 0
DWIDTH 3 0
BBX 1 2 1 2
BITMAP
C0
40
ENDCHAR
STARTCHAR cedilla
ENCODING 184
SWIDTH 247 0
DWIDTH 3 0
BBX 3 3 0 -3
BITMAP
20
14
60
ENDCHAR
STARTCHAR onesuperior
ENCODING 185
SWIDTH 343 0
DWIDTH 4 0
BBX 3 5 0 3
BITMAP
64
14
14
14
28
ENDCHAR
STARTCHAR ordmasculine
ENCODING 186
SWIDTH 432 0
DWIDTH 5 0
BBX 5 4 0 3
BITMAP
2600
9240
9240
2600
ENDCHAR
STARTCHAR guillemotright
ENCODING 187
SWIDTH 517 0
DWIDTH 6 0
BBX 6 5 0 0
BITMAP
5100
2580
0C90
2140
4100
ENDCHAR
STARTCHAR onequarter
ENCODING 188
SWIDTH 861 0
DWIDTH 9 0
BBX 9 10 0 -1
BITMAP
000400
640800
241400
242000
245240
248640
010540
021BC0
040140
040000
ENDCHAR
STARTCHAR onehalf
ENCODING 189
SWIDTH 889 0
DWIDTH 10 0
BBX 10 9 0 0
BITMAP
000400
640800
241400
242000
244680
244090
020080
050110
040A90
ENDCHAR
STARTCHAR threequarters
ENCODING 190
SWIDTH 861 0
DWIDTH 9 0
BBX 9 10 0 -1
BITMAP
000400
280800
491400
182000
065240
648540
010540
021BC0
040140
040000
ENDCHAR
STARTCHAR questiondown
ENCODING 191
SWIDTH 411 0
DWIDTH 5 0
BBX 5 9 0 -3
BITMAP
1800
0400
0400
1400
2000
6000
9200
9240
2600
ENDCHAR
STARTCHAR Agrave
ENCODING 192
SWIDTH 718 0
DWIDTH 8 0
BBX 8 11 0 0
BITMAP
0100
0140
0000
0240
0380
05C0
08A0
0870
19B4
2028
A02D
ENDCHAR
STARTCHAR Aacute
ENCODING 193
SWIDTH 718 0
DWIDTH 8 0
BBX 8 11 0 0
BITMAP
0040
0240
0000
0240
0380
05C0
08A0
0870
19B4
2028
A02D
ENDCHAR
STARTCHAR Acircumflex
ENCODING 194
SWIDTH 718 0
DWIDTH 8 0
BBX 8 11 0 0
BITMAP
0140
0580
0000
0240
0380
05C0
08A0
0870
19B4
2028
A02D
ENDCHAR
STARTCHAR Atilde
ENCODING 195
SWIDTH 718 0
DWIDTH 8 0
BBX 8 10 0 0
BITMAP
0690
0000
0240
0380
05C0
08A0
0870
19B4
2028
A02D
ENDCHAR
STARTCHAR Adieresis
ENCODING 196
SWIDTH 718 0
DWIDTH 8 0
BBX 8 10 0 0
BITMAP
0D60
0000
0240
0380
05C0
08A0
0870
19B4
2028
A02D
ENDCHAR
STARTCHAR Aring
ENCODING 197
SWIDTH 718 0
DWIDTH 8 0
BBX 8 11 0 0
BITMAP
0140
0580
0140
0240
0380
05C0
08A0
0870
19B4
2028
A02D
ENDCHAR
STARTCHAR AE
ENCODING 198
SWIDTH 894 0
DWIDTH 10 0
BBX 10 8 0 0
BITMAP
02EAC0
01A040
026040
046140
0AAA40
146010
206050
A1AAD0
ENDCHAR
STARTCHAR Ccedilla
ENCODING 199
SWIDTH 670 0
DWIDTH 7 0
BBX 7 11 0 -3
BITMAP
0AB8
2418
7004
6000
6000
7000
2804
0BA0
0140
0080
0140
ENDCHAR
STARTCHAR Egrave
ENCODING 200
SWIDTH 626 0
DWIDTH 7 0
BBX 7 11 0 0
BITMAP
0500
0240
0000
7AB4
2400
2410
2990
2410
2404
2404
6AB4
ENDCHAR
STARTCHAR Eacute
ENCODING 201
SWIDTH 626 0
DWIDTH 7 0
BBX 7 11 0 0
BITMAP
0140
0600
0000
7AB4
2400
2410
2990
2410
2404
2404
6AB4
ENDCHAR
STARTCHAR Ecircumflex
ENCODING 202
SWIDTH 626 0
DWIDTH 7 0
BBX 7 11 0 0
BITMAP
0100
0980
0000
7AB4
2400
2410
2990
2410
2404
2404
6AB4
ENDCHAR
STARTCHAR Edieresis
ENCODING 203
SWIDTH 626 0
DWIDTH 7 0
BBX 7 10 0 0
BITMAP
1890
0000
7AB4
2400
2410
2990
2410
2404
2404
6AB4
ENDCHAR
STARTCHAR Igrave
ENCODING 204
SWIDTH 357 0
DWIDTH 4 0
BBX 4 11 0 0
BITMAP
10
18
00
79
24
24
24
24
24
24
79
ENDCHAR
STARTCHAR Iacute
ENCODING 205
SWIDTH 357 0
DWIDTH 4 0
BBX 4 11 0 0
BITMAP
04
24
00
79
24
24
24
24
24
24
79
ENDCHAR
STARTCHAR Icircumflex
ENCODING 206
SWIDTH 357 0
DWIDTH 4 0
BBX 4 11 0 0
BITMAP
14
55
00
79
24
24
24
24
24
24
79
ENDCHAR
STARTCHAR Idieresis
ENCODING 207
SWIDTH 357 0
DWIDTH 4 0
BBX 4 10 0 0
BITMAP
96
00
79
24
24
24
24
24
24
79
ENDCHAR
STARTCHAR Eth
ENCODING 208
SWIDTH 737 0
DWIDTH 8 0
BBX 8 8 0 0
BITMAP
6AA0
181C
180D
6A4A
1809
1809
181C
69A0
ENDCHAR
STARTCHAR Ntilde
ENCODING 209
SWIDTH 742 0
DWIDTH 8 0
BBX 8 10 0 0
BITMAP
06A0
0000
781D
2D08
2708
2288
20D8
2078
202C
7408
ENDCHAR
STARTCHAR Ograve
ENCODING 210
SWIDTH 738 0
DWIDTH 8 0
BBX 8 11 0 0
BITMAP
0100
0180
0000
0AA0
241C
7009
600A
600A
7009
2418
0AA0
ENDCHAR
STARTCHAR Oacute
ENCODING 211
SWIDTH 738 0
DWIDTH 8 0
BBX 8 11 0 0
BITMAP
0040
0240
0000
0AA0
241C
7009
600A
600A
7009
2418
0AA0
ENDCHAR
STARTCHAR Ocircumflex
ENCODING 212
SWIDTH 738 0
DWIDTH 8 0
BBX 8 11 0 0
BITMAP
0140
0650
0000
0AA0
241C
7009
600A
600A
7009
2418
0AA0
ENDCHAR
STARTCHAR Otilde
ENCODING 213
SWIDTH 738 0
DWIDTH 8 0
BBX 8 10 0 0
BITMAP
0690
0000
0AA0
241C
7009
600A
600A
7009
2418
0AA0
ENDCHAR
STARTCHAR Odieresis
ENCODING 214
SWIDTH 738 0
DWIDTH 8 0
BBX 8 10 0 0
BITMAP
0960
0000
0AA0
241C
7009
600A
600A
7009
2418
0AA0
ENDCHAR
STARTCHAR multiply
ENCODING 215
SWIDTH 720 0
DWIDTH 8 0
BBX 6 6 1 0
BITMAP
8020
6090
1A40
0A00
2580
9060
ENDCHAR
STARTCHAR Oslash
ENCODING 216
SWIDTH 737 0
DWIDTH 8 0
BBX 8 8 0 0
BITMAP
0AA4
2428
705D
604A
620A
7409
2418
2AA0
ENDCHAR
STARTCHAR Ugrave
ENCODING 217
SWIDTH 752 0
DWIDTH 8 0
BBX 8 11 0 0
BITMAP
0140
0080
0000
781E
2408
2408
2408
2408
2408
1808
0AA0
ENDCHAR
STARTCHAR Uacute
ENCODING 218
SWIDTH 752 0
DWIDTH 8 0
BBX 8 11 0 0
BITMAP
0050
0180
0000
781E
2408
2408
2408
2408
2408
1808
0AA0
ENDCHAR
STARTCHAR Ucircumflex
ENCODING 219
SWIDTH 752 0
DWIDTH 8 0
BBX 8 11 0 0
BITMAP
0040
0250
0000
781E
2408
2408
2408
2408
2408
1808
0AA0
ENDCHAR
STARTCHAR Udieresis
ENCODING 220
SWIDTH 752 0
DWIDTH 8 0
BBX 8 10 0 0
BITMAP
0630
0000
781E
2408
2408
2408
2408
2408
1808
0AA0
ENDCHAR
STARTCHAR Yacute
ENCODING 221
SWIDTH 647 0
DWIDTH 7 0
BBX 7 11 0 0
BITMAP
0140
0200
0000
B428
2820
0C50
0A80
0340
0300
0300
0780
ENDCHAR
STARTCHAR Thorn
ENCODING 222
SWIDTH 572 0
DWIDTH 6 0
BBX 6 8 0 0
BITMAP
7900
2A80
2460
2470
2460
2A40
2400
6D00
ENDCHAR
STARTCHAR germandbls
ENCODING 223
SWIDTH 563 0
DWIDTH 6 0
BBX 6 9 0 0
BITMAP
1580
2080
3080
7240
3180
3060
3060
3560
7690
ENDCHAR
STARTCHAR agrave
ENCODING 224
SWIDTH 480 0
DWIDTH 5 0
BBX 5 8 0 0
BITMAP
1800
0800
2600
5240
0640
2240
9240
7A80
ENDCHAR
STARTCHAR aacute
ENCODING 225
SWIDTH 480 0
DWIDTH 5 0
BBX 5 8 0 0
BITMAP
0600
0800
2600
5240
0640
2240
9240
7A80
ENDCHAR
STARTCHAR acircumflex
ENCODING 226
SWIDTH 480 0
DWIDTH 5 0
BBX 5 8 0 0
BITMAP
0D00
2200
2600
5240
0640
2240
9240
7A80
ENDCHAR
STARTCHAR atilde
ENCODING 227
SWIDTH 480 0
DWIDTH 5 0
BBX 5 8 0 0
BITMAP
2940
1600
2600
5240
0640
2240
9240
7A80
ENDCHAR
STARTCHAR adieresis
ENCODING 228
SWIDTH 480 0
DWIDTH 5 0
BBX 5 8 0 0
BITMAP
2240
0000
2600
5240
0640
2240
9240
7A80
ENDCHAR
STARTCHAR aring
ENCODING 229
SWIDTH 480 0
DWIDTH 5 0
BBX 5 9 0 0
BITMAP
1900
2200
1900
2600
5240
0640
2240
9240
7A80
ENDCHAR
STARTCHAR ae
ENCODING 230
SWIDTH 709 0
DWIDTH 8 0
BBX 8 6 0 0
BITMAP
26A8
5249
07A9
2240
9281
79B8
ENDCHAR
STARTCHAR ccedilla
ENCODING 231
SWIDTH 446 0
DWIDTH 5 0
BBX 5 9 0 -3
BITMAP
1640
5140
9000
9000
6040
2E00
0400
0500
0600
ENDCHAR
STARTCHAR egrave
ENCODING 232
SWIDTH 464 0
DWIDTH 5 0
BBX 5 8 0 0
BITMAP
1800
0800
2A00
5140
AA80
9000
6040
2E00
ENDCHAR
STARTCHAR eacute
ENCODING 233
SWIDTH 464 0
DWIDTH 5 0
BBX 5 8 0 0
BITMAP
0600
0800
2A00
5140
AA80
9000
6040
2E00
ENDCHAR
STARTCHAR ecircumflex
ENCODING 234
SWIDTH 464 0
DWIDTH 5 0
BBX 5 8 0 0
BITMAP
0D00
1200
2A00
5140
AA80
9000
6040
2E00
ENDCHAR
STARTCHAR edieresis
ENCODING 235
SWIDTH 464 0
DWIDTH 5 0
BBX 5 8 0 0
BITMAP
3240
0000
2A00
5140
AA80
9000
6040
2E00
ENDCHAR
STARTCHAR igrave
ENCODING 236
SWIDTH 285 0
DWIDTH 3 0
BBX 3 8 0 0
BITMAP
90
20
70
30
30
30
30
74
ENDCHAR
STARTCHAR iacute
ENCODING 237
SWIDTH 285 0
DWIDTH 3 0
BBX 3 8 0 0
BITMAP
24
20
70
30
30
30
30
74
ENDCHAR
STARTCHAR icircumflex
ENCODING 238
SWIDTH 285 0
DWIDTH 3 0
BBX 3 9 0 0
BITMAP
70
94
44
70
30
30
30
30
74
ENDCHAR
STARTCHAR idieresis
ENCODING 239
SWIDTH 285 0
DWIDTH 3 0
BBX 4 8 -1 0
BITMAP
63
11
1C
0C
0C
0C
0C
1D
ENDCHAR
STARTCHAR eth
ENCODING 240
SWIDTH 532 0
DWIDTH 6 0
BBX 6 9 0 0
BITMAP
1A40
0680
00C0
26C0
60D0
9090
9090
60C0
2640
ENDCHAR
STARTCHAR ntilde
ENCODING 241
SWIDTH 576 0
DWIDTH 6 0
BBX 6 8 0 0
BITMAP
0940
1280
7680
3490
3090
3090
3090
74E0
ENDCHAR
STARTCHAR ograve
ENCODING 242
SWIDTH 514 0
DWIDTH 6 0
BBX 6 8 0 0
BITMAP
0C00
0500
2640
60C0
9090
9090
60C0
2640
ENDCHAR
STARTCHAR oacute
ENCODING 243
SWIDTH 514 0
DWIDTH 6 0
BBX 6 8 0 0
BITMAP
0200
0400
2640
60C0
9090
9090
60C0
2640
ENDCHAR
STARTCHAR ocircumflex
ENCODING 244
SWIDTH 514 0
DWIDTH 6 0
BBX 6 8 0 0
BITMAP
0A00
1500
2640
60C0
9090
9090
60C0
2640
ENDCHAR
STARTCHAR otilde
ENCODING 245
SWIDTH 514 0
DWIDTH 6 0
BBX 6 8 0 0
BITMAP
1940
1640
2640
60C0
9090
9090
60C0
2640
ENDCHAR
STARTCHAR odieresis
ENCODING 246
SWIDTH 514 0
DWIDTH 6 0
BBX 6 8 0 0
BITMAP
2580
0000
2640
60C0
9090
9090
60C0
2640
ENDCHAR
STARTCHAR divide
ENCODING 247
SWIDTH 720 0
DWIDTH 8 0
BBX 8 7 0 0
BITMAP
0240
0000
0000
7FFD
0000
0000
0240
ENDCHAR
STARTCHAR oslash
ENCODING 248
SWIDTH 514 0
DWIDTH 6 0
BBX 6 6 0 0
BITMAP
2A80
61C0
9590
A490
70C0
6A40
ENDCHAR
STARTCHAR ugrave
ENCODING 249
SWIDTH 570 0
DWIDTH 6 0
BBX 6 8 0 0
BITMAP
0C00
0500
71D0
3090
3090
3090
30D0
2AA0
ENDCHAR
STARTCHAR uacute
ENCODING 250
SWIDTH 570 0
DWIDTH 6 0
BBX 6 8 0 0
BITMAP
0300
0500
71D0
3090
3090
3090
30D0
2AA0
ENDCHAR
STARTCHAR ucircumflex
ENCODING 251
SWIDTH 570 0
DWIDTH 6 0
BBX 6 8 0 0
BITMAP
0A00
1540
71D0
3090
3090
3090
30D0
2AA0
ENDCHAR
STARTCHAR udieresis
ENCODING 252
SWIDTH 570 0
DWIDTH 6 0
BBX 6 8 0 0
BITMAP
2580
0000
71D0
3090
3090
3090
30D0
2AA0
ENDCHAR
STARTCHAR yacute
ENCODING 253
SWIDTH 483 0
DWIDTH 5 0
BBX 6 11 0 -3
BITMAP
0200
0400
A1D0
7040
2540
1900
0D00
0900
0800
0400
A000
ENDCHAR
STARTCHAR thorn
ENCODING 254
SWIDTH 524 0
DWIDTH 6 0
BBX 6 12 0 -3
BITMAP
A000
2000
2000
2B80
30C0
2090
2090
2080
3A40
2000
2000
B400
ENDCHAR
STARTCHAR ydieresis
ENCODING 255
SWIDTH 483 0
DWIDTH 5 0
BBX 6 11 0 -3
BITMAP
2580
0000
A1D0
7040
2540
1900
0D00
0900
0800
0400
A000
ENDCHAR
STARTCHAR Amacron
ENCODING 256
SWIDTH 718 0
DWIDTH 8 0
BBX 8 10 0 0
BITMAP
0690
0000
0240
0380
05C0
08A0
0870
19B4
2028
A02D
ENDCHAR
STARTCHAR amacron
ENCODING 257
SWIDTH 480 0
DWIDTH 5 0
BBX 5 8 0 0
BITMAP
2A00
0000
2600
5240
0640
2240
9240
7A80
ENDCHAR
STARTCHAR Abreve
ENCODING 258
SWIDTH 718 0
DWIDTH 8 0
BBX 8 11 0 0
BITMAP
0410
0680
0000
0240
0380
05C0
08A0
0870
19B4
2028
A02D
ENDCHAR
STARTCHAR abreve
ENCODING 259
SWIDTH 480 0
DWIDTH 5 0
BBX 5 8 0 0
BITMAP
1100
1900
2600
5240
0640
2240
9240
7A80
ENDCHAR
STARTCHAR Aogonek
ENCODING 260
SWIDTH 719 0
DWIDTH 8 0
BBX 8 11 0 -3
BITMAP
0240
0380
05C0
08A0
0870
19B4
2028
A01D
0040
0080
00A0
ENDCHAR
STARTCHAR aogonek
ENCODING 261
SWIDTH 480 0
DWIDTH 5 0
BBX 5 9 0 -3
BITMAP
2600
5240
0640
2240
9240
7A80
0140
0200
0280
ENDCHAR
STARTCHAR Cacute
ENCODING 262
SWIDTH 670 0
DWIDTH 7 0
BBX 7 11 0 0
BITMAP
0040
0140
0000
0AB8
2418
7004
6000
6000
7000
2804
0AA0
ENDCHAR
STARTCHAR cacute
ENCODING 263
SWIDTH 446 0
DWIDTH 5 0
BBX 5 8 0 0
BITMAP
0600
0800
1640
5140
9000
9000
6040
2E00
ENDCHAR
STARTCHAR Ccircumflex
ENCODING 264
SWIDTH 670 0
DWIDTH 7 0
BBX 7 11 0 0
BITMAP
0140
0250
0000
0AB8
2418
7004
6000
6000
7000
2804
0AA0
ENDCHAR
STARTCHAR ccircumflex
ENCODING 265
SWIDTH 446 0
DWIDTH 5 0
BBX 5 8 0 0
BITMAP
0D00
1200
1640
5140
9000
9000
6040
2E00
ENDCHAR
STARTCHAR Cdotaccent
ENCODING 266
SWIDTH 670 0
DWIDTH 7 0
BBX 7 10 0 0
BITMAP
0180
0000
0AB8
2418
7004
6000
6000
7000
2804
0AA0
ENDCHAR
STARTCHAR cdotaccent
ENCODING 267
SWIDTH 446 0
DWIDTH 5 0
BBX 5 8 0 0
BITMAP
0800
0000
1640
5140
9000
9000
6040
2E00
ENDCHAR
STARTCHAR Ccaron
ENCODING 268
SWIDTH 670 0
DWIDTH 7 0
BBX 7 11 0 0
BITMAP
0010
0280
0000
0AB8
2418
7004
6000
6000
7000
2804
0AA0
ENDCHAR
STARTCHAR ccaron
ENCODING 269
SWIDTH 446 0
DWIDTH 5 0
BBX 5 9 0 0
BITMAP
1200
0D00
0000
1640
5140
9000
9000
6040
2E00
ENDCHAR
STARTCHAR Dcaron
ENCODING 270
SWIDTH 730 0
DWIDTH 8 0
BBX 8 11 0 0
BITMAP
0440
0280
0000
6AA0
2418
240D
2409
2409
240D
2418
69A0
ENDCHAR
STARTCHAR dcaron
ENCODING 271
SWIDTH 626 0
DWIDTH 7 0
BBX 7 9 0 0
BITMAP
0198
00D4
00C0
1AC0
60C0
90C0
90C0
60C0
2DD0
ENDCHAR
STARTCHAR Dcroat
ENCODING 272
SWIDTH 733 0
DWIDTH 8 0
BBX 8 8 0 0
BITMAP
6AA0
2428
240D
6A49
2409
240D
2418
79A0
ENDCHAR
STARTCHAR dcroat
ENCODING 273
SWIDTH 540 0
DWIDTH 6 0
BBX 6 9 0 0
BITMAP
0180
01C0
06D0
1AC0
60C0
90C0
90C0
60C0
2DD0
ENDCHAR
STARTCHAR Emacron
ENCODING 274
SWIDTH 626 0
DWIDTH 7 0
BBX 7 10 0 0
BITMAP
0A80
0000
7AB4
2400
2410
2990
2410
2404
2404
6AB4
ENDCHAR
STARTCHAR emacron
ENCODING 275
SWIDTH 464 0
DWIDTH 5 0
BBX 5 8 0 0
BITMAP
2A40
0000
2A00
5140
AA80
9000
6040
2E00
ENDCHAR
STARTCHAR Ebreve
ENCODING 276
SWIDTH 626 0
DWIDTH 7 0
BBX 7 11 0 0
BITMAP
0440
0640
0000
7AB4
2400
2410
2990
2410
2404
2404
6AB4
ENDCHAR
STARTCHAR ebreve
ENCODING 277
SWIDTH 464 0
DWIDTH 5 0
BBX 5 8 0 0
BITMAP
1100
1A00
2A00
5140
AA80
9000
6040
2E00
ENDCHAR
STARTCHAR Edotaccent
ENCODING 278
SWIDTH 626 0
DWIDTH 7 0
BBX 7 10 0 0
BITMAP
0300
0000
7AB4
2400
2410
2990
2410
2404
2404
6AB4
ENDCHAR
STARTCHAR edotaccent
ENCODING 279
SWIDTH 464 0
DWIDTH 5 0
BBX 5 8 0 0
BITMAP
0800
0000
2A00
5140
AA80
9000
6040
2E00
ENDCHAR
STARTCHAR Eogonek
ENCODING 280
SWIDTH 625 0
DWIDTH 7 0
BBX 7 11 0 -3
BITMAP
7AB4
2400
2410
2450
2990
2400
2404
6AB4
0050
0080
00A4
ENDCHAR
STARTCHAR eogonek
ENCODING 281
SWIDTH 464 0
DWIDTH 5 0
BBX 5 9 0 -3
BITMAP
2A00
5140
AA80
9000
6040
2F40
0500
0800
0A00
ENDCHAR
STARTCHAR Ecaron
ENCODING 282
SWIDTH 626 0
DWIDTH 7 0
BBX 7 11 0 0
BITMAP
0440
0640
0000
7AB4
2400
2410
2990
2410
2404
2404
6AB4
ENDCHAR
STARTCHAR ecaron
ENCODING 283
SWIDTH 464 0
DWIDTH 5 0
BBX 5 9 0 0
BITMAP
1200
0D00
0000
2A00
5140
AA80
9000
6040
2E00
ENDCHAR
STARTCHAR Gcircumflex
ENCODING 284
SWIDTH 720 0
DWIDTH 8 0
BBX 8 11 0 0
BITMAP
0140
0250
0000
0AB8
2408
7004
6000
6029
7018
2418
0AA4
ENDCHAR
STARTCHAR gcircumflex
ENCODING 285
SWIDTH 484 0
DWIDTH 5 0
BBX 5 11 0 -3
BITMAP
0D00
1200
2780
6140
6240
2500
5000
7F80
5080
9080
7A40
ENDCHAR
STARTCHAR Gbreve
ENCODING 286
SWIDTH 720 0
DWIDTH 8 0
BBX 8 11 0 0
BITMAP
0410
0290
0000
0AB8
2408
7004
6000
6029
7018
2418
0AA4
ENDCHAR
STARTCHAR gbreve
ENCODING 287
SWIDTH 484 0
DWIDTH 5 0
BBX 5 11 0 -3
BITMAP
1100
1A00
2780
6140
6240
2500
5000
7F80
5080
9080
7A40
ENDCHAR
STARTCHAR Gdotaccent
ENCODING 288
SWIDTH 720 0
DWIDTH 8 0
BBX 8 10 0 0
BITMAP
0180
0000
0AB8
2408
7004
6000
6029
7018
2418
0AA4
ENDCHAR
STARTCHAR gdotaccent
ENCODING 289
SWIDTH 484 0
DWIDTH 5 0
BBX 5 11 0 -3
BITMAP
0800
0000
2780
6140
6240
2500
5000
7F80
5080
9080
7A40
ENDCHAR
STARTCHAR Gcommaaccent
ENCODING 290
SWIDTH 720 0
DWIDTH 8 0
BBX 8 12 0 -4
BITMAP
0AB8
2408
7004
6000
6029
7018
2418
0AA4
0000
0280
0040
0100
ENDCHAR
STARTCHAR gcommaaccent
ENCODING 291
SWIDTH 484 0
DWIDTH 5 0
BBX 5 12 0 -3
BITMAP
0800
0D00
0000
2780
6140
6240
2500
5000
7F80
5080
9080
7A40
ENDCHAR
STARTCHAR Hcircumflex
ENCODING 292
SWIDTH 777 0
DWIDTH 9 0
BBX 8 11 0 0
BITMAP
0040
0250
0000
791E
240C
240C
295C
240C
240C
240C
691E
ENDCHAR
STARTCHAR hcircumflex
ENCODING 293
SWIDTH 577 0
DWIDTH 6 0
BBX 6 11 0 0
BITMAP
0500
1540
7000
3000
3000
3680
3490
3090
3090
3090
74A0
ENDCHAR
STARTCHAR Hbar
ENCODING 294
SWIDTH 788 0
DWIDTH 9 0
BBX 8 8 0 0
BITMAP
691E
280C
695E
195C
180C
180C
180C
691E
ENDCHAR
STARTCHAR hbar
ENCODING 295
SWIDTH 579 0
DWIDTH 6 0
BBX 6 9 0 0
BITMAP
7000
3000
7900
3680
3490
3090
3090
3090
74A0
ENDCHAR
STARTCHAR Itilde
ENCODING 296
SWIDTH 357 0
DWIDTH 4 0
BBX 4 10 0 0
BITMAP
69
00
79
24
24
24
24
24
24
79
ENDCHAR
STARTCHAR itilde
ENCODING 297
SWIDTH 285 0
DWIDTH 3 0
BBX 3 8 0 0
BITMAP
94
68
70
30
30
30
30
74
ENDCHAR
STARTCHAR Imacron
ENCODING 298
SWIDTH 357 0
DWIDTH 4 0
BBX 4 10 0 0
BITMAP
69
00
79
24
24
24
24
24
24
79
ENDCHAR
STARTCHAR imacron
ENCODING 299
SWIDTH 285 0
DWIDTH 3 0
BBX 3 8 0 0
BITMAP
A8
00
70
30
30
30
30
74
ENDCHAR
STARTCHAR Ibreve
ENCODING 300
SWIDTH 357 0
DWIDTH 4 0
BBX 4 11 0 0
BITMAP
41
28
00
79
24
24
24
24
24
24
79
ENDCHAR
STARTCHAR ibreve
ENCODING 301
SWIDTH 285 0
DWIDTH 3 0
BBX 3 9 0 0
BITMAP
44
44
60
70
30
30
30
30
74
ENDCHAR
STARTCHAR Iogonek
ENCODING 302
SWIDTH 357 0
DWIDTH 4 0
BBX 4 11 0 -3
BITMAP
79
24
24
24
24
24
24
69
10
20
28
ENDCHAR
STARTCHAR iogonek
ENCODING 303
SWIDTH 285 0
DWIDTH 3 0
BBX 3 12 0 -3
BITMAP
30
10
00
70
30
30
30
30
74
10
50
64
ENDCHAR
STARTCHAR Idotaccent
ENCODING 304
SWIDTH 357 0
DWIDTH 4 0
BBX 4 10 0 0
BITMAP
24
00
79
24
24
24
24
24
24
79
ENDCHAR
STARTCHAR dotlessi
ENCODING 305
SWIDTH 285 0
DWIDTH 3 0
BBX 3 6 0 0
BITMAP
70
30
30
30
30
74
ENDCHAR
STARTCHAR IJ
ENCODING 306
SWIDTH 753 0
DWIDTH 8 0
BBX 8 8 0 0
BITMAP
792E
240C
240C
240C
240C
240C
244C
79A4
ENDCHAR
STARTCHAR ij
ENCODING 307
SWIDTH 548 0
DWIDTH 6 0
BBX 6 11 0 -3
BITMAP
3090
1040
71C0
3080
3080
3080
3080
7480
0080
0480
0A40
ENDCHAR
STARTCHAR Jcircumflex
ENCODING 308
SWIDTH 396 0
DWIDTH 4 0
BBX 4 11 0 0
BITMAP
04
16
00
1E
0C
0C
0C
0C
0C
4C
A8
ENDCHAR
STARTCHAR jcircumflex
ENCODING 309
SWIDTH 263 0
DWIDTH 3 0
BBX 4 11 -1 -3
BITMAP
1C
21
1C
0C
0C
0C
0C
0C
0C
48
A4
ENDCHAR
STARTCHAR Kcommaaccent
ENCODING 310
SWIDTH 702 0
DWIDTH 8 0
BBX 8 12 0 -4
BITMAP
7978
2450
2540
2A00
2B40
25C0
2470
697D
0000
0240
0040
0100
ENDCHAR
STARTCHAR kcommaaccent
ENCODING 311
SWIDTH 542 0
DWIDTH 6 0
BBX 6 13 0 -4
BITMAP
7000
3000
3000
3290
3200
3800
3A00
3240
75D0
0000
0A00
0200
0400
ENDCHAR
STARTCHAR kgreenlandic
ENCODING 312
SWIDTH 542 0
DWIDTH 6 0
BBX 6 6 0 0
BITMAP
71D0
3200
3800
3A00
3240
75D0
ENDCHAR
STARTCHAR Lacute
ENCODING 313
SWIDTH 585 0
DWIDTH 6 0
BBX 6 11 0 0
BITMAP
0500
1800
0000
7900
2400
2400
2400
2400
2400
2410
6AB0
ENDCHAR
STARTCHAR lacute
ENCODING 314
SWIDTH 283 0
DWIDTH 3 0
BBX 3 11 0 0
BITMAP
14
20
70
30
30
30
30
30
30
30
74
ENDCHAR
STARTCHAR Lcommaaccent
ENCODING 315
SWIDTH 585 0
DWIDTH 6 0
BBX 6 11 0 -3
BITMAP
7900
2400
2400
2400
2400
2400
2410
6AB0
0000
0600
0200
ENDCHAR
STARTCHAR lcommaaccent
ENCODING 316
SWIDTH 283 0
DWIDTH 3 0
BBX 3 13 0 -4
BITMAP
70
30
30
30
30
30
30
30
74
00
30
10
10
ENDCHAR
STARTCHAR Lcaron
ENCODING 317
SWIDTH 585 0
DWIDTH 6 0
BBX 6 8 0 0
BITMAP
7960
2450
2440
2400
2400
2400
2410
6AB0
ENDCHAR
STARTCHAR lcaron
ENCODING 318
SWIDTH 366 0
DWIDTH 4 0
BBX 4 9 0 0
BITMAP
72
35
30
30
30
30
30
30
74
ENDCHAR
STARTCHAR Ldot
ENCODING 319
SWIDTH 605 0
DWIDTH 7 0
BBX 6 8 0 0
BITMAP
7900
2400
2400
2460
2400
2400
2410
6AB0
ENDCHAR
STARTCHAR ldot
ENCODING 320
SWIDTH 357 0
DWIDTH 4 0
BBX 4 9 0 0
BITMAP
70
30
30
30
33
30
30
30
74
ENDCHAR
STARTCHAR Lslash
ENCODING 321
SWIDTH 590 0
DWIDTH 6 0
BBX 7 8 0 0
BITMAP
6D00
1800
1940
1900
6800
1800
1814
6EB0
ENDCHAR
STARTCHAR lslash
ENCODING 322
SWIDTH 290 0
DWIDTH 3 0
BBX 3 9 0 0
BITMAP
70
30
30
38
30
70
30
30
74
ENDCHAR
STARTCHAR Nacute
ENCODING 323
SWIDTH 742 0
DWIDTH 8 0
BBX 8 11 0 0
BITMAP
0040
0140
0000
781D
2D08
2708
2288
20D8
2078
202C
7408
ENDCHAR
STARTCHAR nacute
ENCODING 324
SWIDTH 576 0
DWIDTH 6 0
BBX 6 8 0 0
BITMAP
0240
0200
7680
3490
3090
3090
3090
74E0
ENDCHAR
STARTCHAR Ncommaaccent
ENCODING 325
SWIDTH 742 0
DWIDTH 8 0
BBX 8 12 0 -4
BITMAP
781D
2D08
2708
2288
20D8
2078
202C
7408
0000
0280
0040
0100
ENDCHAR
STARTCHAR ncommaaccent
ENCODING 326
SWIDTH 576 0
DWIDTH 6 0
BBX 6 10 0 -4
BITMAP
7680
3490
3090
3090
3090
74E0
0000
0600
0200
0400
ENDCHAR
STARTCHAR Ncaron
ENCODING 327
SWIDTH 742 0
DWIDTH 8 0
BBX 8 11 0 0
BITMAP
0110
0280
0000
781D
2D08
2708
2288
20D8
2078
202C
7408
ENDCHAR
STARTCHAR ncaron
ENCODING 328
SWIDTH 576 0
DWIDTH 6 0
BBX 6 9 0 0
BITMAP
0840
0700
0000
7680
3490
3090
3090
3090
74E0
ENDCHAR
STARTCHAR napostrophe
ENCODING 329
SWIDTH 576 0
DWIDTH 6 0
BBX 8 9 -2 0
BITMAP
6000
2000
5000
0768
0349
0309
0309
0309
074E
ENDCHAR
STARTCHAR Eng
ENCODING 330
SWIDTH 742 0
DWIDTH 8 0
BBX 8 11 0 -3
BITMAP
781D
2D08
2708
2288
20D8
2078
202C
7408
0008
0048
00E4
ENDCHAR
STARTCHAR eng
ENCODING 331
SWIDTH 559 0
DWIDTH 6 0
BBX 6 9 0 -3
BITMAP
7680
3490
3090
3090
3090
7490
0090
0480
0A40
ENDCHAR
STARTCHAR Omacron
ENCODING 332
SWIDTH 738 0
DWIDTH 8 0
BBX 8 10 0 0
BITMAP
0690
0000
0AA0
241C
7009
600A
600A
7009
2418
0AA0
ENDCHAR
STARTCHAR omacron
ENCODING 333
SWIDTH 514 0
DWIDTH 6 0
BBX 6 8 0 0
BITMAP
2A40
0000
2640
60C0
9090
9090
60C0
2640
ENDCHAR
STARTCHAR Obreve
ENCODING 334
SWIDTH 738 0
DWIDTH 8 0
BBX 8 11 0 0
BITMAP
0410
0280
0000
0AA0
241C
7009
600A
600A
7009
2418
0AA0
ENDCHAR
STARTCHAR obreve
ENCODING 335
SWIDTH 514 0
DWIDTH 6 0
BBX 6 8 0 0
BITMAP
1040
1A00
2640
60C0
9090
9090
60C0
2640
ENDCHAR
STARTCHAR Ohungarumlaut
ENCODING 336
SWIDTH 738 0
DWIDTH 8 0
BBX 8 11 0 0
BITMAP
0154
0250
0000
0AA0
241C
7009
600A
600A
7009
2418
0AA0
ENDCHAR
STARTCHAR ohungarumlaut
ENCODING 337
SWIDTH 514 0
DWIDTH 6 0
BBX 6 8 0 0
BITMAP
0980
0900
2640
60C0
9090
9090
60C0
2640
ENDCHAR
STARTCHAR OE
ENCODING 338
SWIDTH 945 0
DWIDTH 10 0
BBX 10 8 0 0
BITMAP
0ABAA0
243010
703040
603A80
603040
703010
243020
0ABAA0
ENDCHAR
STARTCHAR oe
ENCODING 339
SWIDTH 807 0
DWIDTH 9 0
BBX 9 6 0 0
BITMAP
266600
60D240
90E640
90D000
60E040
266E00
ENDCHAR
STARTCHAR Racute
ENCODING 340
SWIDTH 659 0
DWIDTH 7 0
BBX 7 11 0 0
BITMAP
0140
0600
0000
7A90
2470
2430
2460
2A80
25C0
24A0
6928
ENDCHAR
STARTCHAR racute
ENCODING 341
SWIDTH 380 0
DWIDTH 4 0
BBX 4 8 0 0
BITMAP
09
14
77
35
30
30
30
74
ENDCHAR
STARTCHAR Rcommaaccent
ENCODING 342
SWIDTH 659 0
DWIDTH 7 0
BBX 7 12 0 -4
BITMAP
7A90
2470
2430
2460
2A80
25C0
24A0
6928
0000
0340
0140
0100
ENDCHAR
STARTCHAR rcommaaccent
ENCODING 343
SWIDTH 380 0
DWIDTH 4 0
BBX 4 10 0 -4
BITMAP
77
35
30
30
30
74
00
24
14
10
ENDCHAR
STARTCHAR Rcaron
ENCODING 344
SWIDTH 659 0
DWIDTH 7 0
BBX 7 11 0 0
BITMAP
0440
0640
0000
7A90
2470
2430
2460
2A80
25C0
24A0
6928
ENDCHAR
STARTCHAR rcaron
ENCODING 345
SWIDTH 380 0
DWIDTH 4 0
BBX 4 9 0 0
BITMAP
15
18
00
77
35
30
30
30
74
ENDCHAR
STARTCHAR Sacute
ENCODING 346
SWIDTH 504 0
DWIDTH 6 0
BBX 5 11 0 0
BITMAP
0500
0800
0000
2A80
6080
7040
2D00
0780
40C0
80C0
BA40
ENDCHAR
STARTCHAR sacute
ENCODING 347
SWIDTH 394 0
DWIDTH 4 0
BBX 4 8 0 0
BITMAP
09
14
66
91
74
1A
43
66
ENDCHAR
STARTCHAR Scircumflex
ENCODING 348
SWIDTH 504 0
DWIDTH 6 0
BBX 5 11 0 0
BITMAP
0500
1600
0000
2A80
6080
7040
2D00
0780
40C0
80C0
BA40
ENDCHAR
STARTCHAR scircumflex
ENCODING 349
SWIDTH 394 0
DWIDTH 4 0
BBX 4 8 0 0
BITMAP
18
15
66
91
74
1A
43
66
ENDCHAR
STARTCHAR uni015E
ENCODING 350
SWIDTH 504 0
DWIDTH 6 0
BBX 5 11 0 -3
BITMAP
2A80
6080
7040
2D00
0780
40C0
80C0
BA40
0500
0200
0500
ENDCHAR
STARTCHAR uni015F
ENCODING 351
SWIDTH 394 0
DWIDTH 4 0
BBX 4 9 0 -3
BITMAP
66
91
74
1A
43
6A
18
05
18
ENDCHAR
STARTCHAR Scaron
ENCODING 352
SWIDTH 504 0
DWIDTH 6 0
BBX 5 11 0 0
BITMAP
1100
0A00
0000
2A80
6080
7040
2D00
0780
40C0
80C0
BA40
ENDCHAR
STARTCHAR scaron
ENCODING 353
SWIDTH 394 0
DWIDTH 4 0
BBX 4 9 0 0
BITMAP
15
18
00
66
91
74
1A
43
66
ENDCHAR
STARTCHAR uni0162
ENCODING 354
SWIDTH 603 0
DWIDTH 7 0
BBX 7 11 0 -3
BITMAP
ABA4
4604
0600
0600
0600
0600
0700
0B40
0200
0140
0600
ENDCHAR
STARTCHAR uni0163
ENCODING 355
SWIDTH 315 0
DWIDTH 3 0
BBX 3 11 0 -3
BITMAP
10
20
78
30
30
30
30
38
18
08
14
ENDCHAR
STARTCHAR Tcaron
ENCODING 356
SWIDTH 603 0
DWIDTH 7 0
BBX 7 11 0 0
BITMAP
0440
0640
0000
ABA4
4604
0600
0600
0600
0600
0700
0B40
ENDCHAR
STARTCHAR tcaron
ENCODING 357
SWIDTH 353 0
DWIDTH 4 0
BBX 4 9 0 0
BITMAP
02
15
20
78
30
30
30
30
28
ENDCHAR
STARTCHAR Tbar
ENCODING 358
SWIDTH 603 0
DWIDTH 7 0
BBX 7 8 0 0
BITMAP
ABA4
4604
0600
1B40
0600
0600
0700
0B40
ENDCHAR
STARTCHAR tbar
ENCODING 359
SWIDTH 328 0
DWIDTH 4 0
BBX 3 8 0 0
BITMAP
10
20
78
30
78
30
30
28
ENDCHAR
STARTCHAR Utilde
ENCODING 360
SWIDTH 752 0
DWIDTH 8 0
BBX 8 10 0 0
BITMAP
02A0
0000
781E
2408
2408
2408
2408
2408
1808
0AA0
ENDCHAR
STARTCHAR utilde
ENCODING 361
SWIDTH 570 0
DWIDTH 6 0
BBX 6 8 0 0
BITMAP
1940
1240
71D0
3090
3090
3090
30D0
2AA0
ENDCHAR
STARTCHAR Umacron
ENCODING 362
SWIDTH 752 0
DWIDTH 8 0
BBX 8 10 0 0
BITMAP
02A0
0000
781E
2408
2408
2408
2408
2408
1808
0AA0
ENDCHAR
STARTCHAR umacron
ENCODING 363
SWIDTH 570 0
DWIDTH 6 0
BBX 6 8 0 0
BITMAP
1A40
0000
71D0
3090
3090
3090
30D0
2AA0
ENDCHAR
STARTCHAR Ubreve
ENCODING 364
SWIDTH 752 0
DWIDTH 8 0
BBX 8 11 0 0
BITMAP
0110
0290
0000
781E
2408
2408
2408
2408
2408
1808
0AA0
ENDCHAR
STARTCHAR ubreve
ENCODING 365
SWIDTH 570 0
DWIDTH 6 0
BBX 6 8 0 0
BITMAP
1040
0A00
71D0
3090
3090
3090
30D0
2AA0
ENDCHAR
STARTCHAR Uring
ENCODING 366
SWIDTH 752 0
DWIDTH 8 0
BBX 8 11 0 0
BITMAP
0180
0210
0180
781E
2408
2408
2408
2408
2408
1808
0AA0
ENDCHAR
STARTCHAR uring
ENCODING 367
SWIDTH 570 0
DWIDTH 6 0
BBX 6 9 0 0
BITMAP
0500
0500
0500
71D0
3090
3090
3090
30D0
2AA0
ENDCHAR
STARTCHAR Uhungarumlaut
ENCODING 368
SWIDTH 752 0
DWIDTH 8 0
BBX 8 11 0 0
BITMAP
0094
0160
0000
781E
2408
2408
2408
2408
2408
1808
0AA0
ENDCHAR
STARTCHAR uhungarumlaut
ENCODING 369
SWIDTH 570 0
DWIDTH 6 0
BBX 6 8 0 0
BITMAP
0580
0940
71D0
3090
3090
3090
30D0
2AA0
ENDCHAR
STARTCHAR Uogonek
ENCODING 370
SWIDTH 753 0
DWIDTH 8 0
BBX 8 11 0 -3
BITMAP
781E
2408
2408
2408
2408
2408
1808
0AB4
0090
0140
0190
ENDCHAR
STARTCHAR uogonek
ENCODING 371
SWIDTH 570 0
DWIDTH 6 0
BBX 6 9 0 -3
BITMAP
71D0
3090
3090
3090
30D0
2AA0
0140
0200
0290
ENDCHAR
STARTCHAR Wcircumflex
ENCODING 372
SWIDTH 944 0
DWIDTH 10 0
BBX 11 11 0 0
BITMAP
005000
019400
000000
B4B4B4
346050
283480
1C6880
0D9C40
0A4E00
034A00
020100
ENDCHAR
STARTCHAR wcircumflex
ENCODING 373
SWIDTH 749 0
DWIDTH 8 0
BBX 8 8 0 0
BITMAP
0280
0150
A2C7
70C1
25D4
1964
0D34
0820
ENDCHAR
STARTCHAR Ycircumflex
ENCODING 374
SWIDTH 647 0
DWIDTH 7 0
BBX 7 11 0 0
BITMAP
0140
0580
0000
B428
2820
0C50
0A80
0340
0300
0300
0780
ENDCHAR
STARTCHAR ycircumflex
ENCODING 375
SWIDTH 483 0
DWIDTH 5 0
BBX 6 11 0 -3
BITMAP
0A00
1500
A1D0
7040
2540
1900
0D00
0900
0800
0400
A000
ENDCHAR
STARTCHAR Ydieresis
ENCODING 376
SWIDTH 647 0
DWIDTH 7 0
BBX 7 10 0 0
BITMAP
0C90
0000
B428
2820
0C50
0A80
0340
0300
0300
0780
ENDCHAR
STARTCHAR Zacute
ENCODING 377
SWIDTH 594 0
DWIDTH 7 0
BBX 6 11 0 0
BITMAP
0140
0600
0000
7AB0
5090
0180
0340
0A00
1C00
3410
BAB0
ENDCHAR
STARTCHAR zacute
ENCODING 378
SWIDTH 458 0
DWIDTH 5 0
BBX 5 8 0 0
BITMAP
0600
0800
6B40
4700
0900
1800
3040
BA80
ENDCHAR
STARTCHAR Zdotaccent
ENCODING 379
SWIDTH 594 0
DWIDTH 7 0
BBX 6 10 0 0
BITMAP
0300
0000
7AB0
5090
0180
0340
0A00
1C00
3410
BAB0
ENDCHAR
STARTCHAR zdotaccent
ENCODING 380
SWIDTH 458 0
DWIDTH 5 0
BBX 5 8 0 0
BITMAP
0800
0000
6B40
4700
0900
1800
3040
BA80
ENDCHAR
STARTCHAR Zcaron
ENCODING 381
SWIDTH 594 0
DWIDTH 7 0
BBX 6 11 0 0
BITMAP
0440
0640
0000
7AB0
5090
0180
0340
0A00
1C00
3410
BAB0
ENDCHAR
STARTCHAR zcaron
ENCODING 382
SWIDTH 458 0
DWIDTH 5 0
BBX 5 9 0 0
BITMAP
1200
0D00
0000
6B40
4700
0900
1800
3040
BA80
ENDCHAR
STARTCHAR longs
ENCODING 383
SWIDTH 285 0
DWIDTH 3 0
BBX 4 9 0 0
BITMAP
1A
21
30
70
30
30
30
30
78
ENDCHAR
STARTCHAR uni0180
ENCODING 384
SWIDTH 522 0
DWIDTH 6 0
BBX 6 9 0 0
BITMAP
A000
6000
7500
2B80
30C0
2090
2090
2080
2A40
ENDCHAR
STARTCHAR uni0188
ENCODING 392
SWIDTH 446 0
DWIDTH 5 0
BBX 6 8 0 0
BITMAP
00A0
0100
1740
5140
9000
9000
6040
2E00
ENDCHAR
STARTCHAR uni0190
ENCODING 400
SWIDTH 518 0
DWIDTH 6 0
BBX 6 8 0 0
BITMAP
2A80
6080
6000
1E00
6000
A000
6050
2E40
ENDCHAR
STARTCHAR uni0192
ENCODING 402
SWIDTH 301 0
DWIDTH 3 0
BBX 5 12 -1 -3
BITMAP
0580
0840
0C00
1E40
0C00
0C00
0C00
0C00
0C00
0C00
4800
A400
ENDCHAR
STARTCHAR uni0195
ENCODING 405
SWIDTH 798 0
DWIDTH 9 0
BBX 9 9 0 0
BITMAP
700000
300000
300000
368200
34C200
309140
309100
309100
746900
ENDCHAR
STARTCHAR uni0199
ENCODING 409
SWIDTH 538 0
DWIDTH 6 0
BBX 6 9 0 0
BITMAP
1640
2000
3000
3290
3200
3800
3A00
3240
75D0
ENDCHAR
STARTCHAR uni019A
ENCODING 410
SWIDTH 287 0
DWIDTH 3 0
BBX 3 9 0 0
BITMAP
70
30
30
30
74
30
30
30
74
ENDCHAR
STARTCHAR uni019B
ENCODING 411
SWIDTH 495 0
DWIDTH 5 0
BBX 6 9 0 0
BITMAP
7500
0900
1400
0500
0E00
1900
2440
3080
A090
ENDCHAR
STARTCHAR uni019E
ENCODING 414
SWIDTH 559 0
DWIDTH 6 0
BBX 6 9 0 -3
BITMAP
7680
3490
3090
3090
3090
7490
0090
0090
00A0
ENDCHAR
STARTCHAR Ohorn
ENCODING 416
SWIDTH 737 0
DWIDTH 8 0
BBX 8 10 0 0
BITMAP
0006
0002
0AB8
241C
7009
600A
6009
7009
2418
0AA0
ENDCHAR
STARTCHAR ohorn
ENCODING 417
SWIDTH 516 0
DWIDTH 6 0
BBX 6 8 0 0
BITMAP
0050
0050
2680
60C0
9090
9090
60C0
2640
ENDCHAR
STARTCHAR uni01A5
ENCODING 421
SWIDTH 522 0
DWIDTH 6 0
BBX 6 12 0 -3
BITMAP
1600
2100
2000
2B80
30C0
2090
2090
2080
3A40
2000
2000
B400
ENDCHAR
STARTCHAR uni01AA
ENCODING 426
SWIDTH 298 0
DWIDTH 3 0
BBX 6 12 -1 -3
BITMAP
5800
4800
4900
1900
0900
0900
0900
0900
0900
0900
0500
0290
ENDCHAR
STARTCHAR uni01AB
ENCODING 427
SWIDTH 321 0
DWIDTH 4 0
BBX 4 11 0 -3
BITMAP
10
20
78
30
30
30
30
29
01
01
28
ENDCHAR
STARTCHAR uni01AD
ENCODING 429
SWIDTH 315 0
DWIDTH 3 0
BBX 5 9 0 0
BITMAP
1640
2000
3000
7800
3000
3000
3000
3000
2800
ENDCHAR
STARTCHAR Uhorn
ENCODING 431
SWIDTH 762 0
DWIDTH 8 0
BBX 9 11 0 0
BITMAP
000040
0000C0
000040
781D00
240800
240800
240800
240800
240800
180800
0AA000
ENDCHAR
STARTCHAR uhorn
ENCODING 432
SWIDTH 574 0
DWIDTH 6 0
BBX 7 8 0 0
BITMAP
0024
0014
71D0
3090
3090
3090
30D0
2AA0
ENDCHAR
STARTCHAR uni01B5
ENCODING 437
SWIDTH 594 0
DWIDTH 7 0
BBX 6 8 0 0
BITMAP
7AB0
5090
0280
1B90
0900
1800
3410
BAB0
ENDCHAR
STARTCHAR uni01BA
ENCODING 442
SWIDTH 430 0
DWIDTH 5 0
BBX 5 9 0 -3
BITMAP
AB00
4900
1800
1A00
0240
0300
2900
4100
5A00
ENDCHAR
STARTCHAR uni01BB
ENCODING 443
SWIDTH 508 0
DWIDTH 6 0
BBX 5 9 0 0
BITMAP
2A00
4180
0180
0180
6B80
0500
1800
2040
BFC0
ENDCHAR
STARTCHAR uni01BE
ENCODING 446
SWIDTH 406 0
DWIDTH 4 0
BBX 4 8 0 0
BITMAP
10
20
79
24
06
03
43
65
ENDCHAR
STARTCHAR uni01C0
ENCODING 448
SWIDTH 250 0
DWIDTH 3 0
BBX 1 9 1 0
BITMAP
80
80
80
80
80
80
80
80
80
ENDCHAR
STARTCHAR uni01C1
ENCODING 449
SWIDTH 423 0
DWIDTH 5 0
BBX 3 9 1 0
BITMAP
88
88
88
88
88
88
88
88
88
ENDCHAR
STARTCHAR uni01C2
ENCODING 450
SWIDTH 422 0
DWIDTH 5 0
BBX 4 9 0 0
BITMAP
08
08
08
6E
08
6E
08
08
08
ENDCHAR
STARTCHAR uni01C3
ENCODING 451
SWIDTH 245 0
DWIDTH 3 0
BBX 2 9 0 0
BITMAP
20
30
20
20
20
20
10
10
60
ENDCHAR
STARTCHAR uni01DE
ENCODING 478
SWIDTH 718 0
DWIDTH 8 0
BBX 8 11 0 0
BITMAP
0690
0D60
0000
0240
0380
05C0
08A0
0870
19B4
2028
A02D
ENDCHAR
STARTCHAR uni01DF
ENCODING 479
SWIDTH 480 0
DWIDTH 5 0
BBX 5 10 0 0
BITMAP
2A00
0000
2240
0000
2600
5240
0640
2240
9240
7A80
ENDCHAR
STARTCHAR uni01F0
ENCODING 496
SWIDTH 263 0
DWIDTH 3 0
BBX 4 12 -1 -3
BITMAP
21
1C
00
1C
0C
0C
0C
0C
0C
0C
48
A4
ENDCHAR
STARTCHAR Aringacute
ENCODING 506
SWIDTH 718 0
DWIDTH 8 0
BBX 8 13 0 0
BITMAP
0040
0240
0140
0580
0140
0240
0380
05C0
08A0
0870
19B4
2028
A02D
ENDCHAR
STARTCHAR aringacute
ENCODING 507
SWIDTH 480 0
DWIDTH 5 0
BBX 5 11 0 0
BITMAP
0500
1800
1900
2200
1900
2600
5240
0640
2240
9240
7A80
ENDCHAR
STARTCHAR AEacute
ENCODING 508
SWIDTH 894 0
DWIDTH 10 0
BBX 10 11 0 0
BITMAP
000400
001400
000000
02EAC0
01A040
026040
046140
0AAA40
146010
206050
A1AAD0
ENDCHAR
STARTCHAR aeacute
ENCODING 509
SWIDTH 709 0
DWIDTH 8 0
BBX 8 8 0 0
BITMAP
0180
0200
26A8
5249
07A9
2240
9281
79B8
ENDCHAR
STARTCHAR Oslashacute
ENCODING 510
SWIDTH 737 0
DWIDTH 8 0
BBX 8 11 0 0
BITMAP
0040
0240
0000
0AA4
2428
705D
604A
620A
7409
2418
2AA0
ENDCHAR
STARTCHAR oslashacute
ENCODING 511
SWIDTH 514 0
DWIDTH 6 0
BBX 6 8 0 0
BITMAP
0600
0800
2A80
61C0
9590
A490
70C0
6A40
ENDCHAR
STARTCHAR uni0218
ENCODING 536
SWIDTH 504 0
DWIDTH 6 0
BBX 5 12 0 -4
BITMAP
2A80
6080
7040
2D00
0780
40C0
80C0
BA40
0000
0D00
0500
0400
ENDCHAR
STARTCHAR uni0219
ENCODING 537
SWIDTH 394 0
DWIDTH 4 0
BBX 4 10 0 -4
BITMAP
66
91
74
1A
43
66
00
18
08
10
ENDCHAR
STARTCHAR uni021A
ENCODING 538
SWIDTH 603 0
DWIDTH 7 0
BBX 7 12 0 -4
BITMAP
ABA4
4604
0600
0600
0600
0600
0700
0B40
0000
0700
0200
0100
ENDCHAR
STARTCHAR uni021B
ENCODING 539
SWIDTH 315 0
DWIDTH 3 0
BBX 3 12 0 -4
BITMAP
10
20
78
30
30
30
30
28
00
28
08
10
ENDCHAR
STARTCHAR uni0221
ENCODING 545
SWIDTH 674 0
DWIDTH 7 0
BBX 8 11 0 -2
BITMAP
0180
00C0
00C0
1AC0
60C0
90C0
90C0
60C5
2DA5
0040
0040
ENDCHAR
STARTCHAR uni0228
ENCODING 552
SWIDTH 626 0
DWIDTH 7 0
BBX 7 11 0 -3
BITMAP
7AB4
2400
2410
2990
2410
2404
2404
6AB4
0240
0080
0640
ENDCHAR
STARTCHAR uni0229
ENCODING 553
SWIDTH 464 0
DWIDTH 5 0
BBX 5 9 0 -3
BITMAP
2A00
5140
AA80
9000
6040
2E00
0900
0200
0900
ENDCHAR
STARTCHAR uni0234
ENCODING 564
SWIDTH 399 0
DWIDTH 4 0
BBX 5 11 0 -2
BITMAP
A000
2000
2000
2000
2000
2000
2000
2540
2940
1000
1000
ENDCHAR
STARTCHAR uni0235
ENCODING 565
SWIDTH 702 0
DWIDTH 8 0
BBX 8 8 0 -2
BITMAP
7680
34C0
3090
3090
3095
7465
0050
0040
ENDCHAR
STARTCHAR uni0236
ENCODING 566
SWIDTH 406 0
DWIDTH 4 0
BBX 5 10 0 -2
BITMAP
1000
2000
7800
3000
3000
3000
3140
2940
1000
1000
ENDCHAR
STARTCHAR uni0237
ENCODING 567
SWIDTH 263 0
DWIDTH 3 0
BBX 3 9 -1 -3
BITMAP
1C
0C
0C
0C
0C
0C
0C
48
A4
ENDCHAR
STARTCHAR uni0250
ENCODING 592
SWIDTH 475 0
DWIDTH 5 0
BBX 5 6 0 0
BITMAP
AB40
3180
3240
3400
3140
2640
ENDCHAR
STARTCHAR uni0251
ENCODING 593
SWIDTH 542 0
DWIDTH 6 0
BBX 6 6 0 0
BITMAP
1A80
60C0
90C0
90C0
60C0
2DD0
ENDCHAR
STARTCHAR uni0252
ENCODING 594
SWIDTH 544 0
DWIDTH 6 0
BBX 6 6 0 0
BITMAP
7780
3090
3060
3060
3090
2940
ENDCHAR
STARTCHAR uni0253
ENCODING 595
SWIDTH 518 0
DWIDTH 6 0
BBX 5 9 1 0
BITMAP
5800
8400
8000
AE00
C300
8240
8240
8200
A900
ENDCHAR
STARTCHAR uni0254
ENCODING 596
SWIDTH 454 0
DWIDTH 5 0
BBX 5 6 0 0
BITMAP
2E00
4240
0180
0180
5140
6500
ENDCHAR
STARTCHAR uni0255
ENCODING 597
SWIDTH 447 0
DWIDTH 5 0
BBX 5 8 0 -2
BITMAP
1640
5140
9000
9540
7440
2A40
1000
1000
ENDCHAR
STARTCHAR uni0256
ENCODING 598
SWIDTH 528 0
DWIDTH 6 0
BBX 7 12 0 -3
BITMAP
0180
00C0
00C0
16C0
60C0
90C0
90C0
60C0
2DC0
00C0
0084
0068
ENDCHAR
STARTCHAR uni0257
ENCODING 599
SWIDTH 542 0
DWIDTH 6 0
BBX 7 9 0 0
BITMAP
0068
0084
00C0
1AC0
60C0
90C0
90C0
60C0
2DD0
ENDCHAR
STARTCHAR uni0258
ENCODING 600
SWIDTH 466 0
DWIDTH 5 0
BBX 5 6 0 0
BITMAP
2A00
6180
6A80
0180
4240
2E00
ENDCHAR
STARTCHAR uni0259
ENCODING 601
SWIDTH 464 0
DWIDTH 5 0
BBX 5 6 0 0
BITMAP
2E00
4240
0180
6680
6140
2600
ENDCHAR
STARTCHAR uni025A
ENCODING 602
SWIDTH 642 0
DWIDTH 7 0
BBX 7 6 0 0
BITMAP
2E00
42A4
0194
6680
6140
2600
ENDCHAR
STARTCHAR uni025B
ENCODING 603
SWIDTH 399 0
DWIDTH 4 0
BBX 4 6 0 0
BITMAP
66
61
28
60
90
29
ENDCHAR
STARTCHAR uni025C
ENCODING 604
SWIDTH 398 0
DWIDTH 4 0
BBX 4 6 0 0
BITMAP
69
02
19
02
03
69
ENDCHAR
STARTCHAR uni025D
ENCODING 605
SWIDTH 575 0
DWIDTH 6 0
BBX 6 6 0 0
BITMAP
6900
4380
1960
0200
0300
6900
ENDCHAR
STARTCHAR uni025E
ENCODING 606
SWIDTH 500 0
DWIDTH 6 0
BBX 5 6 0 0
BITMAP
1A80
60C0
9640
90C0
60C0
1640
ENDCHAR
STARTCHAR uni025F
ENCODING 607
SWIDTH 272 0
DWIDTH 3 0
BBX 4 9 -1 -3
BITMAP
1C
0C
0C
1E
0C
0C
0C
48
A4
ENDCHAR
STARTCHAR uni0260
ENCODING 608
SWIDTH 541 0
DWIDTH 6 0
BBX 8 12 0 -3
BITMAP
0059
0084
00C0
1AC0
60C0
90C0
90C0
60C0
2EC0
0080
5180
2600
ENDCHAR
STARTCHAR uni0261
ENCODING 609
SWIDTH 521 0
DWIDTH 6 0
BBX 5 9 0 -3
BITMAP
1A80
60C0
90C0
90C0
60C0
2EC0
0080
5180
2600
ENDCHAR
STARTCHAR uni0262
ENCODING 610
SWIDTH 535 0
DWIDTH 6 0
BBX 6 6 0 0
BITMAP
1AC0
6040
9000
9190
6080
2980
ENDCHAR
STARTCHAR uni0263
ENCODING 611
SWIDTH 479 0
DWIDTH 5 0
BBX 6 9 0 -3
BITMAP
A1D0
6080
3140
2600
1900
0D00
0E00
1600
1900
ENDCHAR
STARTCHAR uni0264
ENCODING 612
SWIDTH 466 0
DWIDTH 5 0
BBX 5 6 0 0
BITMAP
A980
4940
1200
1300
1300
1600
ENDCHAR
STARTCHAR uni0265
ENCODING 613
SWIDTH 553 0
DWIDTH 6 0
BBX 6 9 0 -3
BITMAP
7090
3090
3090
3090
3090
1E90
0090
0090
00A0
ENDCHAR
STARTCHAR uni0266
ENCODING 614
SWIDTH 577 0
DWIDTH 6 0
BBX 6 9 0 0
BITMAP
1640
2040
3000
3680
3490
3090
3090
3090
74A0
ENDCHAR
STARTCHAR uni0267
ENCODING 615
SWIDTH 562 0
DWIDTH 6 0
BBX 6 12 0 -3
BITMAP
1640
2040
3000
3680
3490
3090
3090
3090
7490
0090
0480
0A40
ENDCHAR
STARTCHAR uni0268
ENCODING 616
SWIDTH 295 0
DWIDTH 3 0
BBX 3 9 0 0
BITMAP
24
10
00
70
20
74
20
30
74
ENDCHAR
STARTCHAR uni0269
ENCODING 617
SWIDTH 286 0
DWIDTH 3 0
BBX 3 6 0 0
BITMAP
70
30
30
30
30
28
ENDCHAR
STARTCHAR uni026A
ENCODING 618
SWIDTH 287 0
DWIDTH 3 0
BBX 3 6 0 0
BITMAP
74
30
30
30
30
74
ENDCHAR
STARTCHAR uni026B
ENCODING 619
SWIDTH 290 0
DWIDTH 3 0
BBX 3 9 0 0
BITMAP
70
30
30
30
B8
30
30
30
74
ENDCHAR
STARTCHAR uni026C
ENCODING 620
SWIDTH 318 0
DWIDTH 4 0
BBX 4 9 0 0
BITMAP
24
24
24
A4
A5
B8
24
24
28
ENDCHAR
STARTCHAR uni026D
ENCODING 621
SWIDTH 248 0
DWIDTH 3 0
BBX 4 12 0 -3
BITMAP
60
20
20
20
20
20
20
20
20
20
21
1A
ENDCHAR
STARTCHAR uni026E
ENCODING 622
SWIDTH 590 0
DWIDTH 6 0
BBX 7 12 0 -3
BITMAP
7000
3000
3000
3AB0
3090
3180
3340
31A0
7434
0024
0820
0950
ENDCHAR
STARTCHAR uni026F
ENCODING 623
SWIDTH 846 0
DWIDTH 9 0
BBX 9 6 0 0
BITMAP
71C740
30C240
30C240
30C240
30C240
296680
ENDCHAR
STARTCHAR uni0270
ENCODING 624
SWIDTH 826 0
DWIDTH 9 0
BBX 9 9 0 -3
BITMAP
71C740
30C240
30C240
30C240
30C240
297A40
000240
000240
000280
ENDCHAR
STARTCHAR uni0271
ENCODING 625
SWIDTH 835 0
DWIDTH 9 0
BBX 9 9 0 -3
BITMAP
769A00
349240
309240
309240
309240
75E240
000240
001200
002900
ENDCHAR
STARTCHAR uni0272
ENCODING 626
SWIDTH 574 0
DWIDTH 6 0
BBX 7 9 -1 -3
BITMAP
1DA0
0D24
0C24
0C24
0C24
0C78
0C00
4800
A400
ENDCHAR
STARTCHAR uni0273
ENCODING 627
SWIDTH 563 0
DWIDTH 6 0
BBX 8 9 0 -3
BITMAP
7680
3490
3090
3090
3090
7490
0090
0054
0029
ENDCHAR
STARTCHAR uni0274
ENCODING 628
SWIDTH 568 0
DWIDTH 6 0
BBX 6 6 0 0
BITMAP
74A0
2810
1A10
1350
11D0
6050
ENDCHAR
STARTCHAR uni0275
ENCODING 629
SWIDTH 514 0
DWIDTH 6 0
BBX 6 6 0 0
BITMAP
2640
60C0
A5D0
9090
60C0
2A40
ENDCHAR
STARTCHAR uni0276
ENCODING 630
SWIDTH 732 0
DWIDTH 8 0
BBX 8 6 0 0
BITMAP
2AE9
6181
91D8
9184
6181
26DA
ENDCHAR
STARTCHAR uni0277
ENCODING 631
SWIDTH 672 0
DWIDTH 7 0
BBX 7 6 0 0
BITMAP
1990
2014
924C
924C
620C
2964
ENDCHAR
STARTCHAR uni0278
ENCODING 632
SWIDTH 658 0
DWIDTH 7 0
BBX 7 12 0 -3
BITMAP
0700
0300
0300
1BA0
6328
9318
9318
6314
2760
0300
0300
0740
ENDCHAR
STARTCHAR uni0279
ENCODING 633
SWIDTH 380 0
DWIDTH 4 0
BBX 4 6 0 0
BITMAP
1D
0C
0C
0C
4C
A9
ENDCHAR
STARTCHAR uni027A
ENCODING 634
SWIDTH 374 0
DWIDTH 4 0
BBX 4 9 0 0
BITMAP
1C
0C
0C
0C
0C
0C
0C
4C
A9
ENDCHAR
STARTCHAR uni027B
ENCODING 635
SWIDTH 375 0
DWIDTH 4 0
BBX 5 9 0 -3
BITMAP
1D00
0C00
0C00
0C00
4C00
A800
0800
0840
06C0
ENDCHAR
STARTCHAR uni027C
ENCODING 636
SWIDTH 378 0
DWIDTH 4 0
BBX 4 9 0 -3
BITMAP
77
35
30
30
30
30
30
30
78
ENDCHAR
STARTCHAR uni027D
ENCODING 637
SWIDTH 373 0
DWIDTH 4 0
BBX 4 9 0 -3
BITMAP
77
35
30
30
30
30
30
21
1A
ENDCHAR
STARTCHAR uni027E
ENCODING 638
SWIDTH 371 0
DWIDTH 4 0
BBX 4 6 0 0
BITMAP
1A
20
30
30
30
74
ENDCHAR
STARTCHAR uni027F
ENCODING 639
SWIDTH 371 0
DWIDTH 4 0
BBX 4 6 0 0
BITMAP
A4
08
0C
0C
0C
1D
ENDCHAR
STARTCHAR uni0280
ENCODING 640
SWIDTH 494 0
DWIDTH 5 0
BBX 6 6 0 0
BITMAP
7640
3180
3140
3A00
3340
75D0
ENDCHAR
STARTCHAR uni0281
ENCODING 641
SWIDTH 494 0
DWIDTH 5 0
BBX 6 6 0 0
BITMAP
74D0
3240
3700
3A00
3180
7640
ENDCHAR
STARTCHAR uni0282
ENCODING 642
SWIDTH 395 0
DWIDTH 4 0
BBX 4 9 0 -3
BITMAP
66
91
74
0A
43
AA
40
40
28
ENDCHAR
STARTCHAR uni0283
ENCODING 643
SWIDTH 253 0
DWIDTH 3 0
BBX 5 12 -1 -3
BITMAP
0680
0840
0C00
0C00
0C00
0C00
0C00
0C00
0C00
0800
4800
A400
ENDCHAR
STARTCHAR uni0284
ENCODING 644
SWIDTH 286 0
DWIDTH 3 0
BBX 5 12 -1 -3
BITMAP
0680
0800
0C00
0C00
0C00
0C00
0C00
0C00
1D00
0C00
0800
9400
ENDCHAR
STARTCHAR uni0285
ENCODING 645
SWIDTH 361 0
DWIDTH 4 0
BBX 5 9 0 -3
BITMAP
A400
4800
0C00
0C00
0C00
0C00
0800
0840
0680
ENDCHAR
STARTCHAR uni0286
ENCODING 646
SWIDTH 253 0
DWIDTH 3 0
BBX 5 12 -1 -3
BITMAP
0680
0840
0C00
0C00
0C00
0C00
0C00
0C00
0C00
6C00
4900
A400
ENDCHAR
STARTCHAR uni0287
ENCODING 647
SWIDTH 315 0
DWIDTH 3 0
BBX 3 8 0 -2
BITMAP
74
14
14
14
14
68
14
10
ENDCHAR
STARTCHAR uni0288
ENCODING 648
SWIDTH 309 0
DWIDTH 3 0
BBX 4 11 0 -3
BITMAP
10
20
78
30
30
30
30
30
30
21
1A
ENDCHAR
STARTCHAR uni0289
ENCODING 649
SWIDTH 580 0
DWIDTH 6 0
BBX 6 6 0 0
BITMAP
71D0
3090
75A0
3090
3090
1AA0
ENDCHAR
STARTCHAR uni028A
ENCODING 650
SWIDTH 548 0
DWIDTH 6 0
BBX 6 6 0 0
BITMAP
2580
2080
6090
6060
6090
1580
ENDCHAR
STARTCHAR uni028B
ENCODING 651
SWIDTH 530 0
DWIDTH 6 0
BBX 6 6 0 0
BITMAP
7080
3090
3050
3050
3040
1A40
ENDCHAR
STARTCHAR uni028C
ENCODING 652
SWIDTH 495 0
DWIDTH 5 0
BBX 6 6 0 0
BITMAP
0800
0A00
1700
2240
1180
91D0
ENDCHAR
STARTCHAR uni028D
ENCODING 653
SWIDTH 764 0
DWIDTH 8 0
BBX 9 6 0 0
BITMAP
082000
0D2400
165800
234C00
124900
92CB40
ENDCHAR
STARTCHAR uni028E
ENCODING 654
SWIDTH 492 0
DWIDTH 5 0
BBX 6 9 0 0
BITMAP
01D0
0100
0400
0800
0900
1600
2340
1180
91D0
ENDCHAR
STARTCHAR uni028F
ENCODING 655
SWIDTH 454 0
DWIDTH 5 0
BBX 5 6 0 0
BITMAP
A180
3100
2900
0C00
0C00
1D00
ENDCHAR
STARTCHAR uni0290
ENCODING 656
SWIDTH 458 0
DWIDTH 5 0
BBX 7 9 0 -3
BITMAP
6B40
4700
0900
1800
3040
BA80
0040
0040
0064
ENDCHAR
STARTCHAR uni0291
ENCODING 657
SWIDTH 458 0
DWIDTH 5 0
BBX 5 8 0 -2
BITMAP
6B40
4700
0900
1800
3540
BA40
0400
1000
ENDCHAR
STARTCHAR uni0292
ENCODING 658
SWIDTH 443 0
DWIDTH 5 0
BBX 5 9 0 -3
BITMAP
AB40
4600
0900
1800
0600
0280
0180
4140
6500
ENDCHAR
STARTCHAR uni0293
ENCODING 659
SWIDTH 443 0
DWIDTH 5 0
BBX 5 11 0 -5
BITMAP
AB40
4600
0D00
2800
0600
0280
6180
4640
6A00
0100
0100
ENDCHAR
STARTCHAR uni0294
ENCODING 660
SWIDTH 383 0
DWIDTH 4 0
BBX 4 9 0 0
BITMAP
55
93
02
03
09
30
30
30
74
ENDCHAR
STARTCHAR uni0295
ENCODING 661
SWIDTH 383 0
DWIDTH 4 0
BBX 4 9 0 0
BITMAP
65
82
C0
90
24
08
08
08
1D
ENDCHAR
STARTCHAR uni0296
ENCODING 662
SWIDTH 408 0
DWIDTH 4 0
BBX 4 9 0 0
BITMAP
70
20
20
20
19
03
03
82
65
ENDCHAR
STARTCHAR uni0297
ENCODING 663
SWIDTH 437 0
DWIDTH 5 0
BBX 5 8 0 -2
BITMAP
1A40
2140
5000
9000
9000
5000
7040
1E00
ENDCHAR
STARTCHAR uni0298
ENCODING 664
SWIDTH 736 0
DWIDTH 8 0
BBX 8 9 0 0
BITMAP
0960
2408
6009
9006
9286
9146
6009
2408
0960
ENDCHAR
STARTCHAR uni0299
ENCODING 665
SWIDTH 485 0
DWIDTH 5 0
BBX 5 6 0 0
BITMAP
7640
3180
3A40
3180
30C0
7640
ENDCHAR
STARTCHAR uni029A
ENCODING 666
SWIDTH 500 0
DWIDTH 6 0
BBX 5 6 0 0
BITMAP
6600
5080
28C0
60C0
9080
2600
ENDCHAR
STARTCHAR uni029B
ENCODING 667
SWIDTH 536 0
DWIDTH 6 0
BBX 7 8 0 0
BITMAP
0028
0040
1AC0
6040
9000
9090
6080
2980
ENDCHAR
STARTCHAR uni029C
ENCODING 668
SWIDTH 599 0
DWIDTH 7 0
BBX 6 6 0 0
BITMAP
74A0
3050
3590
3050
3050
74A0
ENDCHAR
STARTCHAR uni029D
ENCODING 669
SWIDTH 263 0
DWIDTH 3 0
BBX 4 11 -1 -3
BITMAP
0C
04
1C
0C
0C
0C
0C
0C
6C
4D
64
ENDCHAR
STARTCHAR uni029E
ENCODING 670
SWIDTH 542 0
DWIDTH 6 0
BBX 6 9 0 -3
BITMAP
75D0
28C0
09C0
02C0
08C0
68C0
00C0
00C0
00D0
ENDCHAR
STARTCHAR uni029F
ENCODING 671
SWIDTH 440 0
DWIDTH 5 0
BBX 5 6 0 0
BITMAP
7400
3000
3000
3000
3040
7540
ENDCHAR
STARTCHAR uni02A0
ENCODING 672
SWIDTH 541 0
DWIDTH 6 0
BBX 8 12 0 -3
BITMAP
006D
0084
0080
1AC0
60C0
90C0
90C0
60C0
2EC0
00C0
00C0
02D0
ENDCHAR
STARTCHAR uni02A1
ENCODING 673
SWIDTH 393 0
DWIDTH 4 0
BBX 5 9 0 0
BITMAP
6600
9200
0240
0300
0900
3000
7800
3000
7800
ENDCHAR
STARTCHAR uni02A2
ENCODING 674
SWIDTH 393 0
DWIDTH 4 0
BBX 4 9 0 0
BITMAP
66
82
C0
90
24
08
1E
09
1E
ENDCHAR
STARTCHAR uni02A3
ENCODING 675
SWIDTH 830 0
DWIDTH 9 0
BBX 9 9 0 0
BITMAP
018000
00C000
00C000
1AEA80
60C300
90C900
90DC00
60F440
2DFA80
ENDCHAR
STARTCHAR uni02A4
ENCODING 676
SWIDTH 838 0
DWIDTH 9 0
BBX 9 12 0 -3
BITMAP
018000
00C000
00C000
1AEA80
60C340
90CA00
90CC00
60C640
2DD1C0
0000C0
005180
006600
ENDCHAR
STARTCHAR uni02A5
ENCODING 677
SWIDTH 829 0
DWIDTH 9 0
BBX 9 11 0 -2
BITMAP
018000
00C000
00C000
1AEA80
60C300
90C900
90D800
60E540
2DFA40
000400
001000
ENDCHAR
STARTCHAR uni02A6
ENCODING 678
SWIDTH 614 0
DWIDTH 7 0
BBX 7 8 0 0
BITMAP
1000
2000
7B60
3210
3280
3070
3024
1960
ENDCHAR
STARTCHAR uni02A7
ENCODING 679
SWIDTH 513 0
DWIDTH 6 0
BBX 7 12 0 -3
BITMAP
0068
1084
2180
7A80
3180
3180
3180
3180
2980
0180
0580
0A00
ENDCHAR
STARTCHAR uni02A8
ENCODING 680
SWIDTH 687 0
DWIDTH 8 0
BBX 7 8 0 0
BITMAP
1000
2000
79A8
3204
3200
3314
3284
29A8
ENDCHAR
STARTCHAR uni02A9
ENCODING 681
SWIDTH 866 0
DWIDTH 10 0
BBX 9 12 0 -3
BITMAP
1A0000
210000
300000
7AAB40
30A180
309180
309180
309180
78A180
000180
000540
001A00
ENDCHAR
STARTCHAR uni02AA
ENCODING 682
SWIDTH 595 0
DWIDTH 7 0
BBX 7 9 0 0
BITMAP
A000
2000
2000
2260
2610
2380
20B0
2024
1560
ENDCHAR
STARTCHAR uni02AB
ENCODING 683
SWIDTH 580 0
DWIDTH 6 0
BBX 6 9 0 0
BITMAP
7000
3000
3000
3AA0
3090
3180
3300
3A10
7EA0
ENDCHAR
STARTCHAR uni02AC
ENCODING 684
SWIDTH 599 0
DWIDTH 7 0
BBX 7 9 0 0
BITMAP
A724
2310
2590
1880
5614
6310
2250
2990
1880
ENDCHAR
STARTCHAR uni02AD
ENCODING 685
SWIDTH 479 0
DWIDTH 5 0
BBX 5 8 0 0
BITMAP
7F80
5080
5080
0040
7F40
5080
5080
5080
ENDCHAR
STARTCHAR uni02AE
ENCODING 686
SWIDTH 595 0
DWIDTH 7 0
BBX 8 9 -1 -3
BITMAP
6828
0518
0518
0518
0618
0398
0018
0018
001D
ENDCHAR
STARTCHAR uni02AF
ENCODING 687
SWIDTH 600 0
DWIDTH 7 0
BBX 9 9 -1 -3
BITMAP
682800
051800
051800
051800
061800
039800
001800
000840
000680
ENDCHAR
STARTCHAR uni02B0
ENCODING 688
SWIDTH 488 0
DWIDTH 5 0
BBX 5 6 0 3
BITMAP
6000
2000
2600
2140
2140
7280
ENDCHAR
STARTCHAR uni02B1
ENCODING 689
SWIDTH 488 0
DWIDTH 5 0
BBX 5 7 0 3
BITMAP
1500
2100
2000
2600
2140
2140
7280
ENDCHAR
STARTCHAR uni02B2
ENCODING 690
SWIDTH 222 0
DWIDTH 2 0
BBX 3 8 -1 1
BITMAP
08
00
18
08
08
08
08
A4
ENDCHAR
STARTCHAR uni02B3
ENCODING 691
SWIDTH 325 0
DWIDTH 4 0
BBX 4 4 0 3
BITMAP
69
20
20
74
ENDCHAR
STARTCHAR uni02B4
ENCODING 692
SWIDTH 325 0
DWIDTH 4 0
BBX 3 4 0 3
BITMAP
1C
08
08
9C
ENDCHAR
STARTCHAR uni02B5
ENCODING 693
SWIDTH 325 0
DWIDTH 4 0
BBX 4 6 0 1
BITMAP
1D
08
08
98
08
05
ENDCHAR
STARTCHAR uni02B6
ENCODING 694
SWIDTH 443 0
DWIDTH 5 0
BBX 5 4 0 3
BITMAP
7640
3900
2200
7600
ENDCHAR
STARTCHAR uni02B7
ENCODING 695
SWIDTH 653 0
DWIDTH 7 0
BBX 7 4 0 3
BITMAP
A348
2254
2590
1890
ENDCHAR
STARTCHAR uni02B8
ENCODING 696
SWIDTH 427 0
DWIDTH 5 0
BBX 5 6 0 1
BITMAP
A240
2100
2500
0C00
0400
A000
ENDCHAR
STARTCHAR uni02B9
ENCODING 697
SWIDTH 296 0
DWIDTH 3 0
BBX 2 4 1 5
BITMAP
50
80
80
40
ENDCHAR
STARTCHAR uni02BA
ENCODING 698
SWIDTH 456 0
DWIDTH 5 0
BBX 4 4 1 5
BITMAP
59
9C
94
50
ENDCHAR
STARTCHAR uni02BB
ENCODING 699
SWIDTH 245 0
DWIDTH 3 0
BBX 2 3 0 6
BITMAP
10
50
70
ENDCHAR
STARTCHAR uni02BC
ENCODING 700
SWIDTH 244 0
DWIDTH 3 0
BBX 2 3 0 6
BITMAP
60
20
10
ENDCHAR
STARTCHAR uni02BD
ENCODING 701
SWIDTH 244 0
DWIDTH 3 0
BBX 2 3 0 6
BITMAP
70
50
10
ENDCHAR
STARTCHAR uni02BE
ENCODING 702
SWIDTH 203 0
DWIDTH 2 0
BBX 2 3 0 6
BITMAP
50
20
50
ENDCHAR
STARTCHAR uni02BF
ENCODING 703
SWIDTH 203 0
DWIDTH 2 0
BBX 2 3 0 6
BITMAP
60
80
60
ENDCHAR
STARTCHAR uni02C0
ENCODING 704
SWIDTH 364 0
DWIDTH 4 0
BBX 4 5 0 5
BITMAP
14
55
06
09
20
ENDCHAR
STARTCHAR uni02C1
ENCODING 705
SWIDTH 364 0
DWIDTH 4 0
BBX 4 5 0 5
BITMAP
14
55
90
60
08
ENDCHAR
STARTCHAR uni02C2
ENCODING 706
SWIDTH 324 0
DWIDTH 4 0
BBX 3 3 0 5
BITMAP
18
60
18
ENDCHAR
STARTCHAR uni02C3
ENCODING 707
SWIDTH 324 0
DWIDTH 4 0
BBX 3 3 0 5
BITMAP
64
18
60
ENDCHAR
STARTCHAR uni02C4
ENCODING 708
SWIDTH 324 0
DWIDTH 4 0
BBX 4 3 0 6
BITMAP
24
58
85
ENDCHAR
STARTCHAR uni02C5
ENCODING 709
SWIDTH 324 0
DWIDTH 4 0
BBX 4 3 0 6
BITMAP
85
58
24
ENDCHAR
STARTCHAR circumflex
ENCODING 710
SWIDTH 342 0
DWIDTH 4 0
BBX 3 2 0 6
BITMAP
28
54
ENDCHAR
STARTCHAR caron
ENCODING 711
SWIDTH 342 0
DWIDTH 4 0
BBX 3 2 0 7
BITMAP
54
28
ENDCHAR
STARTCHAR uni02C8
ENCODING 712
SWIDTH 284 0
DWIDTH 3 0
BBX 1 3 1 6
BITMAP
40
40
40
ENDCHAR
STARTCHAR uni02C9
ENCODING 713
SWIDTH 350 0
DWIDTH 4 0
BBX 4 1 0 7
BITMAP
A9
ENDCHAR
STARTCHAR uni02CA
ENCODING 714
SWIDTH 222 0
DWIDTH 2 0
BBX 2 2 0 6
BITMAP
30
50
ENDCHAR
STARTCHAR uni02CB
ENCODING 715
SWIDTH 222 0
DWIDTH 2 0
BBX 2 2 0 6
BITMAP
60
20
ENDCHAR
STARTCHAR uni02CC
ENCODING 716
SWIDTH 284 0
DWIDTH 3 0
BBX 1 3 1 -2
BITMAP
40
40
40
ENDCHAR
STARTCHAR uni02CD
ENCODING 717
SWIDTH 342 0
DWIDTH 4 0
BBX 4 1 0 -2
BITMAP
A9
ENDCHAR
STARTCHAR uni02CE
ENCODING 718
SWIDTH 222 0
DWIDTH 2 0
BBX 2 2 0 -2
BITMAP
60
20
ENDCHAR
STARTCHAR uni02CF
ENCODING 719
SWIDTH 223 0
DWIDTH 2 0
BBX 2 2 0 -2
BITMAP
30
50
ENDCHAR
STARTCHAR uni02D0
ENCODING 720
SWIDTH 341 0
DWIDTH 4 0
BBX 2 6 1 0
BITMAP
E0
90
00
00
90
E0
ENDCHAR
STARTCHAR uni02D1
ENCODING 721
SWIDTH 341 0
DWIDTH 4 0
BBX 2 2 1 4
BITMAP
E0
90
ENDCHAR
STARTCHAR uni02D2
ENCODING 722
SWIDTH 341 0
DWIDTH 4 0
BBX 2 4 1 1
BITMAP
90
20
20
90
ENDCHAR
STARTCHAR uni02D3
ENCODING 723
SWIDTH 341 0
DWIDTH 4 0
BBX 2 4 1 1
BITMAP
60
80
80
A0
ENDCHAR
STARTCHAR uni02D4
ENCODING 724
SWIDTH 341 0
DWIDTH 4 0
BBX 3 3 0 2
BITMAP
10
10
68
ENDCHAR
STARTCHAR uni02D5
ENCODING 725
SWIDTH 341 0
DWIDTH 4 0
BBX 3 3 0 2
BITMAP
68
10
10
ENDCHAR
STARTCHAR uni02D6
ENCODING 726
SWIDTH 341 0
DWIDTH 4 0
BBX 2 2 1 2
BITMAP
90
40
ENDCHAR
STARTCHAR uni02D7
ENCODING 727
SWIDTH 341 0
DWIDTH 4 0
BBX 2 1 1 3
BITMAP
50
ENDCHAR
STARTCHAR breve
ENCODING 728
SWIDTH 353 0
DWIDTH 4 0
BBX 4 2 0 6
BITMAP
41
28
ENDCHAR
STARTCHAR dotaccent
ENCODING 729
SWIDTH 194 0
DWIDTH 2 0
BBX 2 1 0 7
BITMAP
60
ENDCHAR
STARTCHAR ring
ENCODING 730
SWIDTH 265 0
DWIDTH 3 0
BBX 3 3 0 6
BITMAP
64
88
64
ENDCHAR
STARTCHAR ogonek
ENCODING 731
SWIDTH 277 0
DWIDTH 3 0
BBX 3 3 0 -3
BITMAP
10
80
64
ENDCHAR
STARTCHAR tilde
ENCODING 732
SWIDTH 381 0
DWIDTH 4 0
BBX 4 2 0 6
BITMAP
65
49
ENDCHAR
STARTCHAR hungarumlaut
ENCODING 733
SWIDTH 350 0
DWIDTH 4 0
BBX 4 2 0 6
BITMAP
29
58
ENDCHAR
STARTCHAR uni02DE
ENCODING 734
SWIDTH 205 0
DWIDTH 2 0
BBX 2 2 0 2
BITMAP
90
60
ENDCHAR
STARTCHAR uni02DF
ENCODING 735
SWIDTH 302 0
DWIDTH 3 0
BBX 3 3 0 5
BITMAP
58
24
44
ENDCHAR
STARTCHAR uni02E0
ENCODING 736
SWIDTH 413 0
DWIDTH 5 0
BBX 5 6 0 1
BITMAP
A240
2100
2500
1800
1800
1800
ENDCHAR
STARTCHAR uni02E1
ENCODING 737
SWIDTH 244 0
DWIDTH 3 0
BBX 2 6 0 3
BITMAP
60
20
20
20
20
70
ENDCHAR
STARTCHAR uni02E2
ENCODING 738
SWIDTH 337 0
DWIDTH 4 0
BBX 4 4 0 3
BITMAP
58
64
59
99
ENDCHAR
STARTCHAR uni02E3
ENCODING 739
SWIDTH 445 0
DWIDTH 5 0
BBX 5 4 0 3
BITMAP
7240
1800
1900
6340
ENDCHAR
STARTCHAR uni02E4
ENCODING 740
SWIDTH 364 0
DWIDTH 4 0
BBX 4 6 0 3
BITMAP
26
51
60
18
08
0D
ENDCHAR
STARTCHAR uni02E5
ENCODING 741
SWIDTH 423 0
DWIDTH 5 0
BBX 5 8 0 1
BITMAP
6A40
0140
0140
0140
0140
0140
0140
0140
ENDCHAR
STARTCHAR uni02E6
ENCODING 742
SWIDTH 414 0
DWIDTH 5 0
BBX 4 8 0 0
BITMAP
01
01
6B
01
01
01
01
01
ENDCHAR
STARTCHAR uni02E7
ENCODING 743
SWIDTH 414 0
DWIDTH 5 0
BBX 4 9 0 0
BITMAP
01
01
01
01
6B
01
01
01
01
ENDCHAR
STARTCHAR uni02E8
ENCODING 744
SWIDTH 414 0
DWIDTH 5 0
BBX 4 8 0 0
BITMAP
01
01
01
01
01
6B
01
01
ENDCHAR
STARTCHAR uni02E9
ENCODING 745
SWIDTH 414 0
DWIDTH 5 0
BBX 4 9 0 0
BITMAP
01
01
01
01
01
01
01
01
6A
ENDCHAR
STARTCHAR uni02EC
ENCODING 748
SWIDTH 341 0
DWIDTH 4 0
BBX 4 3 0 -2
BITMAP
45
68
24
ENDCHAR
STARTCHAR uni02ED
ENCODING 749
SWIDTH 380 0
DWIDTH 4 0
BBX 4 2 0 7
BITMAP
6A
6A
ENDCHAR
STARTCHAR uni02F7
ENCODING 759
SWIDTH 381 0
DWIDTH 4 0
BBX 4 2 0 -2
BITMAP
65
49
ENDCHAR
STARTCHAR uni0300
ENCODING 768
SWIDTH 0 0
DWIDTH 0 0
BBX 2 2 -4 6
BITMAP
50
20
ENDCHAR
STARTCHAR uni0301
ENCODING 769
SWIDTH 0 0
DWIDTH 0 0
BBX 2 2 -3 6
BITMAP
90
80
ENDCHAR
STARTCHAR uni0302
ENCODING 770
SWIDTH 0 0
DWIDTH 0 0
BBX 3 2 -4 6
BITMAP
70
88
ENDCHAR
STARTCHAR uni0303
ENCODING 771
SWIDTH 0 0
DWIDTH 0 0
BBX 3 2 -4 6
BITMAP
A4
18
ENDCHAR
STARTCHAR uni0304
ENCODING 772
SWIDTH 0 0
DWIDTH 0 0
BBX 3 1 -4 7
BITMAP
A8
ENDCHAR
STARTCHAR uni0305
ENCODING 773
SWIDTH 0 0
DWIDTH 0 0
BBX 5 1 -5 7
BITMAP
6A80
ENDCHAR
STARTCHAR uni0306
ENCODING 774
SWIDTH 0 0
DWIDTH 0 0
BBX 3 2 -4 6
BITMAP
44
64
ENDCHAR
STARTCHAR uni0307
ENCODING 775
SWIDTH 0 0
DWIDTH 0 0
BBX 1 1 -3 7
BITMAP
C0
ENDCHAR
STARTCHAR uni0308
ENCODING 776
SWIDTH 0 0
DWIDTH 0 0
BBX 5 1 -5 7
BITMAP
6240
ENDCHAR
STARTCHAR uni0309
ENCODING 777
SWIDTH 0 0
DWIDTH 0 0
BBX 2 3 -3 6
BITMAP
50
20
40
ENDCHAR
STARTCHAR uni030A
ENCODING 778
SWIDTH 0 0
DWIDTH 0 0
BBX 3 3 -4 6
BITMAP
64
88
64
ENDCHAR
STARTCHAR uni030B
ENCODING 779
SWIDTH 0 0
DWIDTH 0 0
BBX 4 2 -4 6
BITMAP
29
58
ENDCHAR
STARTCHAR uni030C
ENCODING 780
SWIDTH 0 0
DWIDTH 0 0
BBX 3 2 -4 7
BITMAP
88
70
ENDCHAR
STARTCHAR uni030D
ENCODING 781
SWIDTH 0 0
DWIDTH 0 0
BBX 1 3 -3 6
BITMAP
80
80
80
ENDCHAR
STARTCHAR uni030E
ENCODING 782
SWIDTH 0 0
DWIDTH 0 0
BBX 3 3 -4 6
BITMAP
84
88
88
ENDCHAR
STARTCHAR uni030F
ENCODING 783
SWIDTH 0 0
DWIDTH 0 0
BBX 4 2 -5 6
BITMAP
68
25
ENDCHAR
STARTCHAR uni0310
ENCODING 784
SWIDTH 0 0
DWIDTH 0 0
BBX 3 3 -4 6
BITMAP
30
44
64
ENDCHAR
STARTCHAR uni0311
ENCODING 785
SWIDTH 0 0
DWIDTH 0 0
BBX 3 2 -4 7
BITMAP
64
48
ENDCHAR
STARTCHAR uni0312
ENCODING 786
SWIDTH 0 0
DWIDTH 0 0
BBX 2 2 -4 7
BITMAP
10
70
ENDCHAR
STARTCHAR uni0313
ENCODING 787
SWIDTH 0 0
DWIDTH 0 0
BBX 1 3 -3 6
BITMAP
C0
80
40
ENDCHAR
STARTCHAR uni0314
ENCODING 788
SWIDTH 0 0
DWIDTH 0 0
BBX 1 3 -3 6
BITMAP
C0
40
40
ENDCHAR
STARTCHAR uni0315
ENCODING 789
SWIDTH 0 0
DWIDTH 0 0
BBX 2 3 -3 6
BITMAP
90
80
40
ENDCHAR
STARTCHAR uni0316
ENCODING 790
SWIDTH 0 0
DWIDTH 0 0
BBX 2 2 -4 -3
BITMAP
90
20
ENDCHAR
STARTCHAR uni0317
ENCODING 791
SWIDTH 0 0
DWIDTH 0 0
BBX 2 2 -3 -3
BITMAP
60
80
ENDCHAR
STARTCHAR uni0318
ENCODING 792
SWIDTH 0 0
DWIDTH 0 0
BBX 2 2 -3 -3
BITMAP
90
50
ENDCHAR
STARTCHAR uni0319
ENCODING 793
SWIDTH 0 0
DWIDTH 0 0
BBX 2 2 -4 -3
BITMAP
60
40
ENDCHAR
STARTCHAR uni031A
ENCODING 794
SWIDTH 0 0
DWIDTH 0 0
BBX 3 3 -4 6
BITMAP
A8
08
08
ENDCHAR
STARTCHAR uni031B
ENCODING 795
SWIDTH 0 0
DWIDTH 0 0
BBX 2 3 -2 5
BITMAP
10
20
50
ENDCHAR
STARTCHAR uni031C
ENCODING 796
SWIDTH 0 0
DWIDTH 0 0
BBX 2 3 -4 -3
BITMAP
20
50
20
ENDCHAR
STARTCHAR uni031D
ENCODING 797
SWIDTH 0 0
DWIDTH 0 0
BBX 3 2 -4 -3
BITMAP
10
64
ENDCHAR
STARTCHAR uni031E
ENCODING 798
SWIDTH 0 0
DWIDTH 0 0
BBX 3 2 -4 -2
BITMAP
64
10
ENDCHAR
STARTCHAR uni031F
ENCODING 799
SWIDTH 0 0
DWIDTH 0 0
BBX 3 2 -4 -3
BITMAP
64
10
ENDCHAR
STARTCHAR uni0320
ENCODING 800
SWIDTH 0 0
DWIDTH 0 0
BBX 3 1 -4 -2
BITMAP
54
ENDCHAR
STARTCHAR uni0321
ENCODING 801
SWIDTH 0 0
DWIDTH 0 0
BBX 4 4 -5 -3
BITMAP
05
09
48
64
ENDCHAR
STARTCHAR uni0322
ENCODING 802
SWIDTH 0 0
DWIDTH 0 0
BBX 4 4 -3 -3
BITMAP
50
90
55
19
ENDCHAR
STARTCHAR uni0323
ENCODING 803
SWIDTH 0 0
DWIDTH 0 0
BBX 1 1 -3 -2
BITMAP
C0
ENDCHAR
STARTCHAR uni0324
ENCODING 804
SWIDTH 0 0
DWIDTH 0 0
BBX 5 1 -5 -2
BITMAP
6240
ENDCHAR
STARTCHAR uni0325
ENCODING 805
SWIDTH 0 0
DWIDTH 0 0
BBX 3 3 -4 -3
BITMAP
64
88
64
ENDCHAR
STARTCHAR uni0326
ENCODING 806
SWIDTH 0 0
DWIDTH 0 0
BBX 1 3 -3 -4
BITMAP
C0
80
40
ENDCHAR
STARTCHAR uni0327
ENCODING 807
SWIDTH 0 0
DWIDTH 0 0
BBX 3 3 -4 -3
BITMAP
24
08
60
ENDCHAR
STARTCHAR uni0328
ENCODING 808
SWIDTH 0 0
DWIDTH 0 0
BBX 3 3 -4 -3
BITMAP
10
50
64
ENDCHAR
STARTCHAR uni0329
ENCODING 809
SWIDTH 0 0
DWIDTH 0 0
BBX 1 2 -3 -3
BITMAP
80
80
ENDCHAR
STARTCHAR uni032A
ENCODING 810
SWIDTH 0 0
DWIDTH 0 0
BBX 3 2 -4 -2
BITMAP
98
44
ENDCHAR
STARTCHAR uni032B
ENCODING 811
SWIDTH 0 0
DWIDTH 0 0
BBX 4 2 -5 -2
BITMAP
45
2A
ENDCHAR
STARTCHAR uni032C
ENCODING 812
SWIDTH 0 0
DWIDTH 0 0
BBX 3 2 -4 -2
BITMAP
88
70
ENDCHAR
STARTCHAR uni032D
ENCODING 813
SWIDTH 0 0
DWIDTH 0 0
BBX 3 2 -4 -2
BITMAP
70
88
ENDCHAR
STARTCHAR uni032E
ENCODING 814
SWIDTH 0 0
DWIDTH 0 0
BBX 3 2 -4 -3
BITMAP
44
64
ENDCHAR
STARTCHAR uni032F
ENCODING 815
SWIDTH 0 0
DWIDTH 0 0
BBX 3 2 -4 -2
BITMAP
A4
44
ENDCHAR
STARTCHAR uni0330
ENCODING 816
SWIDTH 0 0
DWIDTH 0 0
BBX 4 2 -5 -2
BITMAP
29
4A
ENDCHAR
STARTCHAR uni0331
ENCODING 817
SWIDTH 0 0
DWIDTH 0 0
BBX 3 1 -4 -2
BITMAP
A8
ENDCHAR
STARTCHAR uni0332
ENCODING 818
SWIDTH 0 0
DWIDTH 0 0
BBX 7 1 -6 -2
BITMAP
6AA4
ENDCHAR
STARTCHAR uni0333
ENCODING 819
SWIDTH 0 0
DWIDTH 0 0
BBX 7 2 -6 -3
BITMAP
6AA4
6AA4
ENDCHAR
STARTCHAR uni0334
ENCODING 820
SWIDTH 0 0
DWIDTH 0 0
BBX 5 2 -5 2
BITMAP
2940
4A00
ENDCHAR
STARTCHAR uni0335
ENCODING 821
SWIDTH 0 0
DWIDTH 0 0
BBX 3 1 -4 3
BITMAP
A8
ENDCHAR
STARTCHAR uni0336
ENCODING 822
SWIDTH 0 0
DWIDTH 0 0
BBX 6 1 -6 3
BITMAP
6AA0
ENDCHAR
STARTCHAR uni0337
ENCODING 823
SWIDTH 0 0
DWIDTH 0 0
BBX 3 2 -4 3
BITMAP
14
50
ENDCHAR
STARTCHAR uni0338
ENCODING 824
SWIDTH 0 0
DWIDTH 0 0
BBX 5 11 -5 -2
BITMAP
0040
0040
0100
0200
0500
0800
0800
1400
2000
1000
8000
ENDCHAR
STARTCHAR uni0339
ENCODING 825
SWIDTH 0 0
DWIDTH 0 0
BBX 2 3 -3 -3
BITMAP
80
50
80
ENDCHAR
STARTCHAR uni033A
ENCODING 826
SWIDTH 0 0
DWIDTH 0 0
BBX 3 2 -4 -2
BITMAP
44
98
ENDCHAR
STARTCHAR uni033B
ENCODING 827
SWIDTH 0 0
DWIDTH 0 0
BBX 3 3 -4 -3
BITMAP
54
44
54
ENDCHAR
STARTCHAR uni033C
ENCODING 828
SWIDTH 0 0
DWIDTH 0 0
BBX 3 2 -4 -2
BITMAP
98
10
ENDCHAR
STARTCHAR uni033D
ENCODING 829
SWIDTH 0 0
DWIDTH 0 0
BBX 3 2 -4 6
BITMAP
64
64
ENDCHAR
STARTCHAR uni033E
ENCODING 830
SWIDTH 0 0
DWIDTH 0 0
BBX 1 3 -3 6
BITMAP
80
80
80
ENDCHAR
STARTCHAR uni033F
ENCODING 831
SWIDTH 0 0
DWIDTH 0 0
BBX 5 2 -5 6
BITMAP
AA40
AA40
ENDCHAR
STARTCHAR uni0346
ENCODING 838
SWIDTH 0 0
DWIDTH 0 0
BBX 3 2 -4 6
BITMAP
A8
88
ENDCHAR
STARTCHAR uni0347
ENCODING 839
SWIDTH 0 0
DWIDTH 0 0
BBX 5 2 -5 -3
BITMAP
6A40
6A40
ENDCHAR
STARTCHAR uni034C
ENCODING 844
SWIDTH 0 0
DWIDTH 0 0
BBX 3 3 -4 6
BITMAP
A8
A4
18
ENDCHAR
STARTCHAR uni034D
ENCODING 845
SWIDTH 0 0
DWIDTH 0 0
BBX 5 3 -5 -4
BITMAP
4000
EAC0
4040
ENDCHAR
STARTCHAR uni0359
ENCODING 857
SWIDTH 0 0
DWIDTH 0 0
BBX 3 4 -4 -5
BITMAP
20
A8
A8
20
ENDCHAR
STARTCHAR uni035C
ENCODING 860
SWIDTH 0 0
DWIDTH 0 0
BBX 8 2 -4 -3
BITMAP
9005
1AA4
ENDCHAR
STARTCHAR uni0360
ENCODING 864
SWIDTH 0 0
DWIDTH 0 0
BBX 6 2 -3 6
BITMAP
6810
4690
ENDCHAR
STARTCHAR uni0361
ENCODING 865
SWIDTH 0 0
DWIDTH 0 0
BBX 6 2 -3 7
BITMAP
2A80
4010
ENDCHAR
STARTCHAR uni0362
ENCODING 866
SWIDTH 0 0
DWIDTH 0 0
BBX 8 3 -4 -4
BITMAP
0001
AAAB
0001
ENDCHAR
STARTCHAR uni037E
ENCODING 894
SWIDTH 261 0
DWIDTH 3 0
BBX 2 8 1 -2
BITMAP
C0
00
00
00
00
D0
50
40
ENDCHAR
STARTCHAR tonos
ENCODING 900
SWIDTH 165 0
DWIDTH 2 0
BBX 2 2 0 7
BITMAP
90
80
ENDCHAR
STARTCHAR dieresistonos
ENCODING 901
SWIDTH 426 0
DWIDTH 5 0
BBX 5 2 0 7
BITMAP
9A40
0400
ENDCHAR
STARTCHAR Alphatonos
ENCODING 902
SWIDTH 718 0
DWIDTH 8 0
BBX 8 9 0 0
BITMAP
6000
4240
0380
05C0
08A0
0870
19B4
2028
A02D
ENDCHAR
STARTCHAR anoteleia
ENCODING 903
SWIDTH 261 0
DWIDTH 3 0
BBX 1 1 1 5
BITMAP
C0
ENDCHAR
STARTCHAR Epsilontonos
ENCODING 904
SWIDTH 745 0
DWIDTH 8 0
BBX 8 9 0 0
BITMAP
C000
4BAA
0601
0604
0768
0604
0601
0602
0BAA
ENDCHAR
STARTCHAR Etatonos
ENCODING 905
SWIDTH 896 0
DWIDTH 10 0
BBX 10 9 0 0
BITMAP
C00000
4B4790
060240
060240
075640
060240
060240
060240
0B4790
ENDCHAR
STARTCHAR Iotatonos
ENCODING 906
SWIDTH 478 0
DWIDTH 5 0
BBX 5 9 0 0
BITMAP
C000
4B40
0600
0600
0600
0600
0600
0600
0B40
ENDCHAR
STARTCHAR Omicrontonos
ENCODING 908
SWIDTH 806 0
DWIDTH 9 0
BBX 9 9 0 0
BITMAP
C00000
46A800
0C0A00
180300
280340
280340
180300
0C0600
06A800
ENDCHAR
STARTCHAR Upsilontonos
ENCODING 910
SWIDTH 787 0
DWIDTH 9 0
BBX 10 9 -1 0
BITMAP
600000
57D1D0
01C140
00A200
003900
001800
001800
001800
006D00
ENDCHAR
STARTCHAR Omegatonos
ENCODING 911
SWIDTH 830 0
DWIDTH 9 0
BBX 9 9 0 0
BITMAP
C00000
46F800
0E1A00
1C0340
280340
180300
0C0600
260840
2F5F40
ENDCHAR
STARTCHAR iotadieresistonos
ENCODING 912
SWIDTH 259 0
DWIDTH 3 0
BBX 5 9 -1 0
BITMAP
0C00
5A40
0000
1800
1800
1800
1400
1400
0D00
ENDCHAR
STARTCHAR Alpha
ENCODING 913
SWIDTH 718 0
DWIDTH 8 0
BBX 8 8 0 0
BITMAP
0240
0380
05C0
08A0
0870
19B4
2028
A02D
ENDCHAR
STARTCHAR Beta
ENCODING 914
SWIDTH 618 0
DWIDTH 7 0
BBX 7 8 0 0
BITMAP
7A90
2430
2470
2A90
2420
2424
2434
79A0
ENDCHAR
STARTCHAR Gamma
ENCODING 915
SWIDTH 569 0
DWIDTH 6 0
BBX 6 8 0 0
BITMAP
BFF0
2420
2410
2400
2400
2400
2800
BE00
ENDCHAR
STARTCHAR Delta
ENCODING 916
SWIDTH 667 0
DWIDTH 7 0
BBX 7 8 0 0
BITMAP
0200
0340
09C0
08D0
1460
2030
5024
BFFC
ENDCHAR
STARTCHAR Epsilon
ENCODING 917
SWIDTH 626 0
DWIDTH 7 0
BBX 7 8 0 0
BITMAP
7AB4
2400
2410
2990
2410
2404
2404
6AB4
ENDCHAR
STARTCHAR Zeta
ENCODING 918
SWIDTH 594 0
DWIDTH 7 0
BBX 6 8 0 0
BITMAP
7AB0
5090
0180
0340
0A00
1C00
3410
BAB0
ENDCHAR
STARTCHAR Eta
ENCODING 919
SWIDTH 777 0
DWIDTH 9 0
BBX 8 8 0 0
BITMAP
791E
240C
240C
295C
240C
240C
240C
691E
ENDCHAR
STARTCHAR Theta
ENCODING 920
SWIDTH 738 0
DWIDTH 8 0
BBX 8 8 0 0
BITMAP
0BE0
2828
700D
67DA
651A
700D
282C
0BE0
ENDCHAR
STARTCHAR Iota
ENCODING 921
SWIDTH 357 0
DWIDTH 4 0
BBX 4 8 0 0
BITMAP
79
24
24
24
24
24
24
79
ENDCHAR
STARTCHAR Kappa
ENCODING 922
SWIDTH 702 0
DWIDTH 8 0
BBX 8 8 0 0
BITMAP
7978
2450
2540
2A00
2B40
25C0
2470
697D
ENDCHAR
STARTCHAR Lambda
ENCODING 923
SWIDTH 710 0
DWIDTH 8 0
BBX 8 8 0 0
BITMAP
0240
0280
04C0
08A0
1470
2024
602C
F47E
ENDCHAR
STARTCHAR Mu
ENCODING 924
SWIDTH 895 0
DWIDTH 10 0
BBX 9 8 0 0
BITMAP
780380
2C0740
2A0A40
270640
225240
21A240
20D240
748780
ENDCHAR
STARTCHAR Nu
ENCODING 925
SWIDTH 742 0
DWIDTH 8 0
BBX 8 8 0 0
BITMAP
781D
2D08
2708
2288
20D8
2078
202C
7408
ENDCHAR
STARTCHAR Xi
ENCODING 926
SWIDTH 648 0
DWIDTH 7 0
BBX 7 8 0 0
BITMAP
7FF4
5004
1410
1FD0
1450
0000
5004
7FF8
ENDCHAR
STARTCHAR Omicron
ENCODING 927
SWIDTH 738 0
DWIDTH 8 0
BBX 8 8 0 0
BITMAP
0AA0
241C
7009
600A
600A
7009
2418
0AA0
ENDCHAR
STARTCHAR Pi
ENCODING 928
SWIDTH 759 0
DWIDTH 8 0
BBX 8 8 0 0
BITMAP
BFFF
240C
240C
240C
240C
240C
281C
BE3F
ENDCHAR
STARTCHAR Rho
ENCODING 929
SWIDTH 569 0
DWIDTH 6 0
BBX 6 8 0 0
BITMAP
6A90
2470
2430
2460
2A40
2400
2400
6900
ENDCHAR
STARTCHAR Sigma
ENCODING 931
SWIDTH 604 0
DWIDTH 7 0
BBX 7 8 0 0
BITMAP
BFF0
3420
1C10
0600
0500
0800
2014
BFF0
ENDCHAR
STARTCHAR Tau
ENCODING 932
SWIDTH 603 0
DWIDTH 7 0
BBX 7 8 0 0
BITMAP
ABA4
4604
0600
0600
0600
0600
0700
0B40
ENDCHAR
STARTCHAR Upsilon
ENCODING 933
SWIDTH 647 0
DWIDTH 7 0
BBX 7 8 0 0
BITMAP
B428
2820
0C50
0A80
0340
0300
0300
0780
ENDCHAR
STARTCHAR Phi
ENCODING 934
SWIDTH 718 0
DWIDTH 8 0
BBX 8 8 0 0
BITMAP
0BE0
0690
26A8
6249
A249
724D
1AA4
0BE0
ENDCHAR
STARTCHAR Chi
ENCODING 935
SWIDTH 664 0
DWIDTH 7 0
BBX 7 8 0 0
BITMAP
7838
1C20
0980
0340
0680
08D0
2070
7078
ENDCHAR
STARTCHAR Psi
ENCODING 936
SWIDTH 720 0
DWIDTH 8 0
BBX 8 8 0 0
BITMAP
DBE6
6289
6249
624D
365C
1FF4
0280
0BE0
ENDCHAR
STARTCHAR Omega
ENCODING 937
SWIDTH 777 0
DWIDTH 9 0
BBX 8 8 0 0
BITMAP
0BE4
2D1D
340A
300A
3409
240D
4826
7E3F
ENDCHAR
STARTCHAR Iotadieresis
ENCODING 938
SWIDTH 357 0
DWIDTH 4 0
BBX 4 10 0 0
BITMAP
96
00
79
24
24
24
24
24
24
79
ENDCHAR
STARTCHAR Upsilondieresis
ENCODING 939
SWIDTH 647 0
DWIDTH 7 0
BBX 7 10 0 0
BITMAP
0C90
0000
B428
2820
0C50
0A80
0340
0300
0300
0780
ENDCHAR
STARTCHAR alphatonos
ENCODING 940
SWIDTH 561 0
DWIDTH 6 0
BBX 6 9 0 0
BITMAP
0600
0500
0000
2E60
61C0
8080
4180
5180
38A0
ENDCHAR
STARTCHAR epsilontonos
ENCODING 941
SWIDTH 381 0
DWIDTH 4 0
BBX 4 9 0 0
BITMAP
09
08
00
2E
51
24
54
51
2E
ENDCHAR
STARTCHAR etatonos
ENCODING 942
SWIDTH 510 0
DWIDTH 6 0
BBX 5 12 0 -3
BITMAP
0300
0200
0000
A740
6880
2480
2080
3080
3080
0080
0080
0140
ENDCHAR
STARTCHAR iotatonos
ENCODING 943
SWIDTH 259 0
DWIDTH 3 0
BBX 3 9 0 0
BITMAP
20
20
00
60
60
60
50
50
34
ENDCHAR
STARTCHAR upsilondieresistonos
ENCODING 944
SWIDTH 491 0
DWIDTH 5 0
BBX 5 9 0 0
BITMAP
0C00
5A40
0000
A100
6080
2080
2080
2280
2E00
ENDCHAR
STARTCHAR alpha
ENCODING 945
SWIDTH 561 0
DWIDTH 6 0
BBX 6 6 0 0
BITMAP
2E60
61C0
8080
4180
5180
38A0
ENDCHAR
STARTCHAR beta
ENCODING 946
SWIDTH 530 0
DWIDTH 6 0
BBX 6 12 0 -3
BITMAP
0B80
1480
2040
2040
2A40
5080
6050
6090
6B80
6000
6000
5000
ENDCHAR
STARTCHAR gamma
ENCODING 947
SWIDTH 466 0
DWIDTH 5 0
BBX 5 9 0 -3
BITMAP
A180
6640
1600
0A00
0C00
0800
1800
1800
1400
ENDCHAR
STARTCHAR delta
ENCODING 948
SWIDTH 479 0
DWIDTH 5 0
BBX 5 9 0 0
BITMAP
1E00
2280
1800
0A00
2680
4080
4080
5180
2E00
ENDCHAR
STARTCHAR epsilon
ENCODING 949
SWIDTH 381 0
DWIDTH 4 0
BBX 4 6 0 0
BITMAP
2E
51
24
54
51
2E
ENDCHAR
STARTCHAR zeta
ENCODING 950
SWIDTH 386 0
DWIDTH 4 0
BBX 5 13 0 -4
BITMAP
0400
1540
0A00
1800
2000
5000
4000
8000
7900
1B00
0140
1A00
0400
ENDCHAR
STARTCHAR eta
ENCODING 951
SWIDTH 510 0
DWIDTH 6 0
BBX 5 9 0 -3
BITMAP
A740
6880
2480
2080
3080
3080
0080
0080
0140
ENDCHAR
STARTCHAR theta
ENCODING 952
SWIDTH 514 0
DWIDTH 6 0
BBX 5 9 0 0
BITMAP
1F00
2580
5080
5040
7FC0
5080
5080
2180
1E00
ENDCHAR
STARTCHAR iota
ENCODING 953
SWIDTH 259 0
DWIDTH 3 0
BBX 3 6 0 0
BITMAP
60
60
60
50
50
34
ENDCHAR
STARTCHAR kappa
ENCODING 954
SWIDTH 495 0
DWIDTH 5 0
BBX 5 6 0 0
BITMAP
A1C0
6340
2800
2800
2200
32C0
ENDCHAR
STARTCHAR lambda
ENCODING 955
SWIDTH 506 0
DWIDTH 6 0
BBX 6 9 0 0
BITMAP
2800
1800
0500
0500
0900
1A00
2200
6250
91D0
ENDCHAR
STARTCHAR mu
ENCODING 956
SWIDTH 552 0
DWIDTH 6 0
BBX 6 9 0 -3
BITMAP
60C0
6080
6080
5180
6280
6DA0
5000
5000
5000
ENDCHAR
STARTCHAR nu
ENCODING 957
SWIDTH 453 0
DWIDTH 5 0
BBX 5 6 0 0
BITMAP
A140
6180
1180
1240
1600
1800
ENDCHAR
STARTCHAR xi
ENCODING 958
SWIDTH 390 0
DWIDTH 4 0
BBX 5 12 0 -3
BITMAP
1000
2740
2400
2000
2A00
5000
4000
A400
2E00
0240
0140
0D00
ENDCHAR
STARTCHAR omicron
ENCODING 959
SWIDTH 475 0
DWIDTH 5 0
BBX 5 6 0 0
BITMAP
2E00
6180
8080
8080
5180
2E00
ENDCHAR
STARTCHAR pi
ENCODING 960
SWIDTH 591 0
DWIDTH 7 0
BBX 7 6 0 0
BITMAP
7FF4
4480
0480
1480
2480
30E0
ENDCHAR
STARTCHAR rho
ENCODING 961
SWIDTH 515 0
DWIDTH 6 0
BBX 6 9 0 -3
BITMAP
1B40
2480
2050
6050
6580
6B40
6000
6000
5000
ENDCHAR
STARTCHAR uni03C2
ENCODING 962
SWIDTH 377 0
DWIDTH 4 0
BBX 4 9 0 -3
BITMAP
2F
50
40
80
64
2E
02
02
1D
ENDCHAR
STARTCHAR sigma
ENCODING 963
SWIDTH 545 0
DWIDTH 6 0
BBX 6 6 0 0
BITMAP
1FF0
6040
4080
8080
6180
2E00
ENDCHAR
STARTCHAR tau
ENCODING 964
SWIDTH 392 0
DWIDTH 4 0
BBX 5 6 0 0
BITMAP
7F40
4800
0400
1400
1800
1D00
ENDCHAR
STARTCHAR upsilon
ENCODING 965
SWIDTH 491 0
DWIDTH 5 0
BBX 5 6 0 0
BITMAP
A100
6080
2080
2080
2280
2E00
ENDCHAR
STARTCHAR phi
ENCODING 966
SWIDTH 603 0
DWIDTH 7 0
BBX 7 9 0 -3
BITMAP
29E0
6220
4214
4110
6560
2F80
0600
0600
0500
ENDCHAR
STARTCHAR chi
ENCODING 967
SWIDTH 462 0
DWIDTH 5 0
BBX 7 9 -1 -3
BITMAP
2834
0860
0180
0240
0300
0A00
1940
2480
60A0
ENDCHAR
STARTCHAR psi
ENCODING 968
SWIDTH 620 0
DWIDTH 7 0
BBX 7 12 0 -3
BITMAP
0300
0200
0200
A210
6220
2214
2224
2270
1F90
0200
0300
0100
ENDCHAR
STARTCHAR omega
ENCODING 969
SWIDTH 660 0
DWIDTH 7 0
BBX 7 6 0 0
BITMAP
1410
6114
8308
4208
5218
2DF0
ENDCHAR
STARTCHAR iotadieresis
ENCODING 970
SWIDTH 259 0
DWIDTH 3 0
BBX 4 8 -1 0
BITMAP
63
00
18
18
18
14
14
0D
ENDCHAR
STARTCHAR upsilondieresis
ENCODING 971
SWIDTH 491 0
DWIDTH 5 0
BBX 5 8 0 0
BITMAP
6200
0000
A100
6080
2080
2080
2280
2E00
ENDCHAR
STARTCHAR omicrontonos
ENCODING 972
SWIDTH 475 0
DWIDTH 5 0
BBX 5 9 0 0
BITMAP
0600
0500
0000
2E00
6180
8080
8080
5180
2E00
ENDCHAR
STARTCHAR upsilontonos
ENCODING 973
SWIDTH 491 0
DWIDTH 5 0
BBX 5 9 0 0
BITMAP
0900
0800
0000
A100
6080
2080
2080
2280
2E00
ENDCHAR
STARTCHAR omegatonos
ENCODING 974
SWIDTH 660 0
DWIDTH 7 0
BBX 7 9 0 0
BITMAP
0240
0200
0000
1410
6114
8308
4208
5218
2DF0
ENDCHAR
STARTCHAR uni03D0
ENCODING 976
SWIDTH 438 0
DWIDTH 5 0
BBX 5 9 0 0
BITMAP
0B40
1440
2440
5B00
6E00
6540
6040
3140
1E00
ENDCHAR
STARTCHAR uni03D1
ENCODING 977
SWIDTH 541 0
DWIDTH 6 0
BBX 6 9 0 0
BITMAP
0F00
2180
1080
1440
0BE0
7040
6480
1580
0F40
ENDCHAR
STARTCHAR uni03D2
ENCODING 978
SWIDTH 616 0
DWIDTH 7 0
BBX 7 8 0 0
BITMAP
7878
1D98
0640
0700
0300
0300
0700
1FC0
ENDCHAR
STARTCHAR uni03D5
ENCODING 981
SWIDTH 575 0
DWIDTH 6 0
BBX 6 12 0 -3
BITMAP
0100
0300
0200
1B80
26A0
4220
8610
5520
3BC0
0A00
0500
0900
ENDCHAR
STARTCHAR uni03D6
ENCODING 982
SWIDTH 821 0
DWIDTH 9 0
BBX 9 6 0 0
BITMAP
7FFFC0
580200
109200
108200
148600
0B6D00
ENDCHAR
STARTCHAR uni03D8
ENCODING 984
SWIDTH 627 0
DWIDTH 7 0
BBX 7 8 0 0
BITMAP
1F90
7474
A024
A024
6030
1990
0300
0B40
ENDCHAR
STARTCHAR uni03D9
ENCODING 985
SWIDTH 475 0
DWIDTH 5 0
BBX 5 9 0 -3
BITMAP
2E00
6180
8080
8080
5180
2E00
0800
0C00
0800
ENDCHAR
STARTCHAR uni03DA
ENCODING 986
SWIDTH 578 0
DWIDTH 6 0
BBX 6 8 0 0
BITMAP
1FE0
7460
A010
A000
7400
1F40
0240
0690
ENDCHAR
STARTCHAR uni03DB
ENCODING 987
SWIDTH 490 0
DWIDTH 5 0
BBX 6 9 0 -3
BITMAP
1BD0
6000
4000
8000
6400
2D00
0200
0100
1800
ENDCHAR
STARTCHAR uni03DC
ENCODING 988
SWIDTH 588 0
DWIDTH 6 0
BBX 7 8 0 0
BITMAP
7AA4
2404
2410
2990
2410
2400
2400
6900
ENDCHAR
STARTCHAR uni03DD
ENCODING 989
SWIDTH 386 0
DWIDTH 4 0
BBX 5 9 -1 -3
BITMAP
0FC0
0800
0800
0F40
0800
0400
1400
2000
E000
ENDCHAR
STARTCHAR uni03DE
ENCODING 990
SWIDTH 525 0
DWIDTH 6 0
BBX 6 8 0 0
BITMAP
2E00
0800
1000
7FD0
0080
0140
0600
0F40
ENDCHAR
STARTCHAR uni03DF
ENCODING 991
SWIDTH 434 0
DWIDTH 5 0
BBX 5 8 0 0
BITMAP
D000
2000
1000
1600
6A00
0100
0540
0340
ENDCHAR
STARTCHAR uni03E0
ENCODING 992
SWIDTH 697 0
DWIDTH 8 0
BBX 8 8 0 0
BITMAP
0700
0340
02C0
04D0
09A0
2234
212C
887E
ENDCHAR
STARTCHAR uni03E1
ENCODING 993
SWIDTH 458 0
DWIDTH 5 0
BBX 5 11 0 -3
BITMAP
D000
7400
1C00
0A00
7600
0140
1A40
1480
0080
0040
0100
ENDCHAR
STARTCHAR uni03F0
ENCODING 1008
SWIDTH 504 0
DWIDTH 6 0
BBX 6 6 0 0
BITMAP
A0D0
6180
1700
1A00
2A00
71D0
ENDCHAR
STARTCHAR uni03F1
ENCODING 1009
SWIDTH 467 0
DWIDTH 5 0
BBX 5 9 0 -3
BITMAP
1F00
2180
5080
6180
6F40
2000
1D00
0600
1800
ENDCHAR
STARTCHAR uni03F4
ENCODING 1012
SWIDTH 737 0
DWIDTH 8 0
BBX 8 8 0 0
BITMAP
0BE0
282C
7009
7FFE
600A
700D
2828
0BE0
ENDCHAR
STARTCHAR uni03F5
ENCODING 1013
SWIDTH 380 0
DWIDTH 4 0
BBX 4 6 0 0
BITMAP
2E
50
BD
80
51
2E
ENDCHAR
STARTCHAR uni03F6
ENCODING 1014
SWIDTH 382 0
DWIDTH 4 0
BBX 4 6 0 0
BITMAP
B8
05
3E
02
46
78
ENDCHAR
STARTCHAR uni0400
ENCODING 1024
SWIDTH 626 0
DWIDTH 7 0
BBX 7 11 0 0
BITMAP
0500
0240
0000
7AB4
2400
2410
2990
2410
2404
2404
6AB4
ENDCHAR
STARTCHAR uni0401
ENCODING 1025
SWIDTH 626 0
DWIDTH 7 0
BBX 7 10 0 0
BITMAP
1890
0000
7AB4
2400
2410
2990
2410
2404
2404
6AB4
ENDCHAR
STARTCHAR uni0402
ENCODING 1026
SWIDTH 731 0
DWIDTH 8 0
BBX 8 8 0 0
BITMAP
ABA8
4604
0600
07A8
060A
0606
0606
0A68
ENDCHAR
STARTCHAR uni0403
ENCODING 1027
SWIDTH 548 0
DWIDTH 6 0
BBX 6 11 0 0
BITMAP
0140
0600
0000
7AA0
2420
2410
2400
2400
2400
2400
7900
ENDCHAR
STARTCHAR uni0404
ENCODING 1028
SWIDTH 668 0
DWIDTH 7 0
BBX 7 8 0 0
BITMAP
0AB8
2418
6004
7A80
6000
7000
2404
0AA0
ENDCHAR
STARTCHAR uni0405
ENCODING 1029
SWIDTH 504 0
DWIDTH 6 0
BBX 5 8 0 0
BITMAP
2A80
6080
7040
2D00
0780
40C0
80C0
BA40
ENDCHAR
STARTCHAR uni0406
ENCODING 1030
SWIDTH 357 0
DWIDTH 4 0
BBX 4 8 0 0
BITMAP
79
24
24
24
24
24
24
79
ENDCHAR
STARTCHAR uni0407
ENCODING 1031
SWIDTH 357 0
DWIDTH 4 0
BBX 4 10 0 0
BITMAP
96
00
79
24
24
24
24
24
24
79
ENDCHAR
STARTCHAR uni0408
ENCODING 1032
SWIDTH 396 0
DWIDTH 4 0
BBX 4 8 0 0
BITMAP
1E
0C
0C
0C
0C
0C
4C
A8
ENDCHAR
STARTCHAR uni0409
ENCODING 1033
SWIDTH 924 0
DWIDTH 10 0
BBX 10 8 0 0
BITMAP
1AB400
043000
043000
083A40
0830A0
043060
5430A0
E0BA80
ENDCHAR
STARTCHAR uni040A
ENCODING 1034
SWIDTH 1013 0
DWIDTH 11 0
BBX 11 8 0 0
BITMAP
792D00
240C00
240C00
2AAEA0
240C28
240C18
240C28
692EA0
ENDCHAR
STARTCHAR uni040B
ENCODING 1035
SWIDTH 761 0
DWIDTH 8 0
BBX 8 8 0 0
BITMAP
ABA8
4604
0600
0768
0609
0609
0609
0B5E
ENDCHAR
STARTCHAR uni040C
ENCODING 1036
SWIDTH 658 0
DWIDTH 7 0
BBX 7 11 0 0
BITMAP
0040
0240
0000
692C
2454
2480
2A80
24C0
2490
2430
6928
ENDCHAR
STARTCHAR uni040D
ENCODING 1037
SWIDTH 780 0
DWIDTH 9 0
BBX 8 11 0 0
BITMAP
0500
0240
0000
791E
240C
242C
244C
254C
290C
280C
691E
ENDCHAR
STARTCHAR uni040E
ENCODING 1038
SWIDTH 625 0
DWIDTH 7 0
BBX 7 11 0 0
BITMAP
0850
0540
0000
B428
2420
1810
0940
0640
0200
1200
3800
ENDCHAR
STARTCHAR uni040F
ENCODING 1039
SWIDTH 759 0
DWIDTH 8 0
BBX 8 11 0 -3
BITMAP
792D
240C
240C
240C
240C
240C
240C
6AAD
0040
0180
0180
ENDCHAR
STARTCHAR uni0410
ENCODING 1040
SWIDTH 718 0
DWIDTH 8 0
BBX 8 8 0 0
BITMAP
0240
0380
05C0
08A0
0870
19B4
2028
A02D
ENDCHAR
STARTCHAR uni0411
ENCODING 1041
SWIDTH 617 0
DWIDTH 7 0
BBX 7 8 0 0
BITMAP
7AB0
2410
2400
2A90
2470
2434
2430
7990
ENDCHAR
STARTCHAR uni0412
ENCODING 1042
SWIDTH 618 0
DWIDTH 7 0
BBX 7 8 0 0
BITMAP
7A90
2430
2470
2A90
2420
2424
2434
79A0
ENDCHAR
STARTCHAR uni0413
ENCODING 1043
SWIDTH 548 0
DWIDTH 6 0
BBX 6 8 0 0
BITMAP
7AA0
2420
2410
2400
2400
2400
2400
7900
ENDCHAR
STARTCHAR uni0414
ENCODING 1044
SWIDTH 663 0
DWIDTH 7 0
BBX 7 10 0 -2
BITMAP
1EB4
0860
0860
0860
1460
1060
2060
A5B4
C008
8008
ENDCHAR
STARTCHAR uni0415
ENCODING 1045
SWIDTH 626 0
DWIDTH 7 0
BBX 7 8 0 0
BITMAP
7AB4
2400
2410
2990
2410
2404
2404
6AB4
ENDCHAR
STARTCHAR uni0416
ENCODING 1046
SWIDTH 937 0
DWIDTH 10 0
BBX 10 8 0 0
BITMAP
B0B4B0
546150
086100
06AA00
096300
1C6280
2460C0
70B4A0
ENDCHAR
STARTCHAR uni0417
ENCODING 1047
SWIDTH 545 0
DWIDTH 6 0
BBX 6 8 0 0
BITMAP
6680
50D0
40C0
0B40
0090
00A0
4090
2A80
ENDCHAR
STARTCHAR uni0418
ENCODING 1048
SWIDTH 780 0
DWIDTH 9 0
BBX 8 8 0 0
BITMAP
791E
240C
242C
244C
254C
290C
280C
691E
ENDCHAR
STARTCHAR uni0419
ENCODING 1049
SWIDTH 780 0
DWIDTH 9 0
BBX 8 11 0 0
BITMAP
0530
0520
0150
791E
240C
242C
244C
254C
290C
280C
691E
ENDCHAR
STARTCHAR uni041A
ENCODING 1050
SWIDTH 658 0
DWIDTH 7 0
BBX 7 8 0 0
BITMAP
692C
2454
2480
2A80
24C0
2490
2430
6928
ENDCHAR
STARTCHAR uni041B
ENCODING 1051
SWIDTH 684 0
DWIDTH 8 0
BBX 7 8 0 0
BITMAP
1AB8
0430
0430
0830
0830
0830
5430
E078
ENDCHAR
STARTCHAR uni041C
ENCODING 1052
SWIDTH 895 0
DWIDTH 10 0
BBX 9 8 0 0
BITMAP
780380
2C0740
2A0A40
270640
225240
21A240
20D240
748780
ENDCHAR
STARTCHAR uni041D
ENCODING 1053
SWIDTH 777 0
DWIDTH 9 0
BBX 8 8 0 0
BITMAP
791E
240C
240C
295C
240C
240C
240C
691E
ENDCHAR
STARTCHAR uni041E
ENCODING 1054
SWIDTH 738 0
DWIDTH 8 0
BBX 8 8 0 0
BITMAP
0AA0
241C
7009
600A
600A
7009
2418
0AA0
ENDCHAR
STARTCHAR uni041F
ENCODING 1055
SWIDTH 759 0
DWIDTH 8 0
BBX 8 8 0 0
BITMAP
BFFF
240C
240C
240C
240C
240C
281C
BE3F
ENDCHAR
STARTCHAR uni0420
ENCODING 1056
SWIDTH 569 0
DWIDTH 6 0
BBX 6 8 0 0
BITMAP
6A90
2470
2430
2460
2A40
2400
2400
6900
ENDCHAR
STARTCHAR uni0421
ENCODING 1057
SWIDTH 670 0
DWIDTH 7 0
BBX 7 8 0 0
BITMAP
0AB8
2418
7004
6000
6000
7000
2804
0AA0
ENDCHAR
STARTCHAR uni0422
ENCODING 1058
SWIDTH 603 0
DWIDTH 7 0
BBX 7 8 0 0
BITMAP
ABA4
4604
0600
0600
0600
0600
0700
0B40
ENDCHAR
STARTCHAR uni0423
ENCODING 1059
SWIDTH 625 0
DWIDTH 7 0
BBX 7 8 0 0
BITMAP
B428
2420
1810
0940
0640
0200
1200
3800
ENDCHAR
STARTCHAR uni0424
ENCODING 1060
SWIDTH 725 0
DWIDTH 8 0
BBX 8 8 0 0
BITMAP
0690
1AA4
614D
914A
A149
3148
1A90
0690
ENDCHAR
STARTCHAR uni0425
ENCODING 1061
SWIDTH 664 0
DWIDTH 7 0
BBX 7 8 0 0
BITMAP
7838
1C20
0980
0340
0680
08D0
2070
7078
ENDCHAR
STARTCHAR uni0426
ENCODING 1062
SWIDTH 756 0
DWIDTH 8 0
BBX 8 10 0 -2
BITMAP
792D
241C
2418
2418
2418
2418
2418
696D
0002
0002
ENDCHAR
STARTCHAR uni0427
ENCODING 1063
SWIDTH 650 0
DWIDTH 7 0
BBX 7 8 0 0
BITMAP
74B4
3060
3060
3060
1AA0
0060
0060
01B4
ENDCHAR
STARTCHAR uni0428
ENCODING 1064
SWIDTH 1053 0
DWIDTH 12 0
BBX 11 8 0 0
BITMAP
787878
242430
242430
242430
242430
242430
242430
6ABAB8
ENDCHAR
STARTCHAR uni0429
ENCODING 1065
SWIDTH 1044 0
DWIDTH 11 0
BBX 11 10 0 -2
BITMAP
787878
242430
242430
242430
242430
242430
242430
6ABAB8
000008
000008
ENDCHAR
STARTCHAR uni042A
ENCODING 1066
SWIDTH 723 0
DWIDTH 8 0
BBX 8 8 0 0
BITMAP
AB40
4300
0300
03A4
0309
030A
0309
0BA8
ENDCHAR
STARTCHAR uni042B
ENCODING 1067
SWIDTH 887 0
DWIDTH 10 0
BBX 9 8 0 0
BITMAP
690780
240240
240240
2A8240
247240
243240
247240
7A9780
ENDCHAR
STARTCHAR uni042C
ENCODING 1068
SWIDTH 606 0
DWIDTH 7 0
BBX 7 8 0 0
BITMAP
7900
2400
2400
2A90
2470
2434
2430
7A90
ENDCHAR
STARTCHAR uni042D
ENCODING 1069
SWIDTH 667 0
DWIDTH 7 0
BBX 7 8 0 0
BITMAP
7A90
6034
4018
06A8
0018
0028
5030
1A90
ENDCHAR
STARTCHAR uni042E
ENCODING 1070
SWIDTH 1042 0
DWIDTH 11 0
BBX 11 8 0 0
BITMAP
7D1A90
247024
249018
29D01C
24901C
249018
246024
691950
ENDCHAR
STARTCHAR uni042F
ENCODING 1071
SWIDTH 654 0
DWIDTH 7 0
BBX 7 8 0 0
BITMAP
19B4
2460
3460
2860
0AA0
0D60
2860
B0B4
ENDCHAR
STARTCHAR uni0430
ENCODING 1072
SWIDTH 480 0
DWIDTH 5 0
BBX 5 6 0 0
BITMAP
2600
5240
0640
2240
9240
7A80
ENDCHAR
STARTCHAR uni0431
ENCODING 1073
SWIDTH 520 0
DWIDTH 6 0
BBX 6 9 0 0
BITMAP
0180
1E40
2000
5640
A0C0
A090
6090
6080
1A40
ENDCHAR
STARTCHAR uni0432
ENCODING 1074
SWIDTH 505 0
DWIDTH 6 0
BBX 5 6 0 0
BITMAP
7A40
30C0
3080
3A40
30C0
7680
ENDCHAR
STARTCHAR uni0433
ENCODING 1075
SWIDTH 429 0
DWIDTH 5 0
BBX 5 6 0 0
BITMAP
7640
3040
3000
3000
3000
7400
ENDCHAR
STARTCHAR uni0434
ENCODING 1076
SWIDTH 530 0
DWIDTH 6 0
BBX 6 8 0 -2
BITMAP
2A80
1580
1180
1180
2180
A6D0
8060
4010
ENDCHAR
STARTCHAR uni0435
ENCODING 1077
SWIDTH 464 0
DWIDTH 5 0
BBX 5 6 0 0
BITMAP
2A00
5140
AA80
9000
6040
2E00
ENDCHAR
STARTCHAR uni0436
ENCODING 1078
SWIDTH 754 0
DWIDTH 8 0
BBX 8 6 0 0
BITMAP
A287
1184
0584
0AA4
2598
628A
ENDCHAR
STARTCHAR uni0437
ENCODING 1079
SWIDTH 435 0
DWIDTH 5 0
BBX 5 6 0 0
BITMAP
6600
4300
1A00
0200
4240
6A00
ENDCHAR
STARTCHAR uni0438
ENCODING 1080
SWIDTH 609 0
DWIDTH 7 0
BBX 6 6 0 0
BITMAP
74A0
30A0
31A0
3560
3460
74A0
ENDCHAR
STARTCHAR uni0439
ENCODING 1081
SWIDTH 609 0
DWIDTH 7 0
BBX 6 9 0 0
BITMAP
0440
1480
0540
74A0
30A0
31A0
3560
3460
74A0
ENDCHAR
STARTCHAR uni043A
ENCODING 1082
SWIDTH 521 0
DWIDTH 6 0
BBX 6 6 0 0
BITMAP
74D0
3100
3100
3A00
3240
74D0
ENDCHAR
STARTCHAR uni043B
ENCODING 1083
SWIDTH 553 0
DWIDTH 6 0
BBX 6 6 0 0
BITMAP
19D0
04C0
04C0
14C0
10C0
E1D0
ENDCHAR
STARTCHAR uni043C
ENCODING 1084
SWIDTH 697 0
DWIDTH 8 0
BBX 7 6 0 0
BITMAP
7428
2828
2C58
1958
1358
6228
ENDCHAR
STARTCHAR uni043D
ENCODING 1085
SWIDTH 605 0
DWIDTH 7 0
BBX 6 6 0 0
BITMAP
74A0
3060
35A0
3060
3060
74A0
ENDCHAR
STARTCHAR uni043E
ENCODING 1086
SWIDTH 514 0
DWIDTH 6 0
BBX 6 6 0 0
BITMAP
2640
60C0
9090
9090
60C0
2640
ENDCHAR
STARTCHAR uni043F
ENCODING 1087
SWIDTH 591 0
DWIDTH 7 0
BBX 6 6 0 0
BITMAP
75A0
3090
3090
3090
3090
74A0
ENDCHAR
STARTCHAR uni0440
ENCODING 1088
SWIDTH 537 0
DWIDTH 6 0
BBX 6 9 0 -3
BITMAP
7780
3090
3090
3090
3080
3A40
3000
3000
7800
ENDCHAR
STARTCHAR uni0441
ENCODING 1089
SWIDTH 446 0
DWIDTH 5 0
BBX 5 6 0 0
BITMAP
1640
5140
9000
9000
6040
2E00
ENDCHAR
STARTCHAR uni0442
ENCODING 1090
SWIDTH 456 0
DWIDTH 5 0
BBX 5 6 0 0
BITMAP
AD80
4C40
0C00
0C00
0C00
1D00
ENDCHAR
STARTCHAR uni0443
ENCODING 1091
SWIDTH 483 0
DWIDTH 5 0
BBX 6 9 0 -3
BITMAP
A1D0
7040
2540
1900
0D00
0900
0800
0400
A000
ENDCHAR
STARTCHAR uni0444
ENCODING 1092
SWIDTH 710 0
DWIDTH 8 0
BBX 8 12 0 -3
BITMAP
0100
0640
0240
2AA8
6249
9249
9249
6248
2694
0240
0240
0280
ENDCHAR
STARTCHAR uni0445
ENCODING 1093
SWIDTH 479 0
DWIDTH 5 0
BBX 5 6 0 0
BITMAP
7580
2500
0D00
0A00
2340
A280
ENDCHAR
STARTCHAR uni0446
ENCODING 1094
SWIDTH 590 0
DWIDTH 6 0
BBX 7 8 0 -2
BITMAP
74A0
3090
3090
3090
3090
79E0
0024
0014
ENDCHAR
STARTCHAR uni0447
ENCODING 1095
SWIDTH 535 0
DWIDTH 6 0
BBX 6 6 0 0
BITMAP
A2D0
6180
6180
2A80
0180
02D0
ENDCHAR
STARTCHAR uni0448
ENCODING 1096
SWIDTH 812 0
DWIDTH 9 0
BBX 9 6 0 0
BITMAP
75D740
30C200
30C200
30C200
30C200
75DB40
ENDCHAR
STARTCHAR uni0449
ENCODING 1097
SWIDTH 814 0
DWIDTH 9 0
BBX 9 8 0 -2
BITMAP
75D740
30C200
30C200
30C200
30C200
76DB40
000080
000040
ENDCHAR
STARTCHAR uni044A
ENCODING 1098
SWIDTH 568 0
DWIDTH 6 0
BBX 6 6 0 0
BITMAP
9D00
4C00
0D90
0C70
0C30
1D90
ENDCHAR
STARTCHAR uni044B
ENCODING 1099
SWIDTH 728 0
DWIDTH 8 0
BBX 8 6 0 0
BITMAP
741D
300C
364C
31CC
30CC
765D
ENDCHAR
STARTCHAR uni044C
ENCODING 1100
SWIDTH 489 0
DWIDTH 5 0
BBX 5 6 0 0
BITMAP
7400
3000
3640
30C0
30C0
7640
ENDCHAR
STARTCHAR uni044D
ENCODING 1101
SWIDTH 467 0
DWIDTH 5 0
BBX 5 6 0 0
BITMAP
6600
4140
1A80
0180
4240
2A00
ENDCHAR
STARTCHAR uni044E
ENCODING 1102
SWIDTH 774 0
DWIDTH 9 0
BBX 8 6 0 0
BITMAP
74A9
3183
3643
3243
3182
7455
ENDCHAR
STARTCHAR uni044F
ENCODING 1103
SWIDTH 518 0
DWIDTH 6 0
BBX 5 6 0 0
BITMAP
2680
6180
3180
1E80
2580
7280
ENDCHAR
STARTCHAR uni0450
ENCODING 1104
SWIDTH 464 0
DWIDTH 5 0
BBX 5 8 0 0
BITMAP
1800
0800
2A00
5140
AA80
9000
6040
2E00
ENDCHAR
STARTCHAR uni0451
ENCODING 1105
SWIDTH 464 0
DWIDTH 5 0
BBX 5 8 0 0
BITMAP
3240
0000
2A00
5140
AA80
9000
6040
2E00
ENDCHAR
STARTCHAR uni0452
ENCODING 1106
SWIDTH 563 0
DWIDTH 6 0
BBX 6 12 0 -3
BITMAP
1000
7000
7900
3680
3490
3090
3090
3090
7490
0090
0480
0E40
ENDCHAR
STARTCHAR uni0453
ENCODING 1107
SWIDTH 429 0
DWIDTH 5 0
BBX 5 8 0 0
BITMAP
0900
0800
7640
3040
3000
3000
3000
7400
ENDCHAR
STARTCHAR uni0454
ENCODING 1108
SWIDTH 460 0
DWIDTH 5 0
BBX 5 6 0 0
BITMAP
1640
6040
A900
9000
6040
2A40
ENDCHAR
STARTCHAR uni0455
ENCODING 1109
SWIDTH 394 0
DWIDTH 4 0
BBX 4 6 0 0
BITMAP
66
91
74
1A
43
66
ENDCHAR
STARTCHAR uni0456
ENCODING 1110
SWIDTH 285 0
DWIDTH 3 0
BBX 3 8 0 0
BITMAP
30
10
70
30
30
30
30
74
ENDCHAR
STARTCHAR uni0457
ENCODING 1111
SWIDTH 285 0
DWIDTH 3 0
BBX 4 8 -1 0
BITMAP
63
11
1C
0C
0C
0C
0C
1D
ENDCHAR
STARTCHAR uni0458
ENCODING 1112
SWIDTH 263 0
DWIDTH 3 0
BBX 3 11 -1 -3
BITMAP
0C
04
1C
0C
0C
0C
0C
0C
0C
48
A4
ENDCHAR
STARTCHAR uni0459
ENCODING 1113
SWIDTH 742 0
DWIDTH 8 0
BBX 8 6 0 0
BITMAP
19D0
04C0
04D8
14C6
10C6
E1D9
ENDCHAR
STARTCHAR uni045A
ENCODING 1114
SWIDTH 790 0
DWIDTH 9 0
BBX 9 6 0 0
BITMAP
74A000
305000
35A900
305240
305240
74AA00
ENDCHAR
STARTCHAR uni045B
ENCODING 1115
SWIDTH 579 0
DWIDTH 6 0
BBX 6 9 0 0
BITMAP
7000
3000
7900
3680
3490
3090
3090
3090
74A0
ENDCHAR
STARTCHAR uni045C
ENCODING 1116
SWIDTH 521 0
DWIDTH 6 0
BBX 6 8 0 0
BITMAP
0600
0800
74D0
3100
3100
3A00
3240
74D0
ENDCHAR
STARTCHAR uni045D
ENCODING 1117
SWIDTH 609 0
DWIDTH 7 0
BBX 6 8 0 0
BITMAP
0900
0100
74A0
30A0
31A0
3560
3460
74A0
ENDCHAR
STARTCHAR uni045E
ENCODING 1118
SWIDTH 483 0
DWIDTH 5 0
BBX 6 12 0 -3
BITMAP
1040
3180
1500
A1D0
6040
2540
1900
0D00
0900
0800
0400
A000
ENDCHAR
STARTCHAR uni045F
ENCODING 1119
SWIDTH 587 0
DWIDTH 6 0
BBX 6 9 0 -3
BITMAP
74A0
3090
3090
3090
3090
79E0
0200
0600
0100
ENDCHAR
STARTCHAR uni0462
ENCODING 1122
SWIDTH 727 0
DWIDTH 8 0
BBX 8 9 0 0
BITMAP
0A40
ABA8
8608
0600
07A4
060D
060A
0609
0BA4
ENDCHAR
STARTCHAR uni0463
ENCODING 1123
SWIDTH 561 0
DWIDTH 6 0
BBX 6 9 0 0
BITMAP
1400
0C00
0C00
AD80
4C40
0D90
0C60
0C30
1D90
ENDCHAR
STARTCHAR uni046A
ENCODING 1130
SWIDTH 881 0
DWIDTH 10 0
BBX 10 8 0 0
BITMAP
0EAA00
0A0400
034800
01A000
06E800
0C9600
289240
B1E1D0
ENDCHAR
STARTCHAR uni046B
ENCODING 1131
SWIDTH 667 0
DWIDTH 7 0
BBX 8 6 0 0
BITMAP
2960
0C50
0680
1BA0
3224
A359
ENDCHAR
STARTCHAR uni0472
ENCODING 1138
SWIDTH 737 0
DWIDTH 8 0
BBX 8 8 0 0
BITMAP
0AA0
241C
7009
6B4A
61EA
7009
2418
0A60
ENDCHAR
STARTCHAR uni0473
ENCODING 1139
SWIDTH 514 0
DWIDTH 6 0
BBX 6 6 0 0
BITMAP
2A40
60C0
A890
9690
60C0
2640
ENDCHAR
STARTCHAR uni0474
ENCODING 1140
SWIDTH 705 0
DWIDTH 8 0
BBX 8 8 0 0
BITMAP
B40B
3415
2820
1C20
0A50
0780
0380
0240
ENDCHAR
STARTCHAR uni0475
ENCODING 1141
SWIDTH 520 0
DWIDTH 6 0
BBX 6 6 0 0
BITMAP
A0B0
6040
3100
1500
0900
0800
ENDCHAR
STARTCHAR uni0490
ENCODING 1168
SWIDTH 525 0
DWIDTH 6 0
BBX 6 10 0 0
BITMAP
0010
0020
7A90
2400
2400
2400
2400
2400
2400
7900
ENDCHAR
STARTCHAR uni0491
ENCODING 1169
SWIDTH 404 0
DWIDTH 4 0
BBX 5 8 0 0
BITMAP
0040
0140
7500
3000
3000
3000
3000
7400
ENDCHAR
STARTCHAR uni1D00
ENCODING 7424
SWIDTH 511 0
DWIDTH 6 0
BBX 6 6 0 0
BITMAP
0900
0A00
1300
2640
5180
91D0
ENDCHAR
STARTCHAR uni1D07
ENCODING 7431
SWIDTH 495 0
DWIDTH 5 0
BBX 5 6 0 0
BITMAP
7580
3040
3100
3600
3040
7580
ENDCHAR
STARTCHAR uni1D1C
ENCODING 7452
SWIDTH 584 0
DWIDTH 6 0
BBX 6 6 0 0
BITMAP
7460
3010
3010
3010
3050
1A80
ENDCHAR
STARTCHAR uni1D81
ENCODING 7553
SWIDTH 539 0
DWIDTH 6 0
BBX 6 12 0 -3
BITMAP
0180
00C0
00C0
1AC0
60C0
90C0
90C0
60C0
2DD0
0010
0010
0190
ENDCHAR
STARTCHAR uni1D84
ENCODING 7556
SWIDTH 542 0
DWIDTH 6 0
BBX 6 12 0 -3
BITMAP
7000
3000
3000
3290
3200
3800
3A00
3240
75D0
0010
0010
0190
ENDCHAR
STARTCHAR uni1D85
ENCODING 7557
SWIDTH 283 0
DWIDTH 3 0
BBX 3 12 0 -3
BITMAP
70
30
30
30
30
30
30
30
74
04
04
64
ENDCHAR
STARTCHAR uni1D8A
ENCODING 7562
SWIDTH 395 0
DWIDTH 4 0
BBX 4 9 0 -3
BITMAP
66
91
74
0A
43
6A
01
01
19
ENDCHAR
STARTCHAR uni1D8D
ENCODING 7565
SWIDTH 479 0
DWIDTH 5 0
BBX 6 9 0 -3
BITMAP
7580
2500
0D00
0A00
2340
A280
0050
0050
0280
ENDCHAR
STARTCHAR uni1D8E
ENCODING 7566
SWIDTH 458 0
DWIDTH 5 0
BBX 5 9 0 -3
BITMAP
6B40
4700
0900
1800
3040
BA80
0040
0040
0A00
ENDCHAR
STARTCHAR uni1D98
ENCODING 7576
SWIDTH 368 0
DWIDTH 4 0
BBX 5 12 0 -3
BITMAP
0580
0840
0800
0800
0800
0800
0800
4800
A800
4000
4000
6400
ENDCHAR
STARTCHAR uni1D9B
ENCODING 7579
SWIDTH 462 0
DWIDTH 5 0
BBX 5 4 0 3
BITMAP
6A40
6180
6180
6600
ENDCHAR
STARTCHAR uni1DA3
ENCODING 7587
SWIDTH 488 0
DWIDTH 5 0
BBX 5 6 0 1
BITMAP
7280
2140
2140
2A40
0140
0180
ENDCHAR
STARTCHAR uni1E00
ENCODING 7680
SWIDTH 718 0
DWIDTH 8 0
BBX 8 11 0 -3
BITMAP
0240
0380
05C0
08A0
0870
19B4
2028
A02D
0240
0480
0240
ENDCHAR
STARTCHAR uni1E01
ENCODING 7681
SWIDTH 480 0
DWIDTH 5 0
BBX 5 9 0 -3
BITMAP
2600
5240
0640
2240
9240
7A80
1900
2200
1900
ENDCHAR
STARTCHAR uni1E02
ENCODING 7682
SWIDTH 618 0
DWIDTH 7 0
BBX 7 10 0 0
BITMAP
0600
0000
7A90
2430
2470
2A90
2420
2424
2434
79A0
ENDCHAR
STARTCHAR uni1E03
ENCODING 7683
SWIDTH 522 0
DWIDTH 6 0
BBX 6 10 0 0
BITMAP
0900
A000
2000
2000
2B80
30C0
2090
2090
2080
2A40
ENDCHAR
STARTCHAR uni1E04
ENCODING 7684
SWIDTH 618 0
DWIDTH 7 0
BBX 7 10 0 -2
BITMAP
7A90
2430
2470
2A90
2420
2424
2434
79A0
0000
0600
ENDCHAR
STARTCHAR uni1E05
ENCODING 7685
SWIDTH 522 0
DWIDTH 6 0
BBX 6 11 0 -2
BITMAP
A000
2000
2000
2B80
30C0
2090
2090
2080
2A40
0000
0900
ENDCHAR
STARTCHAR uni1E06
ENCODING 7686
SWIDTH 618 0
DWIDTH 7 0
BBX 7 10 0 -2
BITMAP
7A90
2430
2470
2A90
2420
2424
2434
79A0
0000
1A80
ENDCHAR
STARTCHAR uni1E07
ENCODING 7687
SWIDTH 522 0
DWIDTH 6 0
BBX 6 11 0 -2
BITMAP
A000
2000
2000
2B80
30C0
2090
2090
2080
2A40
0000
2A40
ENDCHAR
STARTCHAR uni1E08
ENCODING 7688
SWIDTH 670 0
DWIDTH 7 0
BBX 7 14 0 -3
BITMAP
0040
0140
0000
0AB8
2418
7004
6000
6000
7000
2804
0BA0
0140
0080
0140
ENDCHAR
STARTCHAR uni1E09
ENCODING 7689
SWIDTH 446 0
DWIDTH 5 0
BBX 5 11 0 -3
BITMAP
0600
0800
1640
5140
9000
9000
6040
2E00
0400
0500
0600
ENDCHAR
STARTCHAR uni1E0A
ENCODING 7690
SWIDTH 730 0
DWIDTH 8 0
BBX 8 10 0 0
BITMAP
0240
0000
6AA0
2418
240D
2409
2409
240D
2418
69A0
ENDCHAR
STARTCHAR uni1E0B
ENCODING 7691
SWIDTH 539 0
DWIDTH 6 0
BBX 6 10 0 0
BITMAP
0900
0280
00C0
00C0
1AC0
60C0
90C0
90C0
60C0
2DD0
ENDCHAR
STARTCHAR uni1E0C
ENCODING 7692
SWIDTH 730 0
DWIDTH 8 0
BBX 8 10 0 -2
BITMAP
6AA0
2418
240D
2409
2409
240D
2418
69A0
0000
0300
ENDCHAR
STARTCHAR uni1E0D
ENCODING 7693
SWIDTH 539 0
DWIDTH 6 0
BBX 6 11 0 -2
BITMAP
0180
00C0
00C0
1AC0
60C0
90C0
90C0
60C0
2DD0
0000
0900
ENDCHAR
STARTCHAR uni1E0E
ENCODING 7694
SWIDTH 730 0
DWIDTH 8 0
BBX 8 10 0 -2
BITMAP
6AA0
2418
240D
2409
2409
240D
2418
69A0
0000
0A80
ENDCHAR
STARTCHAR uni1E0F
ENCODING 7695
SWIDTH 539 0
DWIDTH 6 0
BBX 6 11 0 -2
BITMAP
0180
00C0
00C0
1AC0
60C0
90C0
90C0
60C0
2DD0
0000
1A40
ENDCHAR
STARTCHAR uni1E10
ENCODING 7696
SWIDTH 730 0
DWIDTH 8 0
BBX 8 12 0 -4
BITMAP
6AA0
2418
240D
2409
2409
240D
2418
69A0
0000
0300
0100
0100
ENDCHAR
STARTCHAR uni1E11
ENCODING 7697
SWIDTH 539 0
DWIDTH 6 0
BBX 6 13 0 -4
BITMAP
0180
00C0
00C0
1AC0
60C0
90C0
90C0
60C0
2DD0
0000
0A00
0100
0400
ENDCHAR
STARTCHAR uni1E12
ENCODING 7698
SWIDTH 730 0
DWIDTH 8 0
BBX 8 10 0 -2
BITMAP
6AA0
2418
240D
2409
2409
240D
2418
69A0
0340
0880
ENDCHAR
STARTCHAR uni1E13
ENCODING 7699
SWIDTH 539 0
DWIDTH 6 0
BBX 6 11 0 -2
BITMAP
0180
00C0
00C0
1AC0
60C0
90C0
90C0
60C0
2DD0
0A00
1540
ENDCHAR
STARTCHAR uni1E14
ENCODING 7700
SWIDTH 626 0
DWIDTH 7 0
BBX 7 12 0 0
BITMAP
0500
0240
0A80
0000
7AB4
2400
2410
2990
2410
2404
2404
6AB4
ENDCHAR
STARTCHAR uni1E15
ENCODING 7701
SWIDTH 464 0
DWIDTH 5 0
BBX 5 10 0 0
BITMAP
1800
0800
2A40
0000
2A00
5140
AA80
9000
6040
2E00
ENDCHAR
STARTCHAR uni1E16
ENCODING 7702
SWIDTH 626 0
DWIDTH 7 0
BBX 7 12 0 0
BITMAP
0140
0600
0A80
0000
7AB4
2400
2410
2990
2410
2404
2404
6AB4
ENDCHAR
STARTCHAR uni1E17
ENCODING 7703
SWIDTH 464 0
DWIDTH 5 0
BBX 5 10 0 0
BITMAP
0600
0800
2A40
0000
2A00
5140
AA80
9000
6040
2E00
ENDCHAR
STARTCHAR uni1E18
ENCODING 7704
SWIDTH 626 0
DWIDTH 7 0
BBX 7 10 0 -2
BITMAP
7AB4
2400
2410
2990
2410
2404
2404
6AB4
0340
0880
ENDCHAR
STARTCHAR uni1E19
ENCODING 7705
SWIDTH 464 0
DWIDTH 5 0
BBX 5 8 0 -2
BITMAP
2A00
5140
AA80
9000
6040
2E00
0D00
1200
ENDCHAR
STARTCHAR uni1E1A
ENCODING 7706
SWIDTH 626 0
DWIDTH 7 0
BBX 7 10 0 -2
BITMAP
7AB4
2400
2410
2990
2410
2404
2404
6AB4
0A40
1280
ENDCHAR
STARTCHAR uni1E1B
ENCODING 7707
SWIDTH 464 0
DWIDTH 5 0
BBX 5 8 0 -2
BITMAP
2A00
5140
AA80
9000
6040
2E00
2940
1600
ENDCHAR
STARTCHAR uni1E1C
ENCODING 7708
SWIDTH 626 0
DWIDTH 7 0
BBX 7 14 0 -3
BITMAP
0440
0640
0000
7AB4
2400
2410
2990
2410
2404
2404
6AB4
0240
0080
0640
ENDCHAR
STARTCHAR uni1E1D
ENCODING 7709
SWIDTH 464 0
DWIDTH 5 0
BBX 5 11 0 -3
BITMAP
1100
1A00
2A00
5140
AA80
9000
6040
2E00
0900
0200
0900
ENDCHAR
STARTCHAR uni1E1E
ENCODING 7710
SWIDTH 588 0
DWIDTH 6 0
BBX 7 10 0 0
BITMAP
0300
0000
7AA4
2404
2410
2990
2410
2400
2400
6900
ENDCHAR
STARTCHAR uni1E1F
ENCODING 7711
SWIDTH 307 0
DWIDTH 3 0
BBX 4 10 0 0
BITMAP
34
1A
21
30
79
30
30
30
30
78
ENDCHAR
STARTCHAR uni1E20
ENCODING 7712
SWIDTH 720 0
DWIDTH 8 0
BBX 8 10 0 0
BITMAP
06A0
0000
0AB8
2408
7004
6000
6029
7018
2418
0AA4
ENDCHAR
STARTCHAR uni1E21
ENCODING 7713
SWIDTH 484 0
DWIDTH 5 0
BBX 5 11 0 -3
BITMAP
2A40
0000
2780
6140
6240
2500
5000
7F80
5080
9080
7A40
ENDCHAR
STARTCHAR uni1E22
ENCODING 7714
SWIDTH 777 0
DWIDTH 9 0
BBX 8 10 0 0
BITMAP
0180
0000
791E
240C
240C
295C
240C
240C
240C
691E
ENDCHAR
STARTCHAR uni1E23
ENCODING 7715
SWIDTH 577 0
DWIDTH 6 0
BBX 6 10 0 0
BITMAP
0600
7000
3000
3000
3680
3490
3090
3090
3090
74A0
ENDCHAR
STARTCHAR uni1E24
ENCODING 7716
SWIDTH 777 0
DWIDTH 9 0
BBX 8 10 0 -2
BITMAP
791E
240C
240C
295C
240C
240C
240C
691E
0000
0180
ENDCHAR
STARTCHAR uni1E25
ENCODING 7717
SWIDTH 577 0
DWIDTH 6 0
BBX 6 11 0 -2
BITMAP
7000
3000
3000
3680
3490
3090
3090
3090
74A0
0000
0600
ENDCHAR
STARTCHAR uni1E26
ENCODING 7718
SWIDTH 777 0
DWIDTH 9 0
BBX 8 10 0 0
BITMAP
0630
0000
791E
240C
240C
295C
240C
240C
240C
691E
ENDCHAR
STARTCHAR uni1E27
ENCODING 7719
SWIDTH 577 0
DWIDTH 6 0
BBX 6 10 0 0
BITMAP
28C0
7000
3000
3000
3680
3490
3090
3090
3090
74A0
ENDCHAR
STARTCHAR uni1E28
ENCODING 7720
SWIDTH 777 0
DWIDTH 9 0
BBX 8 11 0 -3
BITMAP
791E
240C
240C
295C
240C
240C
240C
791E
1400
0800
1400
ENDCHAR
STARTCHAR uni1E29
ENCODING 7721
SWIDTH 577 0
DWIDTH 6 0
BBX 6 12 0 -3
BITMAP
7000
3000
3000
3680
3490
3090
3090
3090
74A0
2400
0800
6000
ENDCHAR
STARTCHAR uni1E2A
ENCODING 7722
SWIDTH 777 0
DWIDTH 9 0
BBX 8 11 0 -3
BITMAP
791E
240C
240C
295C
240C
240C
240C
691E
0000
0510
0290
ENDCHAR
STARTCHAR uni1E2B
ENCODING 7723
SWIDTH 577 0
DWIDTH 6 0
BBX 6 12 0 -3
BITMAP
7000
3000
3000
3680
3490
3090
3090
3090
74A0
0000
1440
0A40
ENDCHAR
STARTCHAR uni1E2C
ENCODING 7724
SWIDTH 357 0
DWIDTH 4 0
BBX 4 10 0 -2
BITMAP
79
24
24
24
24
24
24
79
65
59
ENDCHAR
STARTCHAR uni1E2D
ENCODING 7725
SWIDTH 285 0
DWIDTH 3 0
BBX 4 10 0 -2
BITMAP
30
10
70
30
30
30
30
74
A5
18
ENDCHAR
STARTCHAR uni1E2E
ENCODING 7726
SWIDTH 357 0
DWIDTH 4 0
BBX 4 13 0 0
BITMAP
04
24
00
96
00
79
24
24
24
24
24
24
79
ENDCHAR
STARTCHAR uni1E2F
ENCODING 7727
SWIDTH 285 0
DWIDTH 3 0
BBX 4 10 -1 0
BITMAP
09
08
63
11
1C
0C
0C
0C
0C
1D
ENDCHAR
STARTCHAR uni1E30
ENCODING 7728
SWIDTH 702 0
DWIDTH 8 0
BBX 8 11 0 0
BITMAP
0040
0240
0000
7978
2450
2540
2A00
2B40
25C0
2470
697D
ENDCHAR
STARTCHAR uni1E31
ENCODING 7729
SWIDTH 542 0
DWIDTH 6 0
BBX 6 11 0 0
BITMAP
0100
0900
7000
3000
3000
3290
3200
3800
3A00
3240
75D0
ENDCHAR
STARTCHAR uni1E32
ENCODING 7730
SWIDTH 702 0
DWIDTH 8 0
BBX 8 10 0 -2
BITMAP
7978
2450
2540
2A00
2B40
25C0
2470
697D
0000
0240
ENDCHAR
STARTCHAR uni1E33
ENCODING 7731
SWIDTH 542 0
DWIDTH 6 0
BBX 6 11 0 -2
BITMAP
7000
3000
3000
3290
3200
3800
3A00
3240
75D0
0000
0500
ENDCHAR
STARTCHAR uni1E34
ENCODING 7732
SWIDTH 702 0
DWIDTH 8 0
BBX 8 10 0 -2
BITMAP
7978
2450
2540
2A00
2B40
25C0
2470
697D
0000
0A90
ENDCHAR
STARTCHAR uni1E35
ENCODING 7733
SWIDTH 542 0
DWIDTH 6 0
BBX 6 11 0 -2
BITMAP
7000
3000
3000
3290
3200
3800
3A00
3240
75D0
0000
1A40
ENDCHAR
STARTCHAR uni1E36
ENCODING 7734
SWIDTH 585 0
DWIDTH 6 0
BBX 6 10 0 -2
BITMAP
7900
2400
2400
2400
2400
2400
2410
6AB0
0000
0600
ENDCHAR
STARTCHAR uni1E37
ENCODING 7735
SWIDTH 283 0
DWIDTH 3 0
BBX 3 11 0 -2
BITMAP
70
30
30
30
30
30
30
30
74
00
30
ENDCHAR
STARTCHAR uni1E38
ENCODING 7736
SWIDTH 585 0
DWIDTH 6 0
BBX 6 12 0 -2
BITMAP
6900
0000
7900
2400
2400
2400
2400
2400
2410
6AB0
0000
0600
ENDCHAR
STARTCHAR uni1E39
ENCODING 7737
SWIDTH 283 0
DWIDTH 3 0
BBX 3 12 0 -2
BITMAP
A8
70
30
30
30
30
30
30
30
74
00
30
ENDCHAR
STARTCHAR uni1E3A
ENCODING 7738
SWIDTH 585 0
DWIDTH 6 0
BBX 6 10 0 -2
BITMAP
7900
2400
2400
2400
2400
2400
2410
6AB0
0000
1A80
ENDCHAR
STARTCHAR uni1E3B
ENCODING 7739
SWIDTH 283 0
DWIDTH 3 0
BBX 3 11 0 -2
BITMAP
70
30
30
30
30
30
30
30
74
00
A8
ENDCHAR
STARTCHAR uni1E3C
ENCODING 7740
SWIDTH 585 0
DWIDTH 6 0
BBX 6 10 0 -2
BITMAP
7900
2400
2400
2400
2400
2400
2410
6AB0
0600
0540
ENDCHAR
STARTCHAR uni1E3D
ENCODING 7741
SWIDTH 283 0
DWIDTH 3 0
BBX 3 11 0 -2
BITMAP
70
30
30
30
30
30
30
30
74
34
88
ENDCHAR
STARTCHAR uni1E3E
ENCODING 7742
SWIDTH 895 0
DWIDTH 10 0
BBX 9 11 0 0
BITMAP
001000
008000
000000
780380
2C0740
2A0A40
270640
225240
21A240
20D240
748780
ENDCHAR
STARTCHAR uni1E3F
ENCODING 7743
SWIDTH 852 0
DWIDTH 9 0
BBX 9 8 0 0
BITMAP
006000
008000
769A00
349240
309240
309240
309240
75E280
ENDCHAR
STARTCHAR uni1E40
ENCODING 7744
SWIDTH 895 0
DWIDTH 10 0
BBX 9 10 0 0
BITMAP
009000
000000
780380
2C0740
2A0A40
270640
225240
21A240
20D240
748780
ENDCHAR
STARTCHAR uni1E41
ENCODING 7745
SWIDTH 852 0
DWIDTH 9 0
BBX 9 8 0 0
BITMAP
009000
000000
769A00
349240
309240
309240
309240
75E280
ENDCHAR
STARTCHAR uni1E42
ENCODING 7746
SWIDTH 895 0
DWIDTH 10 0
BBX 9 10 0 -2
BITMAP
780380
2C0740
2A0A40
270640
225240
21A240
20D240
748780
000000
008000
ENDCHAR
STARTCHAR uni1E43
ENCODING 7747
SWIDTH 852 0
DWIDTH 9 0
BBX 9 8 0 -2
BITMAP
769A00
349240
309240
309240
309240
75E280
000000
009000
ENDCHAR
STARTCHAR uni1E44
ENCODING 7748
SWIDTH 742 0
DWIDTH 8 0
BBX 8 10 0 0
BITMAP
0180
0000
781D
2D08
2708
2288
20D8
2078
202C
7408
ENDCHAR
STARTCHAR uni1E45
ENCODING 7749
SWIDTH 576 0
DWIDTH 6 0
BBX 6 8 0 0
BITMAP
0600
0000
7680
3490
3090
3090
3090
74E0
ENDCHAR
STARTCHAR uni1E46
ENCODING 7750
SWIDTH 742 0
DWIDTH 8 0
BBX 8 10 0 -2
BITMAP
781D
2D08
2708
2288
20D8
2078
202C
7408
0000
0240
ENDCHAR
STARTCHAR uni1E47
ENCODING 7751
SWIDTH 576 0
DWIDTH 6 0
BBX 6 8 0 -2
BITMAP
7680
3490
3090
3090
3090
74E0
0000
0600
ENDCHAR
STARTCHAR uni1E48
ENCODING 7752
SWIDTH 742 0
DWIDTH 8 0
BBX 8 10 0 -2
BITMAP
781D
2D08
2708
2288
20D8
2078
202C
7408
0000
0A90
ENDCHAR
STARTCHAR uni1E49
ENCODING 7753
SWIDTH 576 0
DWIDTH 6 0
BBX 6 8 0 -2
BITMAP
7680
3490
3090
3090
3090
74E0
0000
1A80
ENDCHAR
STARTCHAR uni1E4A
ENCODING 7754
SWIDTH 742 0
DWIDTH 8 0
BBX 8 10 0 -2
BITMAP
781D
2D08
2708
2288
20D8
2078
202C
7408
0280
0550
ENDCHAR
STARTCHAR uni1E4B
ENCODING 7755
SWIDTH 576 0
DWIDTH 6 0
BBX 6 8 0 -2
BITMAP
7680
3490
3090
3090
3090
74E0
0600
0540
ENDCHAR
STARTCHAR uni1E4C
ENCODING 7756
SWIDTH 738 0
DWIDTH 8 0
BBX 8 12 0 0
BITMAP
0040
0240
0690
0000
0AA0
241C
7009
600A
600A
7009
2418
0AA0
ENDCHAR
STARTCHAR uni1E4D
ENCODING 7757
SWIDTH 514 0
DWIDTH 6 0
BBX 6 10 0 0
BITMAP
0200
0400
1940
1640
2640
60C0
9090
9090
60C0
2640
ENDCHAR
STARTCHAR uni1E4E
ENCODING 7758
SWIDTH 738 0
DWIDTH 8 0
BBX 8 11 0 0
BITMAP
0960
06A0
0000
0AA0
241C
7009
600A
600A
7009
2418
0AA0
ENDCHAR
STARTCHAR uni1E4F
ENCODING 7759
SWIDTH 514 0
DWIDTH 6 0
BBX 6 9 0 0
BITMAP
2580
1940
1640
2640
60C0
9090
9090
60C0
2640
ENDCHAR
STARTCHAR uni1E50
ENCODING 7760
SWIDTH 738 0
DWIDTH 8 0
BBX 8 12 0 0
BITMAP
0100
0180
0690
0000
0AA0
241C
7009
600A
600A
7009
2418
0AA0
ENDCHAR
STARTCHAR uni1E51
ENCODING 7761
SWIDTH 514 0
DWIDTH 6 0
BBX 6 10 0 0
BITMAP
0C00
0500
2A40
0000
2640
60C0
9090
9090
60C0
2640
ENDCHAR
STARTCHAR uni1E52
ENCODING 7762
SWIDTH 738 0
DWIDTH 8 0
BBX 8 12 0 0
BITMAP
0040
0240
0690
0000
0AA0
241C
7009
600A
600A
7009
2418
0AA0
ENDCHAR
STARTCHAR uni1E53
ENCODING 7763
SWIDTH 514 0
DWIDTH 6 0
BBX 6 10 0 0
BITMAP
0200
0400
2A40
0000
2640
60C0
9090
9090
60C0
2640
ENDCHAR
STARTCHAR uni1E54
ENCODING 7764
SWIDTH 569 0
DWIDTH 6 0
BBX 6 11 0 0
BITMAP
0100
0500
0000
6A90
2470
2430
2460
2A40
2400
2400
6900
ENDCHAR
STARTCHAR uni1E55
ENCODING 7765
SWIDTH 537 0
DWIDTH 6 0
BBX 6 11 0 -3
BITMAP
0300
0500
7780
3090
3090
3090
3080
3A40
3000
3000
7800
ENDCHAR
STARTCHAR uni1E56
ENCODING 7766
SWIDTH 569 0
DWIDTH 6 0
BBX 6 10 0 0
BITMAP
0600
0000
6A90
2470
2430
2460
2A40
2400
2400
6900
ENDCHAR
STARTCHAR uni1E57
ENCODING 7767
SWIDTH 537 0
DWIDTH 6 0
BBX 6 11 0 -3
BITMAP
0900
0000
7780
3090
3090
3090
3080
3A40
3000
3000
7800
ENDCHAR
STARTCHAR uni1E58
ENCODING 7768
SWIDTH 659 0
DWIDTH 7 0
BBX 7 10 0 0
BITMAP
0300
0000
7A90
2470
2430
2460
2A80
25C0
24A0
6928
ENDCHAR
STARTCHAR uni1E59
ENCODING 7769
SWIDTH 380 0
DWIDTH 4 0
BBX 4 8 0 0
BITMAP
18
00
77
35
30
30
30
74
ENDCHAR
STARTCHAR uni1E5A
ENCODING 7770
SWIDTH 659 0
DWIDTH 7 0
BBX 7 10 0 -2
BITMAP
7A90
2470
2430
2460
2A80
25C0
24A0
6928
0000
0200
ENDCHAR
STARTCHAR uni1E5B
ENCODING 7771
SWIDTH 380 0
DWIDTH 4 0
BBX 4 8 0 -2
BITMAP
77
35
30
30
30
74
00
24
ENDCHAR
STARTCHAR uni1E5C
ENCODING 7772
SWIDTH 659 0
DWIDTH 7 0
BBX 7 12 0 -2
BITMAP
0A80
0000
7A90
2470
2430
2460
2A80
25C0
24A0
6928
0000
0200
ENDCHAR
STARTCHAR uni1E5D
ENCODING 7773
SWIDTH 380 0
DWIDTH 4 0
BBX 4 10 0 -2
BITMAP
6A
00
77
35
30
30
30
74
00
24
ENDCHAR
STARTCHAR uni1E5E
ENCODING 7774
SWIDTH 659 0
DWIDTH 7 0
BBX 7 10 0 -2
BITMAP
7A90
2470
2430
2460
2A80
25C0
24A0
6928
0000
0A90
ENDCHAR
STARTCHAR uni1E5F
ENCODING 7775
SWIDTH 380 0
DWIDTH 4 0
BBX 4 8 0 -2
BITMAP
77
35
30
30
30
74
00
A9
ENDCHAR
STARTCHAR uni1E60
ENCODING 7776
SWIDTH 504 0
DWIDTH 6 0
BBX 5 10 0 0
BITMAP
0900
0000
2A80
6080
7040
2D00
0780
40C0
80C0
BA40
ENDCHAR
STARTCHAR uni1E61
ENCODING 7777
SWIDTH 394 0
DWIDTH 4 0
BBX 4 8 0 0
BITMAP
18
00
66
91
74
1A
43
66
ENDCHAR
STARTCHAR uni1E62
ENCODING 7778
SWIDTH 504 0
DWIDTH 6 0
BBX 5 10 0 -2
BITMAP
2A80
6080
7040
2D00
0780
40C0
80C0
BA40
0000
0900
ENDCHAR
STARTCHAR uni1E63
ENCODING 7779
SWIDTH 394 0
DWIDTH 4 0
BBX 4 8 0 -2
BITMAP
66
91
74
1A
43
66
00
18
ENDCHAR
STARTCHAR uni1E64
ENCODING 7780
SWIDTH 504 0
DWIDTH 6 0
BBX 5 11 0 0
BITMAP
0140
2900
0000
2A80
6080
7040
2D00
0780
40C0
80C0
BA40
ENDCHAR
STARTCHAR uni1E65
ENCODING 7781
SWIDTH 394 0
DWIDTH 4 0
BBX 4 9 0 0
BITMAP
20
19
08
66
91
74
1A
43
66
ENDCHAR
STARTCHAR uni1E66
ENCODING 7782
SWIDTH 504 0
DWIDTH 6 0
BBX 5 12 0 0
BITMAP
0400
1900
0A00
0000
2A80
6080
7040
2D00
0780
40C0
80C0
BA40
ENDCHAR
STARTCHAR uni1E67
ENCODING 7783
SWIDTH 394 0
DWIDTH 4 0
BBX 4 9 0 0
BITMAP
29
2C
00
66
91
74
1A
43
66
ENDCHAR
STARTCHAR uni1E68
ENCODING 7784
SWIDTH 504 0
DWIDTH 6 0
BBX 5 12 0 -2
BITMAP
0900
0000
2A80
6080
7040
2D00
0780
40C0
80C0
BA40
0000
0900
ENDCHAR
STARTCHAR uni1E69
ENCODING 7785
SWIDTH 394 0
DWIDTH 4 0
BBX 4 10 0 -2
BITMAP
18
00
66
91
74
1A
43
66
00
18
ENDCHAR
STARTCHAR uni1E6A
ENCODING 7786
SWIDTH 603 0
DWIDTH 7 0
BBX 7 10 0 0
BITMAP
0700
0000
ABA4
4604
0600
0600
0600
0600
0700
0B40
ENDCHAR
STARTCHAR uni1E6B
ENCODING 7787
SWIDTH 315 0
DWIDTH 3 0
BBX 3 9 0 0
BITMAP
24
10
20
78
30
30
30
30
28
ENDCHAR
STARTCHAR uni1E6C
ENCODING 7788
SWIDTH 603 0
DWIDTH 7 0
BBX 7 10 0 -2
BITMAP
ABA4
4604
0600
0600
0600
0600
0700
0B40
0000
0600
ENDCHAR
STARTCHAR uni1E6D
ENCODING 7789
SWIDTH 315 0
DWIDTH 3 0
BBX 3 10 0 -2
BITMAP
10
20
78
30
30
30
30
28
00
18
ENDCHAR
STARTCHAR uni1E6E
ENCODING 7790
SWIDTH 603 0
DWIDTH 7 0
BBX 7 10 0 -2
BITMAP
ABA4
4604
0600
0600
0600
0600
0700
0B40
0000
1A80
ENDCHAR
STARTCHAR uni1E6F
ENCODING 7791
SWIDTH 315 0
DWIDTH 3 0
BBX 4 10 0 -2
BITMAP
10
20
78
30
30
30
30
28
00
69
ENDCHAR
STARTCHAR uni1E70
ENCODING 7792
SWIDTH 603 0
DWIDTH 7 0
BBX 7 10 0 -2
BITMAP
ABA4
4604
0600
0600
0600
0600
0700
0B40
0700
0840
ENDCHAR
STARTCHAR uni1E71
ENCODING 7793
SWIDTH 315 0
DWIDTH 3 0
BBX 4 10 0 -2
BITMAP
10
20
78
30
30
30
30
28
28
55
ENDCHAR
STARTCHAR uni1E72
ENCODING 7794
SWIDTH 752 0
DWIDTH 8 0
BBX 8 10 0 -2
BITMAP
781E
2408
2408
2408
2408
2408
1808
0AA0
0000
0920
ENDCHAR
STARTCHAR uni1E73
ENCODING 7795
SWIDTH 570 0
DWIDTH 6 0
BBX 6 8 0 -2
BITMAP
71D0
3090
3090
3090
30D0
2AA0
0000
2580
ENDCHAR
STARTCHAR uni1E74
ENCODING 7796
SWIDTH 752 0
DWIDTH 8 0
BBX 8 10 0 -2
BITMAP
781E
2408
2408
2408
2408
2408
1808
0AA0
0650
0490
ENDCHAR
STARTCHAR uni1E75
ENCODING 7797
SWIDTH 570 0
DWIDTH 6 0
BBX 6 8 0 -2
BITMAP
71D0
3090
3090
3090
30D0
2AA0
1940
1240
ENDCHAR
STARTCHAR uni1E76
ENCODING 7798
SWIDTH 752 0
DWIDTH 8 0
BBX 8 10 0 -2
BITMAP
781E
2408
2408
2408
2408
2408
1808
0AA0
0180
0150
ENDCHAR
STARTCHAR uni1E77
ENCODING 7799
SWIDTH 570 0
DWIDTH 6 0
BBX 6 8 0 -2
BITMAP
71D0
3090
3090
3090
30D0
2AA0
0A00
1540
ENDCHAR
STARTCHAR uni1E78
ENCODING 7800
SWIDTH 752 0
DWIDTH 8 0
BBX 8 12 0 0
BITMAP
0050
0180
02A0
0000
781E
2408
2408
2408
2408
2408
1808
0AA0
ENDCHAR
STARTCHAR uni1E79
ENCODING 7801
SWIDTH 570 0
DWIDTH 6 0
BBX 6 10 0 0
BITMAP
0300
0500
1940
1240
71D0
3090
3090
3090
30D0
2AA0
ENDCHAR
STARTCHAR uni1E7A
ENCODING 7802
SWIDTH 752 0
DWIDTH 8 0
BBX 8 11 0 0
BITMAP
0630
06A0
0000
781E
2408
2408
2408
2408
2408
1808
0AA0
ENDCHAR
STARTCHAR uni1E7B
ENCODING 7803
SWIDTH 570 0
DWIDTH 6 0
BBX 6 9 0 0
BITMAP
2580
1A80
0000
71D0
3090
3090
3090
30D0
2AA0
ENDCHAR
STARTCHAR uni1E7C
ENCODING 7804
SWIDTH 680 0
DWIDTH 7 0
BBX 8 10 0 0
BITMAP
0690
0000
B41D
3414
2820
1C20
0950
0680
0340
0240
ENDCHAR
STARTCHAR uni1E7D
ENCODING 7805
SWIDTH 481 0
DWIDTH 5 0
BBX 6 8 0 0
BITMAP
1940
1600
A1D0
6080
2140
1600
0900
0800
ENDCHAR
STARTCHAR uni1E7E
ENCODING 7806
SWIDTH 680 0
DWIDTH 7 0
BBX 8 10 0 -2
BITMAP
B41D
3414
2820
1C20
0950
0680
0340
0240
0000
0240
ENDCHAR
STARTCHAR uni1E7F
ENCODING 7807
SWIDTH 481 0
DWIDTH 5 0
BBX 6 8 0 -2
BITMAP
A1D0
6080
2140
1600
0900
0800
0000
0800
ENDCHAR
STARTCHAR Wgrave
ENCODING 7808
SWIDTH 944 0
DWIDTH 10 0
BBX 11 11 0 0
BITMAP
004000
006000
000000
B4B4B4
346050
283480
1C6880
0D9C40
0A4E00
034A00
020100
ENDCHAR
STARTCHAR wgrave
ENCODING 7809
SWIDTH 749 0
DWIDTH 8 0
BBX 8 8 0 0
BITMAP
0200
0040
A2C7
70C1
25D4
1964
0D34
0820
ENDCHAR
STARTCHAR Wacute
ENCODING 7810
SWIDTH 944 0
DWIDTH 10 0
BBX 11 11 0 0
BITMAP
001000
009000
000000
B4B4B4
346050
283480
1C6880
0D9C40
0A4E00
034A00
020100
ENDCHAR
STARTCHAR wacute
ENCODING 7811
SWIDTH 749 0
DWIDTH 8 0
BBX 8 8 0 0
BITMAP
00C0
0140
A2C7
70C1
25D4
1964
0D34
0820
ENDCHAR
STARTCHAR Wdieresis
ENCODING 7812
SWIDTH 944 0
DWIDTH 10 0
BBX 11 10 0 0
BITMAP
025800
000000
B4B4B4
346050
283480
1C6880
0D9C40
0A4E00
034A00
020100
ENDCHAR
STARTCHAR wdieresis
ENCODING 7813
SWIDTH 749 0
DWIDTH 8 0
BBX 8 8 0 0
BITMAP
0960
0000
A2C7
70C1
25D4
1964
0D34
0820
ENDCHAR
STARTCHAR uni1E86
ENCODING 7814
SWIDTH 944 0
DWIDTH 10 0
BBX 11 10 0 0
BITMAP
006000
000000
B4B4B4
346050
283480
1C6880
0D9C40
0A4E00
034A00
020100
ENDCHAR
STARTCHAR uni1E87
ENCODING 7815
SWIDTH 749 0
DWIDTH 8 0
BBX 8 8 0 0
BITMAP
0180
0000
A2C7
70C1
25D4
1964
0D34
0820
ENDCHAR
STARTCHAR uni1E88
ENCODING 7816
SWIDTH 944 0
DWIDTH 10 0
BBX 11 10 0 -2
BITMAP
B4B4B4
346050
283480
1C6880
0D9C40
0A4E00
034A00
020100
000000
006000
ENDCHAR
STARTCHAR uni1E89
ENCODING 7817
SWIDTH 749 0
DWIDTH 8 0
BBX 8 8 0 -2
BITMAP
A2C7
70C1
25D4
1964
0D34
0820
0000
0180
ENDCHAR
STARTCHAR uni1E8A
ENCODING 7818
SWIDTH 664 0
DWIDTH 7 0
BBX 7 10 0 0
BITMAP
0240
0000
7838
1C20
0980
0340
0680
08D0
2070
7078
ENDCHAR
STARTCHAR uni1E8B
ENCODING 7819
SWIDTH 479 0
DWIDTH 5 0
BBX 5 8 0 0
BITMAP
0900
0000
7580
2500
0D00
0A00
2340
A280
ENDCHAR
STARTCHAR uni1E8C
ENCODING 7820
SWIDTH 664 0
DWIDTH 7 0
BBX 7 10 0 0
BITMAP
0CA0
0000
7838
1C20
0980
0340
0680
08D0
2070
7078
ENDCHAR
STARTCHAR uni1E8D
ENCODING 7821
SWIDTH 479 0
DWIDTH 5 0
BBX 5 8 0 0
BITMAP
3240
0000
7580
2500
0D00
0A00
2340
A280
ENDCHAR
STARTCHAR uni1E8E
ENCODING 7822
SWIDTH 647 0
DWIDTH 7 0
BBX 7 10 0 0
BITMAP
0240
0000
B428
2820
0C50
0A80
0340
0300
0300
0780
ENDCHAR
STARTCHAR uni1E8F
ENCODING 7823
SWIDTH 483 0
DWIDTH 5 0
BBX 6 11 0 -3
BITMAP
0900
0000
A1D0
7040
2540
1900
0D00
0900
0800
0400
A000
ENDCHAR
STARTCHAR uni1E90
ENCODING 7824
SWIDTH 594 0
DWIDTH 7 0
BBX 6 11 0 0
BITMAP
0100
0980
0000
7AB0
5090
0180
0340
0A00
1C00
3410
BAB0
ENDCHAR
STARTCHAR uni1E91
ENCODING 7825
SWIDTH 458 0
DWIDTH 5 0
BBX 5 8 0 0
BITMAP
0D00
1200
6B40
4700
0900
1800
3040
BA80
ENDCHAR
STARTCHAR uni1E92
ENCODING 7826
SWIDTH 594 0
DWIDTH 7 0
BBX 6 10 0 -2
BITMAP
7AB0
5090
0180
0340
0A00
1C00
3410
BAB0
0000
0600
ENDCHAR
STARTCHAR uni1E93
ENCODING 7827
SWIDTH 458 0
DWIDTH 5 0
BBX 5 8 0 -2
BITMAP
6B40
4700
0900
1800
3040
BA80
0000
0C00
ENDCHAR
STARTCHAR uni1E94
ENCODING 7828
SWIDTH 594 0
DWIDTH 7 0
BBX 6 10 0 -2
BITMAP
7AB0
5090
0180
0340
0A00
1C00
3410
BAB0
0000
1A80
ENDCHAR
STARTCHAR uni1E95
ENCODING 7829
SWIDTH 458 0
DWIDTH 5 0
BBX 5 8 0 -2
BITMAP
6B40
4700
0900
1800
3040
BA80
0000
2A00
ENDCHAR
STARTCHAR uni1E96
ENCODING 7830
SWIDTH 577 0
DWIDTH 6 0
BBX 6 11 0 -2
BITMAP
7000
3000
3000
3680
3490
3090
3090
3090
74A0
0000
1A80
ENDCHAR
STARTCHAR uni1E97
ENCODING 7831
SWIDTH 315 0
DWIDTH 3 0
BBX 4 9 0 0
BITMAP
C9
10
20
78
30
30
30
30
28
ENDCHAR
STARTCHAR uni1E98
ENCODING 7832
SWIDTH 749 0
DWIDTH 8 0
BBX 8 9 0 0
BITMAP
0140
0250
0140
A2C7
70C1
25D4
1964
0D34
0820
ENDCHAR
STARTCHAR uni1E99
ENCODING 7833
SWIDTH 483 0
DWIDTH 5 0
BBX 6 12 0 -3
BITMAP
0900
1600
0900
A1D0
7040
2540
1900
0D00
0900
0800
0400
A000
ENDCHAR
STARTCHAR uni1E9A
ENCODING 7834
SWIDTH 480 0
DWIDTH 5 0
BBX 5 9 0 0
BITMAP
0800
0500
0800
2600
5240
0640
2240
9240
7A80
ENDCHAR
STARTCHAR uni1E9B
ENCODING 7835
SWIDTH 285 0
DWIDTH 3 0
BBX 4 10 0 0
BITMAP
34
1A
21
30
70
30
30
30
30
78
ENDCHAR
STARTCHAR uni1E9C
ENCODING 7836
SWIDTH 300 0
DWIDTH 3 0
BBX 4 9 0 0
BITMAP
0A
21
20
74
24
70
20
20
78
ENDCHAR
STARTCHAR uni1E9D
ENCODING 7837
SWIDTH 285 0
DWIDTH 3 0
BBX 4 9 0 0
BITMAP
1B
22
78
70
30
30
30
30
78
ENDCHAR
STARTCHAR uni1E9E
ENCODING 7838
SWIDTH 684 0
DWIDTH 8 0
BBX 7 8 0 0
BITMAP
0AA4
1834
24A0
24D0
2428
240C
250C
7654
ENDCHAR
STARTCHAR uni1E9F
ENCODING 7839
SWIDTH 517 0
DWIDTH 6 0
BBX 6 9 0 0
BITMAP
1A40
2080
2800
0A00
2180
60D0
9090
60C0
2A40
ENDCHAR
STARTCHAR uni1EA0
ENCODING 7840
SWIDTH 718 0
DWIDTH 8 0
BBX 8 10 0 -2
BITMAP
0240
0380
05C0
08A0
0870
19B4
2028
A02D
0000
0240
ENDCHAR
STARTCHAR uni1EA1
ENCODING 7841
SWIDTH 480 0
DWIDTH 5 0
BBX 5 8 0 -2
BITMAP
2600
5240
0640
2240
9240
7A80
0000
0C00
ENDCHAR
STARTCHAR uni1EA2
ENCODING 7842
SWIDTH 718 0
DWIDTH 8 0
BBX 8 11 0 0
BITMAP
0140
0080
0140
0240
0380
05C0
08A0
0870
19B4
2028
A02D
ENDCHAR
STARTCHAR uni1EA3
ENCODING 7843
SWIDTH 480 0
DWIDTH 5 0
BBX 5 9 0 0
BITMAP
0500
0200
0400
2600
5240
0640
2240
9240
7A80
ENDCHAR
STARTCHAR uni1EA4
ENCODING 7844
SWIDTH 718 0
DWIDTH 8 0
BBX 8 12 0 0
BITMAP
0004
0164
0540
0000
0240
0380
05C0
08A0
0870
19B4
2028
A02D
ENDCHAR
STARTCHAR uni1EA5
ENCODING 7845
SWIDTH 480 0
DWIDTH 5 0
BBX 5 9 0 0
BITMAP
0080
1900
1100
2600
5240
0640
2240
9240
7A80
ENDCHAR
STARTCHAR uni1EA6
ENCODING 7846
SWIDTH 718 0
DWIDTH 8 0
BBX 8 12 0 0
BITMAP
0040
0160
0550
0000
0240
0380
05C0
08A0
0870
19B4
2028
A02D
ENDCHAR
STARTCHAR uni1EA7
ENCODING 7847
SWIDTH 480 0
DWIDTH 5 0
BBX 5 9 0 0
BITMAP
0200
0D40
1100
2600
5240
0640
2240
9240
7A80
ENDCHAR
STARTCHAR uni1EA8
ENCODING 7848
SWIDTH 718 0
DWIDTH 8 0
BBX 8 12 0 0
BITMAP
0050
0014
0290
0450
0240
0380
05C0
08A0
0870
19B4
2028
A02D
ENDCHAR
STARTCHAR uni1EA9
ENCODING 7849
SWIDTH 480 0
DWIDTH 5 0
BBX 5 10 0 0
BITMAP
0140
0080
1D00
1100
2600
5240
0640
2240
9240
7A80
ENDCHAR
STARTCHAR uni1EAA
ENCODING 7850
SWIDTH 718 0
DWIDTH 8 0
BBX 8 12 0 0
BITMAP
0690
0240
0550
0000
0240
0380
05C0
08A0
0870
19B4
2028
A02D
ENDCHAR
STARTCHAR uni1EAB
ENCODING 7851
SWIDTH 480 0
DWIDTH 5 0
BBX 5 10 0 0
BITMAP
1400
1A00
0D00
2200
2600
5240
0640
2240
9240
7A80
ENDCHAR
STARTCHAR uni1EAC
ENCODING 7852
SWIDTH 718 0
DWIDTH 8 0
BBX 8 13 0 -2
BITMAP
0140
0580
0000
0240
0380
05C0
08A0
0870
19B4
2028
A02D
0000
0240
ENDCHAR
STARTCHAR uni1EAD
ENCODING 7853
SWIDTH 480 0
DWIDTH 5 0
BBX 5 10 0 -2
BITMAP
0D00
2200
2600
5240
0640
2240
9240
7A80
0000
0C00
ENDCHAR
STARTCHAR uni1EAE
ENCODING 7854
SWIDTH 718 0
DWIDTH 8 0
BBX 8 12 0 0
BITMAP
0080
0550
0680
0000
0240
0380
05C0
08A0
0870
19B4
2028
A02D
ENDCHAR
STARTCHAR uni1EAF
ENCODING 7855
SWIDTH 480 0
DWIDTH 5 0
BBX 5 9 0 0
BITMAP
0500
1500
1900
2600
5240
0640
2240
9240
7A80
ENDCHAR
STARTCHAR uni1EB0
ENCODING 7856
SWIDTH 718 0
DWIDTH 8 0
BBX 8 12 0 0
BITMAP
0100
0550
0680
0000
0240
0380
05C0
08A0
0870
19B4
2028
A02D
ENDCHAR
STARTCHAR uni1EB1
ENCODING 7857
SWIDTH 480 0
DWIDTH 5 0
BBX 5 9 0 0
BITMAP
1800
1500
1900
2600
5240
0640
2240
9240
7A80
ENDCHAR
STARTCHAR uni1EB2
ENCODING 7858
SWIDTH 718 0
DWIDTH 8 0
BBX 8 13 0 0
BITMAP
0140
0080
0550
0680
0000
0240
0380
05C0
08A0
0870
19B4
2028
A02D
ENDCHAR
STARTCHAR uni1EB3
ENCODING 7859
SWIDTH 480 0
DWIDTH 5 0
BBX 5 10 0 0
BITMAP
1500
0500
1500
1900
2600
5240
0640
2240
9240
7A80
ENDCHAR
STARTCHAR uni1EB4
ENCODING 7860
SWIDTH 718 0
DWIDTH 8 0
BBX 8 12 0 0
BITMAP
0690
0410
0680
0000
0240
0380
05C0
08A0
0870
19B4
2028
A02D
ENDCHAR
STARTCHAR uni1EB5
ENCODING 7861
SWIDTH 480 0
DWIDTH 5 0
BBX 5 10 0 0
BITMAP
2840
1600
1100
1900
2600
5240
0640
2240
9240
7A80
ENDCHAR
STARTCHAR uni1EB6
ENCODING 7862
SWIDTH 718 0
DWIDTH 8 0
BBX 8 13 0 -2
BITMAP
0410
0680
0000
0240
0380
05C0
08A0
0870
19B4
2028
A02D
0000
0240
ENDCHAR
STARTCHAR uni1EB7
ENCODING 7863
SWIDTH 480 0
DWIDTH 5 0
BBX 5 10 0 -2
BITMAP
1100
1900
2600
5240
0640
2240
9240
7A80
0000
0C00
ENDCHAR
STARTCHAR uni1EB8
ENCODING 7864
SWIDTH 626 0
DWIDTH 7 0
BBX 7 10 0 -2
BITMAP
7AB4
2400
2410
2990
2410
2404
2404
6AB4
0000
0300
ENDCHAR
STARTCHAR uni1EB9
ENCODING 7865
SWIDTH 464 0
DWIDTH 5 0
BBX 5 8 0 -2
BITMAP
2A00
5140
AA80
9000
6040
2E00
0000
0800
ENDCHAR
STARTCHAR uni1EBA
ENCODING 7866
SWIDTH 626 0
DWIDTH 7 0
BBX 7 11 0 0
BITMAP
0140
0080
0100
7AB4
2400
2410
2990
2410
2404
2404
6AB4
ENDCHAR
STARTCHAR uni1EBB
ENCODING 7867
SWIDTH 464 0
DWIDTH 5 0
BBX 5 9 0 0
BITMAP
0500
0200
0400
2A00
5140
AA80
9000
6040
2E00
ENDCHAR
STARTCHAR uni1EBC
ENCODING 7868
SWIDTH 626 0
DWIDTH 7 0
BBX 7 10 0 0
BITMAP
0A80
0000
7AB4
2400
2410
2990
2410
2404
2404
6AB4
ENDCHAR
STARTCHAR uni1EBD
ENCODING 7869
SWIDTH 464 0
DWIDTH 5 0
BBX 5 8 0 0
BITMAP
1940
1600
2A00
5140
AA80
9000
6040
2E00
ENDCHAR
STARTCHAR uni1EBE
ENCODING 7870
SWIDTH 626 0
DWIDTH 7 0
BBX 7 12 0 0
BITMAP
0014
0160
0480
0000
7AB4
2400
2410
2990
2410
2404
2404
6AB4
ENDCHAR
STARTCHAR uni1EBF
ENCODING 7871
SWIDTH 464 0
DWIDTH 5 0
BBX 5 9 0 0
BITMAP
0080
0A00
1100
2A00
5140
AA80
9000
6040
2E00
ENDCHAR
STARTCHAR uni1EC0
ENCODING 7872
SWIDTH 626 0
DWIDTH 7 0
BBX 7 12 0 0
BITMAP
0040
0260
0980
0000
7AB4
2400
2410
2990
2410
2404
2404
6AB4
ENDCHAR
STARTCHAR uni1EC1
ENCODING 7873
SWIDTH 464 0
DWIDTH 5 0
BBX 5 9 0 0
BITMAP
0200
0D40
1100
2A00
5140
AA80
9000
6040
2E00
ENDCHAR
STARTCHAR uni1EC2
ENCODING 7874
SWIDTH 626 0
DWIDTH 7 0
BBX 7 12 0 0
BITMAP
0050
0020
0690
0440
7AB4
2400
2410
2990
2410
2404
2404
6AB4
ENDCHAR
STARTCHAR uni1EC3
ENCODING 7875
SWIDTH 464 0
DWIDTH 5 0
BBX 5 10 0 0
BITMAP
0140
0080
0A40
1100
2A00
5140
AA80
9000
6040
2E00
ENDCHAR
STARTCHAR uni1EC4
ENCODING 7876
SWIDTH 626 0
DWIDTH 7 0
BBX 7 12 0 0
BITMAP
0A80
0200
0980
0000
7AB4
2400
2410
2990
2410
2404
2404
6AB4
ENDCHAR
STARTCHAR uni1EC5
ENCODING 7877
SWIDTH 464 0
DWIDTH 5 0
BBX 5 10 0 0
BITMAP
1400
1A00
0D00
1200
2A00
5140
AA80
9000
6040
2E00
ENDCHAR
STARTCHAR uni1EC6
ENCODING 7878
SWIDTH 626 0
DWIDTH 7 0
BBX 7 13 0 -2
BITMAP
0100
0980
0000
7AB4
2400
2410
2990
2410
2404
2404
6AB4
0000
0300
ENDCHAR
STARTCHAR uni1EC7
ENCODING 7879
SWIDTH 464 0
DWIDTH 5 0
BBX 5 10 0 -2
BITMAP
0D00
1200
2A00
5140
AA80
9000
6040
2E00
0000
0800
ENDCHAR
STARTCHAR uni1EC8
ENCODING 7880
SWIDTH 357 0
DWIDTH 4 0
BBX 4 11 0 0
BITMAP
14
08
14
79
24
24
24
24
24
24
79
ENDCHAR
STARTCHAR uni1EC9
ENCODING 7881
SWIDTH 285 0
DWIDTH 3 0
BBX 3 9 0 0
BITMAP
50
14
10
70
30
30
30
30
74
ENDCHAR
STARTCHAR uni1ECA
ENCODING 7882
SWIDTH 357 0
DWIDTH 4 0
BBX 4 10 0 -2
BITMAP
79
24
24
24
24
24
24
79
00
14
ENDCHAR
STARTCHAR uni1ECB
ENCODING 7883
SWIDTH 285 0
DWIDTH 3 0
BBX 3 10 0 -2
BITMAP
30
10
70
30
30
30
30
74
00
30
ENDCHAR
STARTCHAR uni1ECC
ENCODING 7884
SWIDTH 738 0
DWIDTH 8 0
BBX 8 10 0 -2
BITMAP
0AA0
241C
7009
600A
600A
7009
2418
0AA0
0000
0180
ENDCHAR
STARTCHAR uni1ECD
ENCODING 7885
SWIDTH 514 0
DWIDTH 6 0
BBX 6 8 0 -2
BITMAP
2640
60C0
9090
9090
60C0
2640
0000
0900
ENDCHAR
STARTCHAR uni1ECE
ENCODING 7886
SWIDTH 738 0
DWIDTH 8 0
BBX 8 11 0 0
BITMAP
0140
0080
0040
0AA0
241C
7009
600A
600A
7009
2418
0AA0
ENDCHAR
STARTCHAR uni1ECF
ENCODING 7887
SWIDTH 514 0
DWIDTH 6 0
BBX 6 9 0 0
BITMAP
0500
0200
0500
2640
60C0
9090
9090
60C0
2640
ENDCHAR
STARTCHAR uni1ED0
ENCODING 7888
SWIDTH 738 0
DWIDTH 8 0
BBX 8 12 0 0
BITMAP
0004
0154
0550
0000
0AA0
241C
7009
600A
600A
7009
2418
0AA0
ENDCHAR
STARTCHAR uni1ED1
ENCODING 7889
SWIDTH 514 0
DWIDTH 6 0
BBX 6 9 0 0
BITMAP
0090
0A40
1000
2640
60C0
9090
9090
60C0
2640
ENDCHAR
STARTCHAR uni1ED2
ENCODING 7890
SWIDTH 738 0
DWIDTH 8 0
BBX 8 12 0 0
BITMAP
0010
0164
0550
0000
0AA0
241C
7009
600A
600A
7009
2418
0AA0
ENDCHAR
STARTCHAR uni1ED3
ENCODING 7891
SWIDTH 514 0
DWIDTH 6 0
BBX 6 9 0 0
BITMAP
0240
0A40
1500
2640
60C0
9090
9090
60C0
2640
ENDCHAR
STARTCHAR uni1ED4
ENCODING 7892
SWIDTH 738 0
DWIDTH 8 0
BBX 8 12 0 0
BITMAP
0014
0014
0290
0510
0AA0
241C
7009
600A
600A
7009
2418
0AA0
ENDCHAR
STARTCHAR uni1ED5
ENCODING 7893
SWIDTH 514 0
DWIDTH 6 0
BBX 6 10 0 0
BITMAP
0140
0050
0A40
1100
2640
60C0
9090
9090
60C0
2640
ENDCHAR
STARTCHAR uni1ED6
ENCODING 7894
SWIDTH 738 0
DWIDTH 8 0
BBX 8 12 0 0
BITMAP
0690
0180
0550
0000
0AA0
241C
7009
600A
600A
7009
2418
0AA0
ENDCHAR
STARTCHAR uni1ED7
ENCODING 7895
SWIDTH 514 0
DWIDTH 6 0
BBX 6 10 0 0
BITMAP
0400
1640
0A00
1500
2640
60C0
9090
9090
60C0
2640
ENDCHAR
STARTCHAR uni1ED8
ENCODING 7896
SWIDTH 738 0
DWIDTH 8 0
BBX 8 13 0 -2
BITMAP
0140
0650
0000
0AA0
241C
7009
600A
600A
7009
2418
0AA0
0000
0180
ENDCHAR
STARTCHAR uni1ED9
ENCODING 7897
SWIDTH 514 0
DWIDTH 6 0
BBX 6 10 0 -2
BITMAP
0A00
1500
2640
60C0
9090
9090
60C0
2640
0000
0900
ENDCHAR
STARTCHAR uni1EDA
ENCODING 7898
SWIDTH 737 0
DWIDTH 8 0
BBX 8 11 0 0
BITMAP
0040
0246
0002
0AB8
241C
7009
600A
6009
7009
2418
0AA0
ENDCHAR
STARTCHAR uni1EDB
ENCODING 7899
SWIDTH 516 0
DWIDTH 6 0
BBX 6 8 0 0
BITMAP
0250
0450
2680
60C0
9090
9090
60C0
2640
ENDCHAR
STARTCHAR uni1EDC
ENCODING 7900
SWIDTH 737 0
DWIDTH 8 0
BBX 8 11 0 0
BITMAP
0100
0186
0002
0AB8
241C
7009
600A
6009
7009
2418
0AA0
ENDCHAR
STARTCHAR uni1EDD
ENCODING 7901
SWIDTH 516 0
DWIDTH 6 0
BBX 6 8 0 0
BITMAP
0C50
0550
2680
60C0
9090
9090
60C0
2640
ENDCHAR
STARTCHAR uni1EDE
ENCODING 7902
SWIDTH 737 0
DWIDTH 8 0
BBX 8 11 0 0
BITMAP
0140
0086
0042
0AB8
241C
7009
600A
6009
7009
2418
0AA0
ENDCHAR
STARTCHAR uni1EDF
ENCODING 7903
SWIDTH 516 0
DWIDTH 6 0
BBX 6 9 0 0
BITMAP
0500
0250
0550
2680
60C0
9090
9090
60C0
2640
ENDCHAR
STARTCHAR uni1EE0
ENCODING 7904
SWIDTH 737 0
DWIDTH 8 0
BBX 8 10 0 0
BITMAP
0696
0002
0AB8
241C
7009
600A
6009
7009
2418
0AA0
ENDCHAR
STARTCHAR uni1EE1
ENCODING 7905
SWIDTH 516 0
DWIDTH 6 0
BBX 6 8 0 0
BITMAP
1A90
0050
2680
60C0
9090
9090
60C0
2640
ENDCHAR
STARTCHAR uni1EE2
ENCODING 7906
SWIDTH 737 0
DWIDTH 8 0
BBX 8 12 0 -2
BITMAP
0006
0002
0AB8
241C
7009
600A
6009
7009
2418
0AA0
0000
0180
ENDCHAR
STARTCHAR uni1EE3
ENCODING 7907
SWIDTH 516 0
DWIDTH 6 0
BBX 6 10 0 -2
BITMAP
0050
0050
2680
60C0
9090
9090
60C0
2640
0000
0900
ENDCHAR
STARTCHAR uni1EE4
ENCODING 7908
SWIDTH 752 0
DWIDTH 8 0
BBX 8 10 0 -2
BITMAP
781E
2408
2408
2408
2408
2408
1808
0AA0
0000
0180
ENDCHAR
STARTCHAR uni1EE5
ENCODING 7909
SWIDTH 570 0
DWIDTH 6 0
BBX 6 8 0 -2
BITMAP
71D0
3090
3090
3090
30D0
2AA0
0000
0600
ENDCHAR
STARTCHAR uni1EE6
ENCODING 7910
SWIDTH 752 0
DWIDTH 8 0
BBX 8 11 0 0
BITMAP
0140
0050
0040
781E
2408
2408
2408
2408
2408
1808
0AA0
ENDCHAR
STARTCHAR uni1EE7
ENCODING 7911
SWIDTH 570 0
DWIDTH 6 0
BBX 6 9 0 0
BITMAP
0500
0200
0100
71D0
3090
3090
3090
30D0
2AA0
ENDCHAR
STARTCHAR uni1EE8
ENCODING 7912
SWIDTH 762 0
DWIDTH 8 0
BBX 9 11 0 0
BITMAP
005040
0180C0
000040
781D00
240800
240800
240800
240800
240800
180800
0AA000
ENDCHAR
STARTCHAR uni1EE9
ENCODING 7913
SWIDTH 574 0
DWIDTH 6 0
BBX 7 8 0 0
BITMAP
0324
0514
71D0
3090
3090
3090
30D0
2AA0
ENDCHAR
STARTCHAR uni1EEA
ENCODING 7914
SWIDTH 762 0
DWIDTH 8 0
BBX 9 11 0 0
BITMAP
014040
0080C0
000040
781D00
240800
240800
240800
240800
240800
180800
0AA000
ENDCHAR
STARTCHAR uni1EEB
ENCODING 7915
SWIDTH 574 0
DWIDTH 6 0
BBX 7 8 0 0
BITMAP
0C24
0514
71D0
3090
3090
3090
30D0
2AA0
ENDCHAR
STARTCHAR uni1EEC
ENCODING 7916
SWIDTH 762 0
DWIDTH 8 0
BBX 9 11 0 0
BITMAP
014040
0050C0
004040
781D00
240800
240800
240800
240800
240800
180800
0AA000
ENDCHAR
STARTCHAR uni1EED
ENCODING 7917
SWIDTH 574 0
DWIDTH 6 0
BBX 7 9 0 0
BITMAP
0500
0224
0514
71D0
3090
3090
3090
30D0
2AA0
ENDCHAR
STARTCHAR uni1EEE
ENCODING 7918
SWIDTH 762 0
DWIDTH 8 0
BBX 9 11 0 0
BITMAP
000040
02A0C0
000040
781D00
240800
240800
240800
240800
240800
180800
0AA000
ENDCHAR
STARTCHAR uni1EEF
ENCODING 7919
SWIDTH 574 0
DWIDTH 6 0
BBX 7 8 0 0
BITMAP
1964
1254
71D0
3090
3090
3090
30D0
2AA0
ENDCHAR
STARTCHAR uni1EF0
ENCODING 7920
SWIDTH 762 0
DWIDTH 8 0
BBX 9 13 0 -2
BITMAP
000040
0000C0
000040
781D00
240800
240800
240800
240800
240800
180800
0AA000
000000
018000
ENDCHAR
STARTCHAR uni1EF1
ENCODING 7921
SWIDTH 574 0
DWIDTH 6 0
BBX 7 10 0 -2
BITMAP
0024
0014
71D0
3090
3090
3090
30D0
2AA0
0000
0900
ENDCHAR
STARTCHAR Ygrave
ENCODING 7922
SWIDTH 647 0
DWIDTH 7 0
BBX 7 11 0 0
BITMAP
0500
0140
0000
B428
2820
0C50
0A80
0340
0300
0300
0780
ENDCHAR
STARTCHAR ygrave
ENCODING 7923
SWIDTH 483 0
DWIDTH 5 0
BBX 6 11 0 -3
BITMAP
0C00
0500
A1D0
7040
2540
1900
0D00
0900
0800
0400
A000
ENDCHAR
STARTCHAR uni1EF4
ENCODING 7924
SWIDTH 647 0
DWIDTH 7 0
BBX 7 10 0 -2
BITMAP
B428
2820
0C50
0A80
0340
0300
0300
0780
0000
0300
ENDCHAR
STARTCHAR uni1EF5
ENCODING 7925
SWIDTH 483 0
DWIDTH 5 0
BBX 6 9 0 -3
BITMAP
A1D0
7040
2540
1900
0D00
0900
0800
0640
A000
ENDCHAR
STARTCHAR uni1EF6
ENCODING 7926
SWIDTH 647 0
DWIDTH 7 0
BBX 7 11 0 0
BITMAP
0140
0080
0100
B428
2820
0C50
0A80
0340
0300
0300
0780
ENDCHAR
STARTCHAR uni1EF7
ENCODING 7927
SWIDTH 483 0
DWIDTH 5 0
BBX 6 12 0 -3
BITMAP
0500
0200
0500
A1D0
7040
2540
1900
0D00
0900
0800
0400
A000
ENDCHAR
STARTCHAR uni1EF8
ENCODING 7928
SWIDTH 647 0
DWIDTH 7 0
BBX 7 10 0 0
BITMAP
0690
0000
B428
2820
0C50
0A80
0340
0300
0300
0780
ENDCHAR
STARTCHAR uni1EF9
ENCODING 7929
SWIDTH 483 0
DWIDTH 5 0
BBX 6 11 0 -3
BITMAP
1940
1640
A1D0
7040
2540
1900
0D00
0900
0800
0400
A000
ENDCHAR
STARTCHAR uni2000
ENCODING 8192
SWIDTH 500 0
DWIDTH 6 0
BBX 1 1 0 0
BITMAP
00
ENDCHAR
STARTCHAR uni2001
ENCODING 8193
SWIDTH 1000 0
DWIDTH 11 0
BBX 1 1 0 0
BITMAP
00
ENDCHAR
STARTCHAR uni2002
ENCODING 8194
SWIDTH 500 0
DWIDTH 6 0
BBX 1 1 0 0
BITMAP
00
ENDCHAR
STARTCHAR uni2003
ENCODING 8195
SWIDTH 1000 0
DWIDTH 11 0
BBX 1 1 0 0
BITMAP
00
ENDCHAR
STARTCHAR uni2004
ENCODING 8196
SWIDTH 334 0
DWIDTH 4 0
BBX 1 1 0 0
BITMAP
00
ENDCHAR
STARTCHAR uni2005
ENCODING 8197
SWIDTH 250 0
DWIDTH 3 0
BBX 1 1 0 0
BITMAP
00
ENDCHAR
STARTCHAR uni2006
ENCODING 8198
SWIDTH 167 0
DWIDTH 2 0
BBX 1 1 0 0
BITMAP
00
ENDCHAR
STARTCHAR uni2007
ENCODING 8199
SWIDTH 560 0
DWIDTH 6 0
BBX 1 1 0 0
BITMAP
00
ENDCHAR
STARTCHAR uni2008
ENCODING 8200
SWIDTH 297 0
DWIDTH 3 0
BBX 1 1 0 0
BITMAP
00
ENDCHAR
STARTCHAR uni2009
ENCODING 8201
SWIDTH 125 0
DWIDTH 1 0
BBX 1 1 0 0
BITMAP
00
ENDCHAR
STARTCHAR uni200A
ENCODING 8202
SWIDTH 63 0
DWIDTH 1 0
BBX 1 1 0 0
BITMAP
00
ENDCHAR
STARTCHAR uni200B
ENCODING 8203
SWIDTH 0 0
DWIDTH 0 0
BBX 1 1 0 0
BITMAP
00
ENDCHAR
STARTCHAR uni200C
ENCODING 8204
SWIDTH 0 0
DWIDTH 0 0
BBX 1 1 0 -3
BITMAP
00
ENDCHAR
STARTCHAR uni200D
ENCODING 8205
SWIDTH 0 0
DWIDTH 0 0
BBX 2 3 -1 8
BITMAP
50
50
50
ENDCHAR
STARTCHAR uni2010
ENCODING 8208
SWIDTH 315 0
DWIDTH 3 0
BBX 3 1 0 3
BITMAP
68
ENDCHAR
STARTCHAR uni2011
ENCODING 8209
SWIDTH 315 0
DWIDTH 3 0
BBX 3 1 0 3
BITMAP
68
ENDCHAR
STARTCHAR figuredash
ENCODING 8210
SWIDTH 495 0
DWIDTH 5 0
BBX 5 1 0 3
BITMAP
6A80
ENDCHAR
STARTCHAR endash
ENCODING 8211
SWIDTH 500 0
DWIDTH 6 0
BBX 5 1 0 3
BITMAP
6A80
ENDCHAR
STARTCHAR emdash
ENCODING 8212
SWIDTH 1000 0
DWIDTH 11 0
BBX 11 1 0 3
BITMAP
6AAAA4
ENDCHAR
STARTCHAR uni2015
ENCODING 8213
SWIDTH 940 0
DWIDTH 10 0
BBX 11 1 0 3
BITMAP
AAAAA4
ENDCHAR
STARTCHAR uni2016
ENCODING 8214
SWIDTH 427 0
DWIDTH 5 0
BBX 3 12 1 -3
BITMAP
88
88
88
88
88
88
88
88
88
88
88
88
ENDCHAR
STARTCHAR underscoredbl
ENCODING 8215
SWIDTH 512 0
DWIDTH 6 0
BBX 6 2 0 -3
BITMAP
AA90
AA90
ENDCHAR
STARTCHAR quoteleft
ENCODING 8216
SWIDTH 245 0
DWIDTH 3 0
BBX 2 4 0 5
BITMAP
10
50
70
10
ENDCHAR
STARTCHAR quoteright
ENCODING 8217
SWIDTH 245 0
DWIDTH 3 0
BBX 2 3 0 6
BITMAP
60
20
10
ENDCHAR
STARTCHAR quotesinglbase
ENCODING 8218
SWIDTH 243 0
DWIDTH 3 0
BBX 2 3 0 -1
BITMAP
10
70
20
ENDCHAR
STARTCHAR quotereversed
ENCODING 8219
SWIDTH 243 0
DWIDTH 3 0
BBX 2 3 0 6
BITMAP
70
60
10
ENDCHAR
STARTCHAR quotedblleft
ENCODING 8220
SWIDTH 435 0
DWIDTH 5 0
BBX 5 4 0 5
BITMAP
1100
5100
7740
1100
ENDCHAR
STARTCHAR quotedblright
ENCODING 8221
SWIDTH 434 0
DWIDTH 5 0
BBX 4 3 0 6
BITMAP
67
22
11
ENDCHAR
STARTCHAR quotedblbase
ENCODING 8222
SWIDTH 433 0
DWIDTH 5 0
BBX 4 4 0 -2
BITMAP
11
77
22
01
ENDCHAR
STARTCHAR uni201F
ENCODING 8223
SWIDTH 434 0
DWIDTH 5 0
BBX 4 3 0 6
BITMAP
77
66
11
ENDCHAR
STARTCHAR dagger
ENCODING 8224
SWIDTH 512 0
DWIDTH 6 0
BBX 5 11 0 -2
BITMAP
0900
0400
0400
7AC0
0400
0900
0900
0400
0400
0400
0400
ENDCHAR
STARTCHAR daggerdbl
ENCODING 8225
SWIDTH 512 0
DWIDTH 6 0
BBX 5 11 0 -2
BITMAP
0900
0400
0400
7AC0
0400
0900
0400
6A80
0400
0900
0400
ENDCHAR
STARTCHAR bullet
ENCODING 8226
SWIDTH 457 0
DWIDTH 5 0
BBX 3 3 1 2
BITMAP
B8
B8
74
ENDCHAR
STARTCHAR twodotenleader
ENCODING 8229
SWIDTH 500 0
DWIDTH 6 0
BBX 5 2 0 0
BITMAP
1040
60C0
ENDCHAR
STARTCHAR ellipsis
ENCODING 8230
SWIDTH 887 0
DWIDTH 10 0
BBX 8 2 1 0
BITMAP
4105
924A
ENDCHAR
STARTCHAR uni202F
ENCODING 8239
SWIDTH 125 0
DWIDTH 1 0
BBX 1 1 0 0
BITMAP
00
ENDCHAR
STARTCHAR perthousand
ENCODING 8240
SWIDTH 1017 0
DWIDTH 11 0
BBX 11 8 0 0
BITMAP
266400
516000
558000
254000
021454
058484
088544
149490
ENDCHAR
STARTCHAR uni2031
ENCODING 8241
SWIDTH 1342 0
DWIDTH 15 0
BBX 15 8 0 0
BITMAP
26640000
51600000
55800000
25400000
02145450
05848544
08854610
14949150
ENDCHAR
STARTCHAR minute
ENCODING 8242
SWIDTH 296 0
DWIDTH 3 0
BBX 2 4 1 5
BITMAP
50
80
80
40
ENDCHAR
STARTCHAR second
ENCODING 8243
SWIDTH 436 0
DWIDTH 5 0
BBX 3 4 1 5
BITMAP
58
98
94
50
ENDCHAR
STARTCHAR uni2034
ENCODING 8244
SWIDTH 576 0
DWIDTH 6 0
BBX 5 4 1 5
BITMAP
5940
9A40
9600
5100
ENDCHAR
STARTCHAR uni2035
ENCODING 8245
SWIDTH 296 0
DWIDTH 3 0
BBX 3 4 0 5
BITMAP
60
20
14
04
ENDCHAR
STARTCHAR uni2036
ENCODING 8246
SWIDTH 436 0
DWIDTH 5 0
BBX 4 4 0 5
BITMAP
69
36
16
05
ENDCHAR
STARTCHAR uni2037
ENCODING 8247
SWIDTH 576 0
DWIDTH 6 0
BBX 6 4 0 5
BITMAP
6980
3680
1650
0510
ENDCHAR
STARTCHAR uni2038
ENCODING 8248
SWIDTH 523 0
DWIDTH 6 0
BBX 4 3 1 -2
BITMAP
24
58
42
ENDCHAR
STARTCHAR guilsinglleft
ENCODING 8249
SWIDTH 307 0
DWIDTH 3 0
BBX 3 5 0 0
BITMAP
04
20
50
24
04
ENDCHAR
STARTCHAR guilsinglright
ENCODING 8250
SWIDTH 307 0
DWIDTH 3 0
BBX 3 5 0 0
BITMAP
50
24
0C
20
40
ENDCHAR
STARTCHAR uni203B
ENCODING 8251
SWIDTH 701 0
DWIDTH 8 0
BBX 6 7 1 0
BITMAP
8920
6080
1640
CA60
5640
6580
8920
ENDCHAR
STARTCHAR exclamdbl
ENCODING 8252
SWIDTH 565 0
DWIDTH 6 0
BBX 5 8 1 0
BITMAP
C200
C340
C200
8200
8200
4100
4100
C340
ENDCHAR
STARTCHAR uni203E
ENCODING 8254
SWIDTH 512 0
DWIDTH 6 0
BBX 6 1 0 10
BITMAP
AA90
ENDCHAR
STARTCHAR uni2040
ENCODING 8256
SWIDTH 810 0
DWIDTH 9 0
BBX 7 2 1 7
BITMAP
1A90
5014
ENDCHAR
STARTCHAR uni2043
ENCODING 8259
SWIDTH 352 0
DWIDTH 4 0
BBX 4 2 0 2
BITMAP
7D
7D
ENDCHAR
STARTCHAR fraction
ENCODING 8260
SWIDTH 205 0
DWIDTH 2 0
BBX 6 9 -2 0
BITMAP
0010
0080
0040
0200
0100
0800
1400
2000
5000
ENDCHAR
STARTCHAR uni2047
ENCODING 8263
SWIDTH 822 0
DWIDTH 9 0
BBX 9 8 0 0
BITMAP
6A2A40
926180
431180
060200
080500
040400
040400
180900
ENDCHAR
STARTCHAR uni204B
ENCODING 8267
SWIDTH 605 0
DWIDTH 7 0
BBX 5 10 1 -2
BITMAP
AE40
58C0
58C0
58C0
5940
5800
5800
5800
5800
9D00
ENDCHAR
STARTCHAR uni204C
ENCODING 8268
SWIDTH 479 0
DWIDTH 5 0
BBX 4 4 1 1
BITMAP
65
E4
E4
65
ENDCHAR
STARTCHAR uni204D
ENCODING 8269
SWIDTH 479 0
DWIDTH 5 0
BBX 4 4 1 1
BITMAP
58
5D
5D
54
ENDCHAR
STARTCHAR uni204E
ENCODING 8270
SWIDTH 410 0
DWIDTH 5 0
BBX 4 5 0 -2
BITMAP
04
5A
29
5A
08
ENDCHAR
STARTCHAR uni204F
ENCODING 8271
SWIDTH 245 0
DWIDTH 3 0
BBX 2 8 0 -2
BITMAP
60
10
00
00
10
70
50
10
ENDCHAR
STARTCHAR uni2050
ENCODING 8272
SWIDTH 809 0
DWIDTH 9 0
BBX 7 9 1 0
BITMAP
1A90
9018
4008
0000
0000
0000
4008
9018
2A90
ENDCHAR
STARTCHAR uni2051
ENCODING 8273
SWIDTH 410 0
DWIDTH 5 0
BBX 4 10 0 -1
BITMAP
08
5A
29
5A
04
04
5A
29
5A
08
ENDCHAR
STARTCHAR uni2052
ENCODING 8274
SWIDTH 482 0
DWIDTH 5 0
BBX 5 12 0 -3
BITMAP
2180
1140
0200
0200
0500
0900
0800
0800
1400
2000
2240
6000
ENDCHAR
STARTCHAR uni2057
ENCODING 8279
SWIDTH 727 0
DWIDTH 8 0
BBX 7 4 1 5
BITMAP
5964
9A70
9650
5140
ENDCHAR
STARTCHAR uni205F
ENCODING 8287
SWIDTH 222 0
DWIDTH 2 0
BBX 1 1 0 0
BITMAP
00
ENDCHAR
STARTCHAR uni2061
ENCODING 8289
SWIDTH 0 0
DWIDTH 0 0
BBX 1 1 0 0
BITMAP
00
ENDCHAR
STARTCHAR uni2062
ENCODING 8290
SWIDTH 0 0
DWIDTH 0 0
BBX 1 1 0 0
BITMAP
00
ENDCHAR
STARTCHAR uni2063
ENCODING 8291
SWIDTH 0 0
DWIDTH 0 0
BBX 1 1 0 0
BITMAP
00
ENDCHAR
STARTCHAR uni2064
ENCODING 8292
SWIDTH 0 0
DWIDTH 0 0
BBX 1 1 0 0
BITMAP
00
ENDCHAR
STARTCHAR zerosuperior
ENCODING 8304
SWIDTH 412 0
DWIDTH 5 0
BBX 5 5 0 3
BITMAP
2500
9200
9240
9200
2500
ENDCHAR
STARTCHAR uni2071
ENCODING 8305
SWIDTH 245 0
DWIDTH 3 0
BBX 2 6 0 3
BITMAP
20
00
60
20
20
70
ENDCHAR
STARTCHAR foursuperior
ENCODING 8308
SWIDTH 403 0
DWIDTH 4 0
BBX 5 5 0 3
BITMAP
0900
1900
5500
AA40
0500
ENDCHAR
STARTCHAR fivesuperior
ENCODING 8309
SWIDTH 358 0
DWIDTH 4 0
BBX 4 5 0 3
BITMAP
29
68
05
01
54
ENDCHAR
STARTCHAR sixsuperior
ENCODING 8310
SWIDTH 390 0
DWIDTH 4 0
BBX 4 5 0 3
BITMAP
14
69
92
92
25
ENDCHAR
STARTCHAR sevensuperior
ENCODING 8311
SWIDTH 364 0
DWIDTH 4 0
BBX 4 5 0 3
BITMAP
6A
05
08
08
20
ENDCHAR
STARTCHAR eightsuperior
ENCODING 8312
SWIDTH 374 0
DWIDTH 4 0
BBX 4 5 0 3
BITMAP
55
55
28
82
55
ENDCHAR
STARTCHAR ninesuperior
ENCODING 8313
SWIDTH 390 0
DWIDTH 4 0
BBX 4 5 0 3
BITMAP
65
82
67
06
18
ENDCHAR
STARTCHAR uni207A
ENCODING 8314
SWIDTH 536 0
DWIDTH 6 0
BBX 6 5 0 3
BITMAP
0400
0500
6A90
0500
0500
ENDCHAR
STARTCHAR uni207B
ENCODING 8315
SWIDTH 536 0
DWIDTH 6 0
BBX 6 1 0 5
BITMAP
6A90
ENDCHAR
STARTCHAR uni207C
ENCODING 8316
SWIDTH 534 0
DWIDTH 6 0
BBX 6 3 0 4
BITMAP
6A90
0000
6A90
ENDCHAR
STARTCHAR parenleftsuperior
ENCODING 8317
SWIDTH 268 0
DWIDTH 3 0
BBX 3 8 0 1
BITMAP
14
10
80
80
80
50
20
04
ENDCHAR
STARTCHAR parenrightsuperior
ENCODING 8318
SWIDTH 268 0
DWIDTH 3 0
BBX 3 8 0 1
BITMAP
50
20
18
08
08
14
20
40
ENDCHAR
STARTCHAR nsuperior
ENCODING 8319
SWIDTH 491 0
DWIDTH 5 0
BBX 5 4 0 3
BITMAP
6640
2140
2140
7280
ENDCHAR
STARTCHAR zeroinferior
ENCODING 8320
SWIDTH 412 0
DWIDTH 5 0
BBX 5 5 0 -2
BITMAP
2500
9200
9240
9200
2500
ENDCHAR
STARTCHAR oneinferior
ENCODING 8321
SWIDTH 333 0
DWIDTH 4 0
BBX 3 5 0 -2
BITMAP
64
14
14
14
28
ENDCHAR
STARTCHAR twoinferior
ENCODING 8322
SWIDTH 373 0
DWIDTH 4 0
BBX 4 5 0 -2
BITMAP
69
06
08
10
AA
ENDCHAR
STARTCHAR threeinferior
ENCODING 8323
SWIDTH 374 0
DWIDTH 4 0
BBX 4 5 0 -2
BITMAP
68
09
19
06
55
ENDCHAR
STARTCHAR fourinferior
ENCODING 8324
SWIDTH 403 0
DWIDTH 4 0
BBX 5 5 0 -2
BITMAP
0900
1900
5500
AA40
0500
ENDCHAR
STARTCHAR fiveinferior
ENCODING 8325
SWIDTH 358 0
DWIDTH 4 0
BBX 4 5 0 -2
BITMAP
29
68
05
01
54
ENDCHAR
STARTCHAR sixinferior
ENCODING 8326
SWIDTH 390 0
DWIDTH 4 0
BBX 4 5 0 -2
BITMAP
14
69
92
92
25
ENDCHAR
STARTCHAR seveninferior
ENCODING 8327
SWIDTH 364 0
DWIDTH 4 0
BBX 4 5 0 -2
BITMAP
6A
05
08
08
20
ENDCHAR
STARTCHAR eightinferior
ENCODING 8328
SWIDTH 374 0
DWIDTH 4 0
BBX 4 5 0 -2
BITMAP
55
55
28
82
55
ENDCHAR
STARTCHAR nineinferior
ENCODING 8329
SWIDTH 390 0
DWIDTH 4 0
BBX 4 5 0 -2
BITMAP
65
82
67
06
18
ENDCHAR
STARTCHAR uni208A
ENCODING 8330
SWIDTH 536 0
DWIDTH 6 0
BBX 6 5 0 -2
BITMAP
0400
0500
6A90
0500
0500
ENDCHAR
STARTCHAR uni208B
ENCODING 8331
SWIDTH 536 0
DWIDTH 6 0
BBX 6 1 0 0
BITMAP
6A90
ENDCHAR
STARTCHAR uni208C
ENCODING 8332
SWIDTH 534 0
DWIDTH 6 0
BBX 6 3 0 -1
BITMAP
6A90
0000
6A90
ENDCHAR
STARTCHAR parenleftinferior
ENCODING 8333
SWIDTH 268 0
DWIDTH 3 0
BBX 3 8 0 -4
BITMAP
14
10
80
80
80
50
20
04
ENDCHAR
STARTCHAR parenrightinferior
ENCODING 8334
SWIDTH 268 0
DWIDTH 3 0
BBX 3 8 0 -4
BITMAP
50
20
18
08
08
14
20
40
ENDCHAR
STARTCHAR uni20A3
ENCODING 8355
SWIDTH 495 0
DWIDTH 5 0
BBX 6 8 0 0
BITMAP
6A80
2450
2400
7A00
7A00
2400
2400
7800
ENDCHAR
STARTCHAR uni20A4
ENCODING 8356
SWIDTH 495 0
DWIDTH 5 0
BBX 5 8 0 0
BITMAP
0680
1480
1400
6A00
6A00
1800
6840
5B80
ENDCHAR
STARTCHAR uni20A7
ENCODING 8359
SWIDTH 1193 0
DWIDTH 13 0
BBX 13 8 0 0
BITMAP
69400000
24A20000
246A5A40
24962440
29461D00
24060780
24061080
79036540
ENDCHAR
STARTCHAR uni20AB
ENCODING 8363
SWIDTH 495 0
DWIDTH 5 0
BBX 5 8 0 0
BITMAP
0240
0A80
2A40
5240
9240
6240
2A80
2A40
ENDCHAR
STARTCHAR Euro
ENCODING 8364
SWIDTH 495 0
DWIDTH 5 0
BBX 6 8 0 0
BITMAP
0990
2040
3000
BA00
B500
3000
2440
1A40
ENDCHAR
STARTCHAR uni20B9
ENCODING 8377
SWIDTH 495 0
DWIDTH 5 0
BBX 5 8 0 0
BITMAP
5A40
0300
5740
0200
6800
0900
0300
0180
ENDCHAR
STARTCHAR uni20BA
ENCODING 8378
SWIDTH 495 0
DWIDTH 5 0
BBX 6 8 0 0
BITMAP
6800
3400
2500
7800
7900
7090
30C0
7A40
ENDCHAR
STARTCHAR uni20BD
ENCODING 8381
SWIDTH 495 0
DWIDTH 5 0
BBX 5 8 0 0
BITMAP
6A40
24C0
24C0
24C0
7A00
7A00
2400
7800
ENDCHAR
STARTCHAR uni20D0
ENCODING 8400
SWIDTH 0 0
DWIDTH 0 0
BBX 5 2 -5 7
BITMAP
1000
AA40
ENDCHAR
STARTCHAR uni20D1
ENCODING 8401
SWIDTH 0 0
DWIDTH 0 0
BBX 5 2 -5 7
BITMAP
0100
6A80
ENDCHAR
STARTCHAR uni20D2
ENCODING 8402
SWIDTH 0 0
DWIDTH 0 0
BBX 1 11 -3 -2
BITMAP
80
80
80
80
80
80
80
80
80
80
40
ENDCHAR
STARTCHAR uni20D3
ENCODING 8403
SWIDTH 0 0
DWIDTH 0 0
BBX 1 8 -3 -2
BITMAP
40
80
80
80
80
80
80
80
ENDCHAR
STARTCHAR uni20D4
ENCODING 8404
SWIDTH 0 0
DWIDTH 0 0
BBX 6 4 -6 5
BITMAP
0540
5010
6410
1000
ENDCHAR
STARTCHAR uni20D5
ENCODING 8405
SWIDTH 0 0
DWIDTH 0 0
BBX 6 4 -5 5
BITMAP
1500
8050
8190
0040
ENDCHAR
STARTCHAR uni20D6
ENCODING 8406
SWIDTH 0 0
DWIDTH 0 0
BBX 5 3 -5 6
BITMAP
1000
AA40
1000
ENDCHAR
STARTCHAR uni20D7
ENCODING 8407
SWIDTH 0 0
DWIDTH 0 0
BBX 5 3 -5 6
BITMAP
0100
6A80
0100
ENDCHAR
STARTCHAR uni20D8
ENCODING 8408
SWIDTH 0 0
DWIDTH 0 0
BBX 3 4 -4 1
BITMAP
64
88
88
64
ENDCHAR
STARTCHAR uni20D9
ENCODING 8409
SWIDTH 0 0
DWIDTH 0 0
BBX 4 4 -4 1
BITMAP
64
8D
88
64
ENDCHAR
STARTCHAR uni20DA
ENCODING 8410
SWIDTH 0 0
DWIDTH 0 0
BBX 4 4 -4 1
BITMAP
64
88
8D
64
ENDCHAR
STARTCHAR uni20DB
ENCODING 8411
SWIDTH 0 0
DWIDTH 0 0
BBX 6 1 -6 6
BITMAP
6220
ENDCHAR
STARTCHAR uni20DC
ENCODING 8412
SWIDTH 0 0
DWIDTH 0 0
BBX 9 1 -7 6
BITMAP
622240
ENDCHAR
STARTCHAR uni20DD
ENCODING 8413
SWIDTH 0 0
DWIDTH 0 0
BBX 11 11 -8 -3
BITMAP
01A900
190180
200020
500014
800008
800008
800008
500014
200020
190180
01A900
ENDCHAR
STARTCHAR uni20DE
ENCODING 8414
SWIDTH 0 0
DWIDTH 0 0
BBX 11 11 -8 -2
BITMAP
AAAAA8
800008
800008
800008
800008
800008
800008
800008
800008
800008
AAAAA8
ENDCHAR
STARTCHAR uni20DF
ENCODING 8415
SWIDTH 0 0
DWIDTH 0 0
BBX 13 14 -9 -4
BITMAP
00040000
00290000
00A24000
02809000
0A002400
28000900
A0000240
90000180
24000600
09001800
02406000
00918000
00260000
00080000
ENDCHAR
STARTCHAR uni20E1
ENCODING 8417
SWIDTH 0 0
DWIDTH 0 0
BBX 5 3 -5 6
BITMAP
5140
EAC0
5140
ENDCHAR
STARTCHAR uni20E4
ENCODING 8420
SWIDTH 0 0
DWIDTH 0 0
BBX 17 13 -11 -2
BITMAP
0001C00000
0002A00000
0006240000
000C180000
0024090000
0060030000
0090018000
0180009000
0300003000
0900001800
1800000900
3000000600
7AAAAAAB40
ENDCHAR
STARTCHAR uni20E5
ENCODING 8421
SWIDTH 0 0
DWIDTH 0 0
BBX 5 9 -5 -2
BITMAP
8000
2000
2000
1400
0800
0500
0200
0200
0040
ENDCHAR
STARTCHAR uni20E6
ENCODING 8422
SWIDTH 0 0
DWIDTH 0 0
BBX 3 9 -4 -2
BITMAP
88
88
88
88
88
88
88
88
88
ENDCHAR
STARTCHAR uni20E7
ENCODING 8423
SWIDTH 0 0
DWIDTH 0 0
BBX 10 10 -7 -2
BITMAP
AAAA90
000050
000050
000050
000050
000050
000050
000050
000050
000050
ENDCHAR
STARTCHAR uni20E8
ENCODING 8424
SWIDTH 0 0
DWIDTH 0 0
BBX 6 1 -6 -2
BITMAP
6220
ENDCHAR
STARTCHAR uni20E9
ENCODING 8425
SWIDTH 0 0
DWIDTH 0 0
BBX 7 2 -6 6
BITMAP
6AA4
4004
ENDCHAR
STARTCHAR uni20EA
ENCODING 8426
SWIDTH 0 0
DWIDTH 0 0
BBX 9 3 -7 1
BITMAP
200000
BAAA40
200000
ENDCHAR
STARTCHAR uni20EB
ENCODING 8427
SWIDTH 0 0
DWIDTH 0 0
BBX 7 11 -6 -2
BITMAP
0088
0144
0220
0220
0450
0880
1540
2200
2200
8400
8800
ENDCHAR
STARTCHAR uni20EC
ENCODING 8428
SWIDTH 0 0
DWIDTH 0 0
BBX 5 2 -5 -3
BITMAP
6A80
0100
ENDCHAR
STARTCHAR uni20ED
ENCODING 8429
SWIDTH 0 0
DWIDTH 0 0
BBX 5 2 -5 -3
BITMAP
AA40
1000
ENDCHAR
STARTCHAR uni20EE
ENCODING 8430
SWIDTH 0 0
DWIDTH 0 0
BBX 5 3 -5 -3
BITMAP
1000
AA40
1000
ENDCHAR
STARTCHAR uni20EF
ENCODING 8431
SWIDTH 0 0
DWIDTH 0 0
BBX 5 3 -5 -3
BITMAP
0100
6A80
0100
ENDCHAR
STARTCHAR uni20F0
ENCODING 8432
SWIDTH 0 0
DWIDTH 0 0
BBX 3 4 -4 6
BITMAP
10
98
64
20
ENDCHAR
STARTCHAR uni2100
ENCODING 8448
SWIDTH 939 0
DWIDTH 10 0
BBX 10 8 0 0
BITMAP
180100
560200
160400
521550
662510
004500
004610
010290
ENDCHAR
STARTCHAR uni2101
ENCODING 8449
SWIDTH 936 0
DWIDTH 10 0
BBX 10 8 0 0
BITMAP
180100
160100
160800
561660
666240
0041D0
014120
010250
ENDCHAR
STARTCHAR uni2102
ENCODING 8450
SWIDTH 695 0
DWIDTH 8 0
BBX 7 8 0 0
BITMAP
0650
2408
6400
5400
5400
6400
2408
0650
ENDCHAR
STARTCHAR uni2103
ENCODING 8451
SWIDTH 1028 0
DWIDTH 11 0
BBX 11 9 0 0
BITMAP
290000
520AB8
522418
296004
006000
006000
007000
003404
000AA0
ENDCHAR
STARTCHAR uni2104
ENCODING 8452
SWIDTH 646 0
DWIDTH 7 0
BBX 7 8 0 0
BITMAP
1A00
0D00
2E40
9C40
9C00
6D44
0D08
1A64
ENDCHAR
STARTCHAR uni2105
ENCODING 8453
SWIDTH 953 0
DWIDTH 10 0
BBX 10 8 0 0
BITMAP
150100
520400
901400
512140
294820
004C30
020820
010140
ENDCHAR
STARTCHAR uni2106
ENCODING 8454
SWIDTH 1072 0
DWIDTH 12 0
BBX 11 8 0 0
BITMAP
150100
520500
500800
611618
295208
008208
010248
010198
ENDCHAR
STARTCHAR uni2107
ENCODING 8455
SWIDTH 612 0
DWIDTH 7 0
BBX 6 8 0 0
BITMAP
2960
7010
3000
1E40
7000
A010
7030
1A40
ENDCHAR
STARTCHAR uni2108
ENCODING 8456
SWIDTH 669 0
DWIDTH 7 0
BBX 7 8 0 0
BITMAP
5540
6060
5028
0268
0118
0028
5070
1A80
ENDCHAR
STARTCHAR uni2109
ENCODING 8457
SWIDTH 949 0
DWIDTH 10 0
BBX 11 9 0 0
BITMAP
290000
527AA4
522404
292450
002990
002410
002400
002400
007900
ENDCHAR
STARTCHAR uni210A
ENCODING 8458
SWIDTH 657 0
DWIDTH 7 0
BBX 7 8 0 -3
BITMAP
01A0
0920
2860
58A4
1D50
2080
5180
2500
ENDCHAR
STARTCHAR uni210B
ENCODING 8459
SWIDTH 951 0
DWIDTH 10 0
BBX 11 8 0 0
BITMAP
059028
248040
20C200
00D600
014600
020600
410600
640240
ENDCHAR
STARTCHAR uni210C
ENCODING 8460
SWIDTH 728 0
DWIDTH 8 0
BBX 7 11 1 -3
BITMAP
0400
1F40
5000
62D0
7474
2824
4824
E420
1050
2E40
0500
ENDCHAR
STARTCHAR uni210D
ENCODING 8461
SWIDTH 715 0
DWIDTH 8 0
BBX 7 8 0 0
BITMAP
2418
5414
5414
5414
5964
5414
5414
2418
ENDCHAR
STARTCHAR uni210E
ENCODING 8462
SWIDTH 569 0
DWIDTH 6 0
BBX 6 8 0 0
BITMAP
1C00
0800
1590
2550
2490
30C0
60C0
5090
ENDCHAR
STARTCHAR uni210F
ENCODING 8463
SWIDTH 569 0
DWIDTH 6 0
BBX 6 8 0 0
BITMAP
1C00
1D40
6590
2550
2490
30C0
60C0
5090
ENDCHAR
STARTCHAR uni2110
ENCODING 8464
SWIDTH 496 0
DWIDTH 5 0
BBX 6 8 0 0
BITMAP
0590
20C0
3080
0180
0240
0200
4500
6400
ENDCHAR
STARTCHAR uni2111
ENCODING 8465
SWIDTH 673 0
DWIDTH 7 0
BBX 6 8 1 -1
BITMAP
7D10
97D0
8090
5280
01C0
A0D0
3490
1940
ENDCHAR
STARTCHAR uni2112
ENCODING 8466
SWIDTH 699 0
DWIDTH 8 0
BBX 7 8 0 0
BITMAP
0060
0224
0500
0900
0800
1004
6904
42E0
ENDCHAR
STARTCHAR uni2113
ENCODING 8467
SWIDTH 529 0
DWIDTH 6 0
BBX 5 8 1 0
BITMAP
0640
0880
2140
6500
9000
8000
8400
9000
ENDCHAR
STARTCHAR uni2114
ENCODING 8468
SWIDTH 787 0
DWIDTH 9 0
BBX 9 9 0 0
BITMAP
104000
728000
769400
31A900
318300
318240
318200
318200
649400
ENDCHAR
STARTCHAR uni2115
ENCODING 8469
SWIDTH 692 0
DWIDTH 8 0
BBX 7 8 0 0
BITMAP
6404
5504
6604
5884
5254
5158
5048
5028
ENDCHAR
STARTCHAR uni2116
ENCODING 8470
SWIDTH 1070 0
DWIDTH 12 0
BBX 12 8 0 0
BITMAP
190180
0B0540
0A8454
08D885
087885
082C54
840C00
A00468
ENDCHAR
STARTCHAR uni2117
ENCODING 8471
SWIDTH 781 0
DWIDTH 9 0
BBX 8 8 0 0
BITMAP
0550
1404
1251
4221
4251
1601
1404
0550
ENDCHAR
STARTCHAR uni2118
ENCODING 8472
SWIDTH 846 0
DWIDTH 9 0
BBX 9 9 0 -3
BITMAP
064000
241540
6090C0
6240C0
2A0180
1E6200
265400
320000
140000
ENDCHAR
STARTCHAR uni2119
ENCODING 8473
SWIDTH 665 0
DWIDTH 7 0
BBX 7 8 0 0
BITMAP
2950
5428
5418
5418
5950
5400
5400
2400
ENDCHAR
STARTCHAR uni211A
ENCODING 8474
SWIDTH 751 0
DWIDTH 8 0
BBX 8 9 0 -1
BITMAP
0590
2408
6409
5406
5406
6409
2598
0660
0009
ENDCHAR
STARTCHAR uni211B
ENCODING 8475
SWIDTH 789 0
DWIDTH 9 0
BBX 8 8 0 0
BITMAP
0194
18C6
2186
0188
02A0
0230
4529
9409
ENDCHAR
STARTCHAR uni211C
ENCODING 8476
SWIDTH 778 0
DWIDTH 9 0
BBX 8 8 0 0
BITMAP
1568
634C
774C
27A4
1368
0228
291D
1408
ENDCHAR
STARTCHAR uni211D
ENCODING 8477
SWIDTH 729 0
DWIDTH 8 0
BBX 8 8 0 0
BITMAP
2950
5418
5418
5418
5AA0
5450
5458
2419
ENDCHAR
STARTCHAR uni211E
ENCODING 8478
SWIDTH 725 0
DWIDTH 8 0
BBX 8 9 0 -1
BITMAP
6940
2470
2430
2460
2A80
24D5
2474
6958
0100
ENDCHAR
STARTCHAR uni211F
ENCODING 8479
SWIDTH 659 0
DWIDTH 7 0
BBX 7 12 0 -3
BITMAP
0240
0140
1490
2570
2660
2B80
2DC0
2890
2870
6918
1100
0500
ENDCHAR
STARTCHAR uni2120
ENCODING 8480
SWIDTH 937 0
DWIDTH 10 0
BBX 10 5 0 2
BITMAP
695050
506090
185950
454950
545450
ENDCHAR
STARTCHAR uni2121
ENCODING 8481
SWIDTH 1200 0
DWIDTH 13 0
BBX 13 5 0 2
BITMAP
59655800
08211400
08251400
08205440
18255940
ENDCHAR
STARTCHAR trademark
ENCODING 8482
SWIDTH 881 0
DWIDTH 10 0
BBX 9 4 0 3
BITMAP
555080
146580
145980
145480
ENDCHAR
STARTCHAR uni2123
ENCODING 8483
SWIDTH 680 0
DWIDTH 7 0
BBX 8 12 0 -3
BITMAP
0240
0140
A499
3448
2920
0E20
0950
0B80
1640
1100
1100
1500
ENDCHAR
STARTCHAR uni2124
ENCODING 8484
SWIDTH 648 0
DWIDTH 7 0
BBX 7 8 0 0
BITMAP
15A8
0094
0120
0580
0940
2200
5800
9954
ENDCHAR
STARTCHAR uni2125
ENCODING 8485
SWIDTH 434 0
DWIDTH 5 0
BBX 5 11 0 -3
BITMAP
5600
4900
1800
2600
0900
1900
0300
0240
0240
4200
6400
ENDCHAR
STARTCHAR uni2126
ENCODING 8486
SWIDTH 763 0
DWIDTH 8 0
BBX 8 8 0 0
BITMAP
0650
281C
300A
700A
700A
281C
4521
BE3F
ENDCHAR
STARTCHAR uni2127
ENCODING 8487
SWIDTH 763 0
DWIDTH 8 0
BBX 8 8 0 0
BITMAP
BE3F
4521
281D
700A
700A
700A
281C
0550
ENDCHAR
STARTCHAR uni2128
ENCODING 8488
SWIDTH 641 0
DWIDTH 7 0
BBX 6 10 1 -2
BITMAP
1A40
41C0
00D0
11C0
0B40
10C0
0090
A090
7080
1940
ENDCHAR
STARTCHAR uni2129
ENCODING 8489
SWIDTH 368 0
DWIDTH 4 0
BBX 2 6 1 -1
BITMAP
A0
70
70
70
70
10
ENDCHAR
STARTCHAR uni212A
ENCODING 8490
SWIDTH 702 0
DWIDTH 8 0
BBX 8 8 0 0
BITMAP
7978
2450
2540
2A00
2B40
25C0
2470
697D
ENDCHAR
STARTCHAR uni212B
ENCODING 8491
SWIDTH 722 0
DWIDTH 8 0
BBX 8 10 0 0
BITMAP
0140
0140
0280
0280
06C0
08A0
0870
1974
2028
6019
ENDCHAR
STARTCHAR uni212C
ENCODING 8492
SWIDTH 754 0
DWIDTH 8 0
BBX 8 8 0 0
BITMAP
0598
1586
3189
02A8
0209
0205
0808
6A90
ENDCHAR
STARTCHAR uni212D
ENCODING 8493
SWIDTH 639 0
DWIDTH 7 0
BBX 7 8 0 0
BITMAP
0954
31A0
6200
6280
61C0
70C0
2950
0B90
ENDCHAR
STARTCHAR estimated
ENCODING 8494
SWIDTH 863 0
DWIDTH 10 0
BBX 9 8 0 -1
BITMAP
015400
140200
700280
B55680
B00000
700000
180200
015400
ENDCHAR
STARTCHAR uni212F
ENCODING 8495
SWIDTH 527 0
DWIDTH 6 0
BBX 5 6 0 0
BITMAP
0140
0880
2640
3800
7080
1A00
ENDCHAR
STARTCHAR uni2130
ENCODING 8496
SWIDTH 572 0
DWIDTH 6 0
BBX 6 8 0 0
BITMAP
0550
1C30
0800
0A40
6000
A000
6090
1540
ENDCHAR
STARTCHAR uni2131
ENCODING 8497
SWIDTH 713 0
DWIDTH 8 0
BBX 9 8 0 0
BITMAP
01A040
189A00
208000
01D400
018000
014000
420000
540000
ENDCHAR
STARTCHAR uni2132
ENCODING 8498
SWIDTH 588 0
DWIDTH 6 0
BBX 6 8 0 0
BITMAP
0190
00C0
00C0
10C0
25C0
10C0
80C0
AA90
ENDCHAR
STARTCHAR uni2133
ENCODING 8499
SWIDTH 1038 0
DWIDTH 11 0
BBX 12 8 0 0
BITMAP
0A401A
12C0B0
019160
016550
016890
0474C0
4470C0
9050A0
ENDCHAR
STARTCHAR uni2134
ENCODING 8500
SWIDTH 691 0
DWIDTH 8 0
BBX 9 6 -1 0
BITMAP
006400
015C40
030E00
0A0800
671400
015000
ENDCHAR
STARTCHAR uni2135
ENCODING 8501
SWIDTH 698 0
DWIDTH 8 0
BBX 7 8 0 0
BITMAP
5020
7428
1D18
2750
71E0
3478
1C0C
1404
ENDCHAR
STARTCHAR uni2136
ENCODING 8502
SWIDTH 654 0
DWIDTH 7 0
BBX 6 9 1 -1
BITMAP
4000
FF40
01C0
0080
0080
0080
0040
BFD0
4000
ENDCHAR
STARTCHAR uni2137
ENCODING 8503
SWIDTH 517 0
DWIDTH 6 0
BBX 4 7 1 0
BITMAP
7C
09
04
04
09
1B
E2
ENDCHAR
STARTCHAR uni2138
ENCODING 8504
SWIDTH 613 0
DWIDTH 7 0
BBX 6 8 0 0
BITMAP
5000
7FD0
0050
0080
00C0
00C0
00D0
0080
ENDCHAR
STARTCHAR uni2139
ENCODING 8505
SWIDTH 361 0
DWIDTH 4 0
BBX 4 8 0 0
BITMAP
38
3C
68
7C
3C
3C
3C
69
ENDCHAR
STARTCHAR uni213A
ENCODING 8506
SWIDTH 907 0
DWIDTH 10 0
BBX 10 7 0 0
BITMAP
0BE410
251920
5002D0
400280
500200
240900
0BF400
ENDCHAR
STARTCHAR uni213B
ENCODING 8507
SWIDTH 1216 0
DWIDTH 13 0
BBX 13 5 0 2
BITMAP
65182540
21181A00
25190A00
20571640
60826180
ENDCHAR
STARTCHAR uni213C
ENCODING 8508
SWIDTH 689 0
DWIDTH 8 0
BBX 7 6 0 0
BITMAP
6AA4
1950
1950
1950
1894
1864
ENDCHAR
STARTCHAR uni213D
ENCODING 8509
SWIDTH 552 0
DWIDTH 6 0
BBX 6 8 0 -3
BITMAP
6010
5850
2540
0A00
0540
0680
0A80
0600
ENDCHAR
STARTCHAR uni213E
ENCODING 8510
SWIDTH 550 0
DWIDTH 6 0
BBX 6 8 0 0
BITMAP
2950
5400
5400
5400
5400
5400
5400
2400
ENDCHAR
STARTCHAR uni213F
ENCODING 8511
SWIDTH 714 0
DWIDTH 8 0
BBX 7 8 0 0
BITMAP
2968
5414
5414
5414
5414
5414
5414
2418
ENDCHAR
STARTCHAR uni2140
ENCODING 8512
SWIDTH 945 0
DWIDTH 10 0
BBX 10 12 0 -3
BITMAP
6AAA40
224000
148000
085000
022000
014800
014800
022000
085000
148000
224000
6AAAA0
ENDCHAR
STARTCHAR uni2141
ENCODING 8513
SWIDTH 711 0
DWIDTH 8 0
BBX 8 8 0 0
BITMAP
2B90
6028
600D
7809
0009
100D
2428
1B90
ENDCHAR
STARTCHAR uni2142
ENCODING 8514
SWIDTH 572 0
DWIDTH 6 0
BBX 6 8 0 0
BITMAP
AAD0
0090
0090
0090
0090
0090
0090
0050
ENDCHAR
STARTCHAR uni2143
ENCODING 8515
SWIDTH 572 0
DWIDTH 6 0
BBX 6 8 0 0
BITMAP
0050
0090
0090
0090
0090
0090
0090
BFD0
ENDCHAR
STARTCHAR uni2144
ENCODING 8516
SWIDTH 645 0
DWIDTH 7 0
BBX 7 8 0 0
BITMAP
0100
0300
0300
0300
0780
0C90
2460
6028
ENDCHAR
STARTCHAR uni2145
ENCODING 8517
SWIDTH 717 0
DWIDTH 8 0
BBX 8 8 0 0
BITMAP
1A50
2508
2409
1815
5815
5418
9424
A540
ENDCHAR
STARTCHAR uni2146
ENCODING 8518
SWIDTH 607 0
DWIDTH 7 0
BBX 7 8 0 0
BITMAP
0028
0018
1954
64D4
9490
90A0
6260
1690
ENDCHAR
STARTCHAR uni2147
ENCODING 8519
SWIDTH 520 0
DWIDTH 6 0
BBX 6 6 0 0
BITMAP
0540
25C0
9550
A680
6040
1500
ENDCHAR
STARTCHAR uni2148
ENCODING 8520
SWIDTH 285 0
DWIDTH 3 0
BBX 4 8 0 0
BITMAP
19
18
28
18
54
54
90
A0
ENDCHAR
STARTCHAR uni2149
ENCODING 8521
SWIDTH 284 0
DWIDTH 3 0
BBX 6 11 -2 -3
BITMAP
0190
0250
0180
0280
0180
0540
0500
0600
0600
1900
6400
ENDCHAR
STARTCHAR uni214A
ENCODING 8522
SWIDTH 680 0
DWIDTH 7 0
BBX 7 8 0 0
BITMAP
0500
0500
6EA0
9518
5518
06A0
0500
06A4
ENDCHAR
STARTCHAR uni214B
ENCODING 8523
SWIDTH 736 0
DWIDTH 8 0
BBX 7 8 1 0
BITMAP
A1A4
1D18
1618
22A0
A1C0
0890
0850
0540
ENDCHAR
STARTCHAR uni214C
ENCODING 8524
SWIDTH 794 0
DWIDTH 9 0
BBX 9 8 0 0
BITMAP
141900
498340
5A9340
295A00
0A9500
084100
094000
060000
ENDCHAR
STARTCHAR uni214D
ENCODING 8525
SWIDTH 1010 0
DWIDTH 11 0
BBX 11 8 0 0
BITMAP
080040
190140
220100
164994
519580
002064
004108
004154
ENDCHAR
STARTCHAR uni214E
ENCODING 8526
SWIDTH 473 0
DWIDTH 5 0
BBX 4 6 0 0
BITMAP
02
02
3F
02
02
7F
ENDCHAR
STARTCHAR uni214F
ENCODING 8527
SWIDTH 1161 0
DWIDTH 13 0
BBX 13 5 0 0
BITMAP
0A2D7800
16228800
15214800
0A192800
BAEBEB40
ENDCHAR
STARTCHAR onethird
ENCODING 8531
SWIDTH 899 0
DWIDTH 10 0
BBX 9 9 1 0
BITMAP
001000
902000
904000
904A00
921200
910200
080A00
040140
202500
ENDCHAR
STARTCHAR twothirds
ENCODING 8532
SWIDTH 948 0
DWIDTH 10 0
BBX 10 9 0 0
BITMAP
000200
690400
060800
091190
111120
6A8050
004190
020030
010250
ENDCHAR
STARTCHAR uni2155
ENCODING 8533
SWIDTH 867 0
DWIDTH 10 0
BBX 9 9 0 0
BITMAP
000400
640800
241000
241000
248680
244A40
020080
010080
080940
ENDCHAR
STARTCHAR uni2156
ENCODING 8534
SWIDTH 916 0
DWIDTH 10 0
BBX 10 9 0 0
BITMAP
000200
290400
060800
081000
211290
AA8280
004060
020020
010640
ENDCHAR
STARTCHAR uni2157
ENCODING 8535
SWIDTH 896 0
DWIDTH 10 0
BBX 10 9 0 0
BITMAP
000500
690800
081400
192000
065290
648680
014050
020050
050A40
ENDCHAR
STARTCHAR uni2158
ENCODING 8536
SWIDTH 929 0
DWIDTH 10 0
BBX 10 9 0 0
BITMAP
000200
090500
190800
151000
6E22E0
004290
008020
010020
010650
ENDCHAR
STARTCHAR uni2159
ENCODING 8537
SWIDTH 871 0
DWIDTH 10 0
BBX 10 9 0 0
BITMAP
000400
640800
241000
241040
248500
144A40
021880
010890
080980
ENDCHAR
STARTCHAR uni215A
ENCODING 8538
SWIDTH 871 0
DWIDTH 10 0
BBX 10 9 0 0
BITMAP
000400
390800
781000
051140
454900
544A40
021880
010890
080980
ENDCHAR
STARTCHAR oneeighth
ENCODING 8539
SWIDTH 887 0
DWIDTH 10 0
BBX 10 9 0 0
BITMAP
000400
640800
241000
241540
248880
244980
020780
010890
080980
ENDCHAR
STARTCHAR threeeighths
ENCODING 8540
SWIDTH 911 0
DWIDTH 10 0
BBX 10 9 0 0
BITMAP
000500
690800
081400
192140
065850
648640
0143C0
020860
050550
ENDCHAR
STARTCHAR fiveeighths
ENCODING 8541
SWIDTH 891 0
DWIDTH 10 0
BBX 10 9 0 0
BITMAP
000400
390800
681000
051540
054850
644980
020780
010890
080940
ENDCHAR
STARTCHAR seveneighths
ENCODING 8542
SWIDTH 847 0
DWIDTH 9 0
BBX 9 9 0 0
BITMAP
000400
A92000
441000
088500
205480
121940
050B40
082580
141540
ENDCHAR
STARTCHAR uni2190
ENCODING 8592
SWIDTH 948 0
DWIDTH 10 0
BBX 9 5 1 0
BITMAP
040000
200000
FAAA40
200000
040000
ENDCHAR
STARTCHAR uni2191
ENCODING 8593
SWIDTH 523 0
DWIDTH 6 0
BBX 4 9 1 -2
BITMAP
24
68
65
24
24
24
24
24
24
ENDCHAR
STARTCHAR uni2192
ENCODING 8594
SWIDTH 948 0
DWIDTH 10 0
BBX 9 5 1 0
BITMAP
000400
000500
AAAB40
000500
000400
ENDCHAR
STARTCHAR uni2193
ENCODING 8595
SWIDTH 523 0
DWIDTH 6 0
BBX 4 9 1 -2
BITMAP
14
14
14
14
14
14
65
38
14
ENDCHAR
STARTCHAR uni2194
ENCODING 8596
SWIDTH 948 0
DWIDTH 10 0
BBX 10 5 0 0
BITMAP
040100
140080
7EAAE0
140040
040100
ENDCHAR
STARTCHAR uni2195
ENCODING 8597
SWIDTH 523 0
DWIDTH 6 0
BBX 4 11 1 -3
BITMAP
10
38
65
14
14
14
14
14
65
38
14
ENDCHAR
STARTCHAR uni2196
ENCODING 8598
SWIDTH 948 0
DWIDTH 10 0
BBX 9 9 1 -2
BITMAP
E40000
A00000
480000
060000
018000
006000
001800
000600
000140
ENDCHAR
STARTCHAR uni2197
ENCODING 8599
SWIDTH 948 0
DWIDTH 10 0
BBX 9 9 1 -2
BITMAP
001740
000640
001440
006000
018000
060000
180000
600000
800000
ENDCHAR
STARTCHAR uni2198
ENCODING 8600
SWIDTH 948 0
DWIDTH 10 0
BBX 9 9 1 -2
BITMAP
800000
600000
180000
060000
018000
006000
001940
000740
001740
ENDCHAR
STARTCHAR uni2199
ENCODING 8601
SWIDTH 948 0
DWIDTH 10 0
BBX 9 9 1 -2
BITMAP
000140
000600
001800
006000
018000
060000
580000
A00000
E40000
ENDCHAR
STARTCHAR uni219A
ENCODING 8602
SWIDTH 948 0
DWIDTH 10 0
BBX 9 5 1 0
BITMAP
040400
201400
FABA80
208000
044000
ENDCHAR
STARTCHAR uni219B
ENCODING 8603
SWIDTH 948 0
DWIDTH 10 0
BBX 10 5 0 0
BITMAP
001100
008140
6AEAD0
020140
050100
ENDCHAR
STARTCHAR uni219C
ENCODING 8604
SWIDTH 948 0
DWIDTH 10 0
BBX 9 4 1 1
BITMAP
440000
E06A00
4A9140
400000
ENDCHAR
STARTCHAR uni219D
ENCODING 8605
SWIDTH 948 0
DWIDTH 10 0
BBX 9 4 1 1
BITMAP
001400
690B40
81A500
000100
ENDCHAR
STARTCHAR uni219E
ENCODING 8606
SWIDTH 948 0
DWIDTH 10 0
BBX 9 5 1 0
BITMAP
044000
214000
FBAA40
214000
044000
ENDCHAR
STARTCHAR uni219F
ENCODING 8607
SWIDTH 523 0
DWIDTH 6 0
BBX 4 9 1 -2
BITMAP
24
68
65
38
65
24
24
24
24
ENDCHAR
STARTCHAR uni21A0
ENCODING 8608
SWIDTH 948 0
DWIDTH 10 0
BBX 9 5 1 0
BITMAP
010400
008500
AAFB40
008500
010400
ENDCHAR
STARTCHAR uni21A1
ENCODING 8609
SWIDTH 523 0
DWIDTH 6 0
BBX 4 9 1 -2
BITMAP
24
24
24
24
65
38
65
7C
14
ENDCHAR
STARTCHAR uni21A2
ENCODING 8610
SWIDTH 948 0
DWIDTH 10 0
BBX 9 5 1 0
BITMAP
040040
200200
FAAD00
200200
040040
ENDCHAR
STARTCHAR uni21A3
ENCODING 8611
SWIDTH 948 0
DWIDTH 10 0
BBX 9 5 1 0
BITMAP
400400
500500
3AAB40
500500
400400
ENDCHAR
STARTCHAR uni21A4
ENCODING 8612
SWIDTH 948 0
DWIDTH 10 0
BBX 9 5 1 0
BITMAP
040040
200080
BAAA80
200080
040040
ENDCHAR
STARTCHAR uni21A5
ENCODING 8613
SWIDTH 523 0
DWIDTH 6 0
BBX 5 9 0 -2
BITMAP
0900
1A40
0900
0900
0900
0900
0900
0900
6A80
ENDCHAR
STARTCHAR uni21A6
ENCODING 8614
SWIDTH 948 0
DWIDTH 10 0
BBX 10 5 0 0
BITMAP
100100
500140
7AAAD0
500140
500100
ENDCHAR
STARTCHAR uni21A7
ENCODING 8615
SWIDTH 523 0
DWIDTH 6 0
BBX 5 9 0 -1
BITMAP
6A80
0900
0900
0900
0900
0900
0940
1A40
0900
ENDCHAR
STARTCHAR uni21A8
ENCODING 8616
SWIDTH 523 0
DWIDTH 6 0
BBX 5 9 0 -2
BITMAP
0900
1A40
0900
0900
0900
1940
1E00
0900
6A80
ENDCHAR
STARTCHAR uni21A9
ENCODING 8617
SWIDTH 948 0
DWIDTH 10 0
BBX 9 6 1 0
BITMAP
001A00
040180
200180
FAAA00
200000
040000
ENDCHAR
STARTCHAR uni21AA
ENCODING 8618
SWIDTH 948 0
DWIDTH 10 0
BBX 9 6 1 0
BITMAP
680000
800400
800500
6AAB40
000500
000400
ENDCHAR
STARTCHAR uni21AB
ENCODING 8619
SWIDTH 948 0
DWIDTH 10 0
BBX 9 7 1 -1
BITMAP
001A00
042180
202180
FABA00
202000
042000
001000
ENDCHAR
STARTCHAR uni21AC
ENCODING 8620
SWIDTH 948 0
DWIDTH 10 0
BBX 9 7 1 -1
BITMAP
680000
850400
850500
6BAB40
050500
050400
010000
ENDCHAR
STARTCHAR uni21AD
ENCODING 8621
SWIDTH 1229 0
DWIDTH 14 0
BBX 12 5 1 0
BITMAP
000010
202414
F998AE
128254
000010
ENDCHAR
STARTCHAR uni21AE
ENCODING 8622
SWIDTH 948 0
DWIDTH 10 0
BBX 10 5 0 0
BITMAP
001500
142140
7EBAE0
144080
048100
ENDCHAR
STARTCHAR uni21AF
ENCODING 8623
SWIDTH 523 0
DWIDTH 6 0
BBX 5 10 0 -2
BITMAP
0080
0240
0600
1800
2A80
0200
4500
2800
3900
1000
ENDCHAR
STARTCHAR uni21B0
ENCODING 8624
SWIDTH 474 0
DWIDTH 5 0
BBX 5 10 0 -2
BITMAP
0400
1400
7E80
1480
0480
0080
0080
0080
0080
0040
ENDCHAR
STARTCHAR uni21B1
ENCODING 8625
SWIDTH 474 0
DWIDTH 5 0
BBX 5 10 0 -2
BITMAP
0400
0500
6B80
9500
9400
9000
9000
9000
9000
4000
ENDCHAR
STARTCHAR uni21B2
ENCODING 8626
SWIDTH 474 0
DWIDTH 5 0
BBX 5 10 0 -2
BITMAP
0040
0080
0080
0080
0080
0480
1480
7A80
1400
0400
ENDCHAR
STARTCHAR uni21B3
ENCODING 8627
SWIDTH 474 0
DWIDTH 5 0
BBX 5 10 0 -2
BITMAP
4000
9000
9000
9000
9000
9400
9500
6B80
0500
0400
ENDCHAR
STARTCHAR uni21B4
ENCODING 8628
SWIDTH 948 0
DWIDTH 10 0
BBX 9 9 1 -1
BITMAP
AAA800
000800
000800
000800
000800
000800
004840
002E00
000C00
ENDCHAR
STARTCHAR uni21B5
ENCODING 8629
SWIDTH 948 0
DWIDTH 10 0
BBX 9 10 1 -2
BITMAP
000040
000080
000080
000080
000080
040080
200080
FAAA80
200000
040000
ENDCHAR
STARTCHAR uni21B6
ENCODING 8630
SWIDTH 948 0
DWIDTH 10 0
BBX 10 6 0 0
BITMAP
006A00
024180
050060
484020
2E0000
0C0000
ENDCHAR
STARTCHAR uni21B7
ENCODING 8631
SWIDTH 948 0
DWIDTH 10 0
BBX 10 6 0 0
BITMAP
06A000
180900
200200
500610
000690
000240
ENDCHAR
STARTCHAR uni21B8
ENCODING 8632
SWIDTH 948 0
DWIDTH 10 0
BBX 10 10 0 -2
BITMAP
6AAA90
690000
280000
160000
018000
006000
001800
000200
000080
000010
ENDCHAR
STARTCHAR uni21B9
ENCODING 8633
SWIDTH 948 0
DWIDTH 10 0
BBX 10 8 0 -1
BITMAP
550000
6EAAA0
550000
510410
000220
6AABA0
000120
000010
ENDCHAR
STARTCHAR uni21BA
ENCODING 8634
SWIDTH 997 0
DWIDTH 11 0
BBX 9 9 1 -1
BITMAP
000500
092D00
201600
500540
800080
800180
600240
280A00
06A400
ENDCHAR
STARTCHAR uni21BB
ENCODING 8635
SWIDTH 997 0
DWIDTH 11 0
BBX 9 9 1 -1
BITMAP
150000
1E1800
240200
540140
800080
900180
600240
280A00
06A400
ENDCHAR
STARTCHAR uni21BC
ENCODING 8636
SWIDTH 978 0
DWIDTH 11 0
BBX 9 3 1 2
BITMAP
040000
200000
BAAA80
ENDCHAR
STARTCHAR uni21BD
ENCODING 8637
SWIDTH 978 0
DWIDTH 11 0
BBX 9 3 1 0
BITMAP
BAAA80
200000
080000
ENDCHAR
STARTCHAR uni21BE
ENCODING 8638
SWIDTH 523 0
DWIDTH 6 0
BBX 3 9 2 -2
BITMAP
50
A4
94
90
90
90
90
90
90
ENDCHAR
STARTCHAR uni21BF
ENCODING 8639
SWIDTH 523 0
DWIDTH 6 0
BBX 3 9 1 -2
BITMAP
14
64
24
24
24
24
24
24
24
ENDCHAR
STARTCHAR uni21C0
ENCODING 8640
SWIDTH 978 0
DWIDTH 11 0
BBX 10 3 0 2
BITMAP
000100
000180
6AAAE0
ENDCHAR
STARTCHAR uni21C1
ENCODING 8641
SWIDTH 978 0
DWIDTH 11 0
BBX 10 3 0 0
BITMAP
6AAAE0
000180
000100
ENDCHAR
STARTCHAR uni21C2
ENCODING 8642
SWIDTH 523 0
DWIDTH 6 0
BBX 3 10 2 -2
BITMAP
40
90
90
90
90
90
90
94
A0
40
ENDCHAR
STARTCHAR uni21C3
ENCODING 8643
SWIDTH 523 0
DWIDTH 6 0
BBX 3 10 1 -2
BITMAP
10
24
24
24
24
24
24
64
24
04
ENDCHAR
STARTCHAR uni21C4
ENCODING 8644
SWIDTH 948 0
DWIDTH 10 0
BBX 9 9 1 -1
BITMAP
000400
000500
AAAF40
000500
040400
200000
FAAA40
200000
040000
ENDCHAR
STARTCHAR uni21C5
ENCODING 8645
SWIDTH 791 0
DWIDTH 9 0
BBX 8 9 0 -2
BITMAP
0818
1D18
4858
0818
0818
0818
0859
082D
0814
ENDCHAR
STARTCHAR uni21C6
ENCODING 8646
SWIDTH 948 0
DWIDTH 10 0
BBX 9 8 1 0
BITMAP
040000
200000
FAAA40
200000
040400
000500
AAAF40
000500
ENDCHAR
STARTCHAR uni21C7
ENCODING 8647
SWIDTH 948 0
DWIDTH 10 0
BBX 9 9 1 -1
BITMAP
040000
200000
FAAA40
200000
040000
200000
FAAA40
200000
040000
ENDCHAR
STARTCHAR uni21C8
ENCODING 8648
SWIDTH 791 0
DWIDTH 9 0
BBX 8 9 0 -2
BITMAP
0818
1D69
4859
0818
0818
0818
0818
0818
0818
ENDCHAR
STARTCHAR uni21C9
ENCODING 8649
SWIDTH 948 0
DWIDTH 10 0
BBX 9 8 1 0
BITMAP
000400
000500
AAAF40
000500
000400
000500
AAAF40
000500
ENDCHAR
STARTCHAR uni21CA
ENCODING 8650
SWIDTH 791 0
DWIDTH 9 0
BBX 8 9 0 -2
BITMAP
0818
0818
0818
0818
0818
0818
5959
1E2C
0814
ENDCHAR
STARTCHAR uni21CB
ENCODING 8651
SWIDTH 948 0
DWIDTH 10 0
BBX 9 6 1 0
BITMAP
040000
100000
BAAA40
000000
AAAA40
000400
ENDCHAR
STARTCHAR uni21CC
ENCODING 8652
SWIDTH 948 0
DWIDTH 10 0
BBX 9 6 1 -1
BITMAP
000400
AAAA00
000000
6AAA40
100000
040000
ENDCHAR
STARTCHAR uni21CD
ENCODING 8653
SWIDTH 948 0
DWIDTH 10 0
BBX 9 7 1 -1
BITMAP
020200
080200
7EAE80
C00800
6EBA80
082000
015000
ENDCHAR
STARTCHAR uni21CE
ENCODING 8654
SWIDTH 948 0
DWIDTH 10 0
BBX 10 7 0 -1
BITMAP
011400
052200
2EBB80
A02070
1EAB80
054200
004000
ENDCHAR
STARTCHAR uni21CF
ENCODING 8655
SWIDTH 948 0
DWIDTH 10 0
BBX 10 7 0 -1
BITMAP
009400
014900
6BAB80
050090
6EAB40
140900
201000
ENDCHAR
STARTCHAR uni21D0
ENCODING 8656
SWIDTH 887 0
DWIDTH 10 0
BBX 9 7 1 -1
BITMAP
010000
090000
6EAA80
C00000
2EAA80
090000
010000
ENDCHAR
STARTCHAR uni21D1
ENCODING 8657
SWIDTH 720 0
DWIDTH 8 0
BBX 6 9 1 -2
BITMAP
0500
1A40
35C0
A5A0
2540
2540
2540
2540
2540
ENDCHAR
STARTCHAR uni21D2
ENCODING 8658
SWIDTH 887 0
DWIDTH 10 0
BBX 9 7 0 -1
BITMAP
001000
001400
AAAE00
000180
AAAE00
001400
001000
ENDCHAR
STARTCHAR uni21D3
ENCODING 8659
SWIDTH 720 0
DWIDTH 8 0
BBX 6 9 1 -2
BITMAP
1140
2540
2540
2540
2540
A5A0
75C0
1640
0A00
ENDCHAR
STARTCHAR uni21D4
ENCODING 8660
SWIDTH 948 0
DWIDTH 10 0
BBX 10 5 0 0
BITMAP
050200
1EAB80
600070
1EAB80
050200
ENDCHAR
STARTCHAR uni21D5
ENCODING 8661
SWIDTH 720 0
DWIDTH 8 0
BBX 6 10 1 -2
BITMAP
0900
1A40
75C0
6590
2540
2540
6550
75D0
1540
0A00
ENDCHAR
STARTCHAR uni21D6
ENCODING 8662
SWIDTH 948 0
DWIDTH 10 0
BBX 10 9 0 -2
BITMAP
6B9000
228000
349000
292400
124900
009240
002490
000910
000200
ENDCHAR
STARTCHAR uni21D7
ENCODING 8663
SWIDTH 948 0
DWIDTH 10 0
BBX 9 9 1 -2
BITMAP
016A80
002080
008240
020A40
082440
209000
824000
090000
240000
ENDCHAR
STARTCHAR uni21D8
ENCODING 8664
SWIDTH 948 0
DWIDTH 10 0
BBX 9 9 1 -1
BITMAP
100000
180000
824000
609000
182440
060A40
018240
006080
016A80
ENDCHAR
STARTCHAR uni21D9
ENCODING 8665
SWIDTH 948 0
DWIDTH 10 0
BBX 10 9 0 -1
BITMAP
000100
000A00
002860
009180
124600
291800
346000
228000
6B9000
ENDCHAR
STARTCHAR uni21DA
ENCODING 8666
SWIDTH 872 0
DWIDTH 10 0
BBX 10 10 0 -2
BITMAP
004000
004000
02AA90
040000
240000
7AAA90
180000
06AA90
014000
004000
ENDCHAR
STARTCHAR uni21DB
ENCODING 8667
SWIDTH 872 0
DWIDTH 10 0
BBX 9 8 0 -1
BITMAP
001000
AAA400
000500
000240
AAABC0
000200
AAA800
001000
ENDCHAR
STARTCHAR uni21DC
ENCODING 8668
SWIDTH 948 0
DWIDTH 10 0
BBX 9 5 1 0
BITMAP
040000
206000
F9A680
224800
040000
ENDCHAR
STARTCHAR uni21DD
ENCODING 8669
SWIDTH 948 0
DWIDTH 10 0
BBX 10 5 0 0
BITMAP
000100
008140
6AAAD0
092540
000100
ENDCHAR
STARTCHAR uni21DE
ENCODING 8670
SWIDTH 523 0
DWIDTH 6 0
BBX 5 9 0 -1
BITMAP
0400
0E00
1940
0900
0900
6A80
6A80
0900
0900
ENDCHAR
STARTCHAR uni21DF
ENCODING 8671
SWIDTH 523 0
DWIDTH 6 0
BBX 5 9 0 -1
BITMAP
0500
0900
0900
6A80
6A80
0900
0940
1A40
0900
ENDCHAR
STARTCHAR uni21E0
ENCODING 8672
SWIDTH 948 0
DWIDTH 10 0
BBX 9 5 1 0
BITMAP
040000
200000
F99980
200000
040000
ENDCHAR
STARTCHAR uni21E1
ENCODING 8673
SWIDTH 523 0
DWIDTH 6 0
BBX 4 9 1 -2
BITMAP
14
78
65
00
24
00
24
00
24
ENDCHAR
STARTCHAR uni21E2
ENCODING 8674
SWIDTH 948 0
DWIDTH 10 0
BBX 10 5 0 0
BITMAP
000100
000140
6666D0
000140
000100
ENDCHAR
STARTCHAR uni21E3
ENCODING 8675
SWIDTH 523 0
DWIDTH 6 0
BBX 4 9 1 -1
BITMAP
24
00
24
00
24
00
65
69
24
ENDCHAR
STARTCHAR uni21E4
ENCODING 8676
SWIDTH 948 0
DWIDTH 10 0
BBX 10 5 0 0
BITMAP
410000
550000
6EAAA0
550000
510000
ENDCHAR
STARTCHAR uni21E5
ENCODING 8677
SWIDTH 948 0
DWIDTH 10 0
BBX 10 5 0 0
BITMAP
000410
000220
6AABE0
000220
000410
ENDCHAR
STARTCHAR uni21E6
ENCODING 8678
SWIDTH 948 0
DWIDTH 10 0
BBX 9 7 1 -1
BITMAP
010000
0A0000
21AA80
C00080
21AA80
0A0000
010000
ENDCHAR
STARTCHAR uni21E7
ENCODING 8679
SWIDTH 720 0
DWIDTH 8 0
BBX 6 9 1 -2
BITMAP
0900
1640
5050
A0A0
2040
2040
2040
2040
1A40
ENDCHAR
STARTCHAR uni21E8
ENCODING 8680
SWIDTH 948 0
DWIDTH 10 0
BBX 10 7 0 -1
BITMAP
001000
002900
6AA140
500090
6AA140
002900
001000
ENDCHAR
STARTCHAR uni21E9
ENCODING 8681
SWIDTH 720 0
DWIDTH 8 0
BBX 6 9 1 -2
BITMAP
1A40
2040
2040
2040
2040
A0A0
5050
1540
0A00
ENDCHAR
STARTCHAR uni21EA
ENCODING 8682
SWIDTH 720 0
DWIDTH 8 0
BBX 7 10 0 -2
BITMAP
0140
0280
0820
2418
6828
0810
0690
0000
0690
0690
ENDCHAR
STARTCHAR uni21F4
ENCODING 8692
SWIDTH 948 0
DWIDTH 10 0
BBX 9 4 1 1
BITMAP
064400
088500
AEEB40
064400
ENDCHAR
STARTCHAR uni21F5
ENCODING 8693
SWIDTH 791 0
DWIDTH 9 0
BBX 8 9 0 -2
BITMAP
0818
0869
0858
0818
0818
0818
5958
1E18
0818
ENDCHAR
STARTCHAR uni21F6
ENCODING 8694
SWIDTH 948 0
DWIDTH 10 0
BBX 10 12 0 -3
BITMAP
000100
000140
6AAAD0
000140
000200
000140
6AAAD0
000140
000140
6AAAD0
000140
000100
ENDCHAR
STARTCHAR uni21F7
ENCODING 8695
SWIDTH 948 0
DWIDTH 10 0
BBX 9 5 1 0
BITMAP
041000
205000
FAAA80
205000
045000
ENDCHAR
STARTCHAR uni21F8
ENCODING 8696
SWIDTH 948 0
DWIDTH 10 0
BBX 10 5 0 0
BITMAP
004100
008140
6AEAD0
008140
004100
ENDCHAR
STARTCHAR uni21F9
ENCODING 8697
SWIDTH 948 0
DWIDTH 10 0
BBX 10 5 0 0
BITMAP
001100
181140
7EBAE0
181180
051100
ENDCHAR
STARTCHAR uni21FA
ENCODING 8698
SWIDTH 948 0
DWIDTH 10 0
BBX 9 5 1 0
BITMAP
045000
209400
FAFA80
209400
045400
ENDCHAR
STARTCHAR uni21FB
ENCODING 8699
SWIDTH 948 0
DWIDTH 10 0
BBX 10 5 0 0
BITMAP
014100
025140
6BEAD0
025140
015100
ENDCHAR
STARTCHAR uni21FC
ENCODING 8700
SWIDTH 948 0
DWIDTH 10 0
BBX 10 5 0 0
BITMAP
005100
149540
7EFAE0
149480
045500
ENDCHAR
STARTCHAR uni21FD
ENCODING 8701
SWIDTH 948 0
DWIDTH 10 0
BBX 9 5 1 0
BITMAP
040000
280000
DAAA80
280000
040000
ENDCHAR
STARTCHAR uni21FE
ENCODING 8702
SWIDTH 948 0
DWIDTH 10 0
BBX 10 5 0 0
BITMAP
000500
000640
6AA990
000640
000500
ENDCHAR
STARTCHAR uni21FF
ENCODING 8703
SWIDTH 948 0
DWIDTH 10 0
BBX 10 5 0 0
BITMAP
050100
190280
66AA60
190280
040100
ENDCHAR
STARTCHAR uni2200
ENCODING 8704
SWIDTH 573 0
DWIDTH 6 0
BBX 6 8 0 -1
BITMAP
8020
5020
3AD0
2080
1980
0A40
0A00
0100
ENDCHAR
STARTCHAR uni2201
ENCODING 8705
SWIDTH 474 0
DWIDTH 5 0
BBX 5 9 0 0
BITMAP
2A00
6140
5040
5000
5000
5000
5040
6140
2A00
ENDCHAR
STARTCHAR partialdiff
ENCODING 8706
SWIDTH 478 0
DWIDTH 5 0
BBX 5 8 0 0
BITMAP
1A00
0240
0080
2E80
5180
4080
5140
2E00
ENDCHAR
STARTCHAR uni2203
ENCODING 8707
SWIDTH 573 0
DWIDTH 6 0
BBX 5 8 1 0
BITMAP
AA40
0140
0140
0140
AA40
0140
0140
AA40
ENDCHAR
STARTCHAR uni2204
ENCODING 8708
SWIDTH 573 0
DWIDTH 6 0
BBX 5 11 1 -2
BITMAP
0100
AB40
0940
0940
0540
BA40
2140
5140
EA40
8000
4000
ENDCHAR
STARTCHAR uni2205
ENCODING 8709
SWIDTH 780 0
DWIDTH 9 0
BBX 8 8 0 -1
BITMAP
06A5
181C
2026
5092
5242
2902
2818
26A0
ENDCHAR
STARTCHAR uni2206
ENCODING 8710
SWIDTH 748 0
DWIDTH 8 0
BBX 7 8 1 0
BITMAP
0500
0A00
0740
1280
10C0
5090
8070
9564
ENDCHAR
STARTCHAR uni2207
ENCODING 8711
SWIDTH 748 0
DWIDTH 8 0
BBX 7 8 1 0
BITMAP
9564
9010
7010
3440
1840
0D40
0A00
0100
ENDCHAR
STARTCHAR uni2208
ENCODING 8712
SWIDTH 720 0
DWIDTH 8 0
BBX 6 7 1 0
BITMAP
2AA0
9000
C000
EAA0
C000
9000
2AA0
ENDCHAR
STARTCHAR uni2209
ENCODING 8713
SWIDTH 720 0
DWIDTH 8 0
BBX 6 10 1 -2
BITMAP
0050
2AE0
9140
C200
EEA0
C800
A400
3AA0
5000
4000
ENDCHAR
STARTCHAR uni220A
ENCODING 8714
SWIDTH 497 0
DWIDTH 5 0
BBX 5 5 0 0
BITMAP
1A80
2000
7A80
2000
1A80
ENDCHAR
STARTCHAR uni220B
ENCODING 8715
SWIDTH 720 0
DWIDTH 8 0
BBX 6 7 1 0
BITMAP
AA40
00A0
0030
AAB0
0030
0090
AA40
ENDCHAR
STARTCHAR uni220C
ENCODING 8716
SWIDTH 720 0
DWIDTH 8 0
BBX 6 10 1 -2
BITMAP
0050
AA80
01A0
0230
AAB0
0830
1490
BA40
5000
4000
ENDCHAR
STARTCHAR uni220D
ENCODING 8717
SWIDTH 497 0
DWIDTH 5 0
BBX 5 5 0 0
BITMAP
6A00
0140
6A80
0180
6A00
ENDCHAR
STARTCHAR uni220E
ENCODING 8718
SWIDTH 558 0
DWIDTH 6 0
BBX 6 7 0 0
BITMAP
7FD0
7FD0
7FD0
7FD0
7FD0
7FD0
7FD0
ENDCHAR
STARTCHAR uni220F
ENCODING 8719
SWIDTH 1135 0
DWIDTH 12 0
BBX 11 12 1 -3
BITMAP
AAAAA4
2801C0
2801C0
2801C0
2801C0
2801C0
2801C0
2801C0
2801C0
2801C0
2801C0
6A06A4
ENDCHAR
STARTCHAR uni2210
ENCODING 8720
SWIDTH 1135 0
DWIDTH 12 0
BBX 11 12 1 -3
BITMAP
6A06A4
2801C0
2801C0
2801C0
2801C0
2801C0
2801C0
2801C0
2801C0
2801C0
2801C0
AAAAA4
ENDCHAR
STARTCHAR uni2211
ENCODING 8721
SWIDTH 936 0
DWIDTH 10 0
BBX 9 11 1 -3
BITMAP
AAAA00
740200
2C0100
0A0000
038000
018000
020000
090000
140140
600200
FFFF00
ENDCHAR
STARTCHAR uni2212
ENCODING 8722
SWIDTH 720 0
DWIDTH 8 0
BBX 8 1 0 2
BITMAP
6AA9
ENDCHAR
STARTCHAR uni2213
ENCODING 8723
SWIDTH 720 0
DWIDTH 8 0
BBX 8 7 0 -1
BITMAP
6AA9
0100
0140
0140
6BE9
0140
0140
ENDCHAR
STARTCHAR uni2214
ENCODING 8724
SWIDTH 720 0
DWIDTH 8 0
BBX 8 9 0 -1
BITMAP
0280
0000
0140
0140
0140
6BE9
0140
0140
0140
ENDCHAR
STARTCHAR uni2215
ENCODING 8725
SWIDTH 535 0
DWIDTH 6 0
BBX 5 11 0 -2
BITMAP
0040
0080
0180
0240
0200
0500
0800
0800
2400
2000
6000
ENDCHAR
STARTCHAR uni2216
ENCODING 8726
SWIDTH 535 0
DWIDTH 6 0
BBX 6 11 0 -2
BITMAP
5000
2000
2000
1400
0800
0900
0600
0200
0140
0080
0090
ENDCHAR
STARTCHAR uni2217
ENCODING 8727
SWIDTH 536 0
DWIDTH 6 0
BBX 4 5 1 0
BITMAP
14
96
28
96
14
ENDCHAR
STARTCHAR uni2218
ENCODING 8728
SWIDTH 436 0
DWIDTH 5 0
BBX 4 4 0 1
BITMAP
29
52
52
29
ENDCHAR
STARTCHAR uni2219
ENCODING 8729
SWIDTH 457 0
DWIDTH 5 0
BBX 3 3 1 1
BITMAP
64
B8
74
ENDCHAR
STARTCHAR uni221A
ENCODING 8730
SWIDTH 794 0
DWIDTH 9 0
BBX 9 14 0 -4
BITMAP
000280
000200
000500
000800
000800
000800
741400
5C2000
0D2000
062000
035000
02C000
018000
004000
ENDCHAR
STARTCHAR uni221B
ENCODING 8731
SWIDTH 794 0
DWIDTH 9 0
BBX 9 15 0 -4
BITMAP
180000
080280
190200
050500
640800
000800
000800
741400
5C2000
0D2000
062000
035000
02C000
018000
004000
ENDCHAR
STARTCHAR uni221C
ENCODING 8732
SWIDTH 794 0
DWIDTH 9 0
BBX 9 15 0 -4
BITMAP
090000
190280
150200
6A0500
050800
000800
000800
741400
5C2000
0D2000
062000
035000
02C000
018000
004000
ENDCHAR
STARTCHAR uni221D
ENCODING 8733
SWIDTH 720 0
DWIDTH 8 0
BBX 8 5 0 0
BITMAP
1A49
51E4
50A0
60B4
2E19
ENDCHAR
STARTCHAR uni221E
ENCODING 8734
SWIDTH 953 0
DWIDTH 10 0
BBX 9 5 1 0
BITMAP
692E00
839240
81C080
D6A140
692900
ENDCHAR
STARTCHAR uni221F
ENCODING 8735
SWIDTH 720 0
DWIDTH 8 0
BBX 8 7 0 0
BITMAP
5000
5000
5000
5000
5000
5000
6AA9
ENDCHAR
STARTCHAR uni2220
ENCODING 8736
SWIDTH 720 0
DWIDTH 8 0
BBX 7 6 1 0
BITMAP
0060
0180
0600
1800
6000
AAA4
ENDCHAR
STARTCHAR uni2221
ENCODING 8737
SWIDTH 720 0
DWIDTH 8 0
BBX 7 7 1 -1
BITMAP
0060
0680
0740
1880
6080
AAE4
0050
ENDCHAR
STARTCHAR uni2222
ENCODING 8738
SWIDTH 720 0
DWIDTH 8 0
BBX 6 6 1 0
BITMAP
0090
01E0
6950
A450
0690
00A0
ENDCHAR
STARTCHAR uni2223
ENCODING 8739
SWIDTH 272 0
DWIDTH 3 0
BBX 1 10 1 -2
BITMAP
80
80
80
80
80
80
80
80
80
80
ENDCHAR
STARTCHAR uni2224
ENCODING 8740
SWIDTH 413 0
DWIDTH 5 0
BBX 4 10 0 -2
BITMAP
08
08
08
08
0A
68
08
08
08
08
ENDCHAR
STARTCHAR uni2225
ENCODING 8741
SWIDTH 535 0
DWIDTH 6 0
BBX 4 10 1 -2
BITMAP
95
95
95
95
95
95
95
95
95
95
ENDCHAR
STARTCHAR uni2226
ENCODING 8742
SWIDTH 623 0
DWIDTH 7 0
BBX 7 10 0 -2
BITMAP
0880
0880
0880
0894
09D0
1D80
5880
0880
0880
0880
ENDCHAR
STARTCHAR uni2227
ENCODING 8743
SWIDTH 636 0
DWIDTH 7 0
BBX 7 7 0 0
BITMAP
0100
0300
0A40
0880
1450
2020
5014
ENDCHAR
STARTCHAR uni2228
ENCODING 8744
SWIDTH 636 0
DWIDTH 7 0
BBX 7 7 0 0
BITMAP
4004
6024
2020
1890
0880
0740
0200
ENDCHAR
STARTCHAR uni2229
ENCODING 8745
SWIDTH 636 0
DWIDTH 7 0
BBX 7 6 0 0
BITMAP
0A80
2020
5014
5014
5014
5014
ENDCHAR
STARTCHAR uni222A
ENCODING 8746
SWIDTH 636 0
DWIDTH 7 0
BBX 7 7 0 0
BITMAP
5014
5014
5014
5014
5014
2020
0A80
ENDCHAR
STARTCHAR uni222B
ENCODING 8747
SWIDTH 684 0
DWIDTH 8 0
BBX 7 11 0 -3
BITMAP
0018
0098
0080
0180
0240
0340
0300
0600
0500
9800
5400
ENDCHAR
STARTCHAR uni222C
ENCODING 8748
SWIDTH 1016 0
DWIDTH 11 0
BBX 11 11 0 -3
BITMAP
001864
009898
008140
018240
024300
034700
030600
060900
050800
988800
545000
ENDCHAR
STARTCHAR uni222D
ENCODING 8749
SWIDTH 1348 0
DWIDTH 15 0
BBX 15 11 0 -3
BITMAP
00186464
00989964
00814200
01824300
02430600
03470A00
03060900
06090C00
05081800
98899400
54509000
ENDCHAR
STARTCHAR uni222E
ENCODING 8750
SWIDTH 684 0
DWIDTH 8 0
BBX 7 11 0 -3
BITMAP
0018
009C
00C0
0680
12A0
1350
1720
0B40
0900
9800
5400
ENDCHAR
STARTCHAR uni222F
ENCODING 8751
SWIDTH 1016 0
DWIDTH 11 0
BBX 11 11 0 -3
BITMAP
001864
009C98
00C180
069740
164390
234720
170650
065A40
050C00
98D800
545000
ENDCHAR
STARTCHAR uni2230
ENCODING 8752
SWIDTH 1348 0
DWIDTH 15 0
BBX 15 11 0 -3
BITMAP
00186464
009C99A4
00C18240
06979700
1A430650
23470A20
17060950
065A5E40
050C1800
98D9A400
54509000
ENDCHAR
STARTCHAR uni2231
ENCODING 8753
SWIDTH 684 0
DWIDTH 8 0
BBX 7 11 0 -3
BITMAP
0018
0098
0080
0180
0690
1764
1304
0600
0500
9800
6400
ENDCHAR
STARTCHAR uni2232
ENCODING 8754
SWIDTH 684 0
DWIDTH 8 0
BBX 7 11 0 -3
BITMAP
0028
0088
06C0
12A4
2258
1304
1720
0A40
0900
9800
5000
ENDCHAR
STARTCHAR uni2233
ENCODING 8755
SWIDTH 684 0
DWIDTH 8 0
BBX 7 11 0 -3
BITMAP
0018
009C
00C0
06C0
1264
1354
1710
0B40
0900
9800
5400
ENDCHAR
STARTCHAR uni2234
ENCODING 8756
SWIDTH 635 0
DWIDTH 7 0
BBX 7 6 0 0
BITMAP
0300
0100
0000
0000
0000
6024
ENDCHAR
STARTCHAR uni2235
ENCODING 8757
SWIDTH 635 0
DWIDTH 7 0
BBX 7 7 0 -1
BITMAP
6024
0000
0000
0000
0000
0300
0100
ENDCHAR
STARTCHAR uni2236
ENCODING 8758
SWIDTH 523 0
DWIDTH 6 0
BBX 2 6 2 0
BITMAP
90
00
00
00
00
90
ENDCHAR
STARTCHAR uni2237
ENCODING 8759
SWIDTH 720 0
DWIDTH 8 0
BBX 6 6 1 0
BITMAP
D060
4000
0000
0000
0000
D060
ENDCHAR
STARTCHAR uni2238
ENCODING 8760
SWIDTH 720 0
DWIDTH 8 0
BBX 8 3 0 2
BITMAP
0280
0000
6AA9
ENDCHAR
STARTCHAR uni2239
ENCODING 8761
SWIDTH 720 0
DWIDTH 8 0
BBX 7 6 0 -1
BITMAP
000C
0004
6A80
0000
000C
0004
ENDCHAR
STARTCHAR uni223A
ENCODING 8762
SWIDTH 720 0
DWIDTH 8 0
BBX 8 6 0 -1
BITMAP
700C
1004
6AA9
0000
700C
1004
ENDCHAR
STARTCHAR uni223B
ENCODING 8763
SWIDTH 720 0
DWIDTH 8 0
BBX 8 6 0 0
BITMAP
0280
0000
1901
1284
4064
0280
ENDCHAR
STARTCHAR uni223C
ENCODING 8764
SWIDTH 720 0
DWIDTH 8 0
BBX 7 2 0 2
BITMAP
2A44
51A4
ENDCHAR
STARTCHAR uni223D
ENCODING 8765
SWIDTH 720 0
DWIDTH 8 0
BBX 7 3 0 2
BITMAP
4000
11A4
1A44
ENDCHAR
STARTCHAR uni223E
ENCODING 8766
SWIDTH 720 0
DWIDTH 8 0
BBX 8 4 0 1
BITMAP
2818
4105
4045
2468
ENDCHAR
STARTCHAR uni223F
ENCODING 8767
SWIDTH 720 0
DWIDTH 8 0
BBX 6 5 1 0
BITMAP
6400
8800
4510
0220
0190
ENDCHAR
STARTCHAR uni2240
ENCODING 8768
SWIDTH 293 0
DWIDTH 3 0
BBX 3 7 0 0
BITMAP
50
14
08
24
60
50
24
ENDCHAR
STARTCHAR uni2241
ENCODING 8769
SWIDTH 720 0
DWIDTH 8 0
BBX 7 4 0 1
BITMAP
0080
1A84
52A4
0500
ENDCHAR
STARTCHAR uni2242
ENCODING 8770
SWIDTH 720 0
DWIDTH 8 0
BBX 8 5 0 1
BITMAP
6AA9
0000
0000
2A44
51A4
ENDCHAR
STARTCHAR uni2243
ENCODING 8771
SWIDTH 720 0
DWIDTH 8 0
BBX 8 5 0 0
BITMAP
1904
1144
0010
0000
6AA9
ENDCHAR
STARTCHAR uni2244
ENCODING 8772
SWIDTH 720 0
DWIDTH 8 0
BBX 8 6 0 -1
BITMAP
1951
12C4
41A4
0200
6BA9
0400
ENDCHAR
STARTCHAR uni2245
ENCODING 8773
SWIDTH 720 0
DWIDTH 8 0
BBX 8 7 0 0
BITMAP
1901
1284
4064
0000
6AA9
0000
6AA9
ENDCHAR
STARTCHAR uni2246
ENCODING 8774
SWIDTH 720 0
DWIDTH 8 0
BBX 8 8 0 -1
BITMAP
2A44
41A4
0000
0010
6AE9
0140
6BA9
0800
ENDCHAR
STARTCHAR uni2247
ENCODING 8775
SWIDTH 720 0
DWIDTH 8 0
BBX 8 10 0 -2
BITMAP
0010
0020
1A54
50A4
0080
6AA9
0200
6AA9
0800
0400
ENDCHAR
STARTCHAR uni2248
ENCODING 8776
SWIDTH 720 0
DWIDTH 8 0
BBX 7 5 0 0
BITMAP
1A44
11A4
0000
2A44
51A4
ENDCHAR
STARTCHAR uni2249
ENCODING 8777
SWIDTH 720 0
DWIDTH 8 0
BBX 8 7 0 -1
BITMAP
0010
2A84
51A4
1A01
1384
4564
0800
ENDCHAR
STARTCHAR uni224A
ENCODING 8778
SWIDTH 720 0
DWIDTH 8 0
BBX 8 7 0 -1
BITMAP
1904
1144
0000
1A44
51A4
0000
6AA9
ENDCHAR
STARTCHAR uni224B
ENCODING 8779
SWIDTH 720 0
DWIDTH 8 0
BBX 7 7 0 0
BITMAP
1900
1284
4064
2A44
41A4
2A44
41A4
ENDCHAR
STARTCHAR uni224C
ENCODING 8780
SWIDTH 720 0
DWIDTH 8 0
BBX 8 7 0 0
BITMAP
4064
1284
1900
0000
6AA9
0000
6AA9
ENDCHAR
STARTCHAR uni224D
ENCODING 8781
SWIDTH 720 0
DWIDTH 8 0
BBX 6 5 1 0
BITMAP
8020
2A80
0000
2A80
4020
ENDCHAR
STARTCHAR uni224E
ENCODING 8782
SWIDTH 720 0
DWIDTH 8 0
BBX 8 5 0 0
BITMAP
0280
6969
0000
6969
0680
ENDCHAR
STARTCHAR uni224F
ENCODING 8783
SWIDTH 720 0
DWIDTH 8 0
BBX 8 4 0 1
BITMAP
0280
6869
0000
6AA9
ENDCHAR
STARTCHAR uni2250
ENCODING 8784
SWIDTH 720 0
DWIDTH 8 0
BBX 8 6 0 1
BITMAP
0280
0000
0000
6AA9
0000
6AA9
ENDCHAR
STARTCHAR uni2251
ENCODING 8785
SWIDTH 720 0
DWIDTH 8 0
BBX 8 8 0 -1
BITMAP
0280
0000
0000
6AA9
0000
6AA9
0000
0280
ENDCHAR
STARTCHAR uni2252
ENCODING 8786
SWIDTH 720 0
DWIDTH 8 0
BBX 8 9 0 -2
BITMAP
7000
1000
0000
6AA9
0000
6AA9
0000
000D
0004
ENDCHAR
STARTCHAR uni2253
ENCODING 8787
SWIDTH 720 0
DWIDTH 8 0
BBX 8 9 0 -2
BITMAP
000D
0004
0000
6AA9
0000
6AA9
0000
7000
1000
ENDCHAR
STARTCHAR uni2254
ENCODING 8788
SWIDTH 844 0
DWIDTH 9 0
BBX 9 3 0 1
BITMAP
72AA80
100000
72AA80
ENDCHAR
STARTCHAR uni2255
ENCODING 8789
SWIDTH 844 0
DWIDTH 9 0
BBX 9 3 0 1
BITMAP
6AA680
000000
6AA680
ENDCHAR
STARTCHAR uni2256
ENCODING 8790
SWIDTH 720 0
DWIDTH 8 0
BBX 8 4 0 1
BITMAP
6BE9
0680
0680
6BE9
ENDCHAR
STARTCHAR uni2257
ENCODING 8791
SWIDTH 720 0
DWIDTH 8 0
BBX 8 7 0 1
BITMAP
0280
0550
0280
0000
6AA9
0000
6AA9
ENDCHAR
STARTCHAR uni2258
ENCODING 8792
SWIDTH 720 0
DWIDTH 8 0
BBX 8 7 0 1
BITMAP
0690
1414
0000
0000
6AA9
0000
6AA9
ENDCHAR
STARTCHAR uni2259
ENCODING 8793
SWIDTH 720 0
DWIDTH 8 0
BBX 8 8 0 1
BITMAP
0240
0280
0860
1420
0000
6AA9
0000
6AA9
ENDCHAR
STARTCHAR uni225A
ENCODING 8794
SWIDTH 720 0
DWIDTH 8 0
BBX 8 9 0 1
BITMAP
1410
0820
0590
0280
0100
0000
6AA9
0000
6AA9
ENDCHAR
STARTCHAR uni225B
ENCODING 8795
SWIDTH 720 0
DWIDTH 8 0
BBX 8 7 0 1
BITMAP
0240
07D0
0280
0000
6AA9
0000
6AA9
ENDCHAR
STARTCHAR uni225C
ENCODING 8796
SWIDTH 720 0
DWIDTH 8 0
BBX 8 8 0 1
BITMAP
0140
0280
0860
1AB4
0000
6AA9
0000
6AA9
ENDCHAR
STARTCHAR uni225D
ENCODING 8797
SWIDTH 720 0
DWIDTH 8 0
BBX 8 8 0 1
BITMAP
0400
5958
8A58
5544
0000
6AA9
0000
6AA9
ENDCHAR
STARTCHAR uni225E
ENCODING 8798
SWIDTH 720 0
DWIDTH 8 0
BBX 8 7 0 1
BITMAP
0550
0960
0960
0550
6AA9
0000
6AA9
ENDCHAR
STARTCHAR uni225F
ENCODING 8799
SWIDTH 720 0
DWIDTH 8 0
BBX 8 9 0 1
BITMAP
0140
0580
0080
0100
0140
0000
6AA9
0000
6AA9
ENDCHAR
STARTCHAR uni2260
ENCODING 8800
SWIDTH 720 0
DWIDTH 8 0
BBX 8 9 0 -2
BITMAP
0020
0020
0040
6AE9
0140
6BA9
0500
0800
0400
ENDCHAR
STARTCHAR uni2261
ENCODING 8801
SWIDTH 720 0
DWIDTH 8 0
BBX 8 5 0 0
BITMAP
6AA9
0000
6AA9
0000
6AA9
ENDCHAR
STARTCHAR uni2262
ENCODING 8802
SWIDTH 720 0
DWIDTH 8 0
BBX 8 9 0 -2
BITMAP
0020
0020
6AE9
0080
6BA9
0200
6AA9
0800
0400
ENDCHAR
STARTCHAR uni2263
ENCODING 8803
SWIDTH 720 0
DWIDTH 8 0
BBX 8 7 0 -1
BITMAP
6AA9
0000
6AA9
0000
6AA9
0000
6AA9
ENDCHAR
STARTCHAR uni2264
ENCODING 8804
SWIDTH 720 0
DWIDTH 8 0
BBX 6 8 1 -1
BITMAP
0060
0640
6400
6400
0640
0060
0000
AAA0
ENDCHAR
STARTCHAR uni2265
ENCODING 8805
SWIDTH 720 0
DWIDTH 8 0
BBX 6 8 1 -1
BITMAP
9000
1900
0190
0190
1900
9000
0000
AAA0
ENDCHAR
STARTCHAR uni2266
ENCODING 8806
SWIDTH 720 0
DWIDTH 8 0
BBX 6 10 1 -2
BITMAP
00A0
0A40
A400
6800
0680
0020
0000
AAA0
0000
AAA0
ENDCHAR
STARTCHAR uni2267
ENCODING 8807
SWIDTH 720 0
DWIDTH 8 0
BBX 6 10 1 -2
BITMAP
A000
1A00
01A0
0290
2800
8000
0000
AAA0
0000
AAA0
ENDCHAR
STARTCHAR uni2268
ENCODING 8808
SWIDTH 720 0
DWIDTH 8 0
BBX 6 11 1 -3
BITMAP
00A0
0A40
A400
6800
0680
0020
0140
ABA0
0500
AEA0
1000
ENDCHAR
STARTCHAR uni2269
ENCODING 8809
SWIDTH 720 0
DWIDTH 8 0
BBX 6 11 1 -3
BITMAP
A000
1A00
01A0
0290
2800
8000
0040
ABA0
0500
AEA0
1000
ENDCHAR
STARTCHAR uni226A
ENCODING 8810
SWIDTH 955 0
DWIDTH 11 0
BBX 11 6 0 0
BITMAP
001424
019680
196800
64A400
064640
006460
ENDCHAR
STARTCHAR uni226B
ENCODING 8811
SWIDTH 955 0
DWIDTH 11 0
BBX 10 6 0 0
BITMAP
909000
192900
019290
00A5A0
0A5A00
649000
ENDCHAR
STARTCHAR uni226C
ENCODING 8812
SWIDTH 477 0
DWIDTH 5 0
BBX 3 10 1 -2
BITMAP
44
20
24
88
88
88
88
68
30
54
ENDCHAR
STARTCHAR uni226D
ENCODING 8813
SWIDTH 720 0
DWIDTH 8 0
BBX 6 7 1 -1
BITMAP
0080
8160
2B80
0500
2E80
5410
2000
ENDCHAR
STARTCHAR uni226E
ENCODING 8814
SWIDTH 720 0
DWIDTH 8 0
BBX 6 9 1 -2
BITMAP
0040
0090
01E0
1A00
A500
1D00
0590
2010
2000
ENDCHAR
STARTCHAR uni226F
ENCODING 8815
SWIDTH 720 0
DWIDTH 8 0
BBX 6 9 1 -2
BITMAP
0080
4080
A600
0B40
05A0
0A40
7400
6000
5000
ENDCHAR
STARTCHAR uni2270
ENCODING 8816
SWIDTH 720 0
DWIDTH 8 0
BBX 7 11 0 -2
BITMAP
0010
0020
0028
01D0
1980
1940
0290
0218
0500
6EA8
0800
ENDCHAR
STARTCHAR uni2271
ENCODING 8817
SWIDTH 720 0
DWIDTH 8 0
BBX 7 11 0 -2
BITMAP
0010
0020
2450
0680
00A4
01A4
0640
2600
0400
6EA8
1400
ENDCHAR
STARTCHAR uni2272
ENCODING 8818
SWIDTH 720 0
DWIDTH 8 0
BBX 7 10 0 -2
BITMAP
0004
0064
0640
2800
0A40
0064
0004
0000
2A44
51A4
ENDCHAR
STARTCHAR uni2273
ENCODING 8819
SWIDTH 720 0
DWIDTH 8 0
BBX 7 10 0 -2
BITMAP
1000
2900
0290
0028
0190
1900
1000
0000
2A44
51A4
ENDCHAR
STARTCHAR uni2274
ENCODING 8820
SWIDTH 720 0
DWIDTH 8 0
BBX 7 11 0 -3
BITMAP
0010
0068
06C0
2880
0A40
02A4
0204
0200
1A04
59A4
0800
ENDCHAR
STARTCHAR uni2275
ENCODING 8821
SWIDTH 720 0
DWIDTH 8 0
BBX 7 11 0 -3
BITMAP
0050
2880
0680
0168
02A4
1B40
1200
0500
1E44
59A4
1400
ENDCHAR
STARTCHAR uni2276
ENCODING 8822
SWIDTH 720 0
DWIDTH 8 0
BBX 6 10 1 -2
BITMAP
0060
0680
A400
6900
0290
A010
1A40
00A0
0A40
A000
ENDCHAR
STARTCHAR uni2277
ENCODING 8823
SWIDTH 720 0
DWIDTH 8 0
BBX 6 10 1 -2
BITMAP
9000
2900
0190
0690
6400
40A0
1A00
A000
1A00
00A0
ENDCHAR
STARTCHAR uni2278
ENCODING 8824
SWIDTH 720 0
DWIDTH 8 0
BBX 8 12 0 -3
BITMAP
0010
0059
01A4
1980
1A80
01A4
6545
0780
0268
0290
2A00
1500
ENDCHAR
STARTCHAR uni2279
ENCODING 8825
SWIDTH 720 0
DWIDTH 8 0
BBX 8 12 0 -3
BITMAP
0010
6050
1A80
00A4
00E4
1A40
5159
0290
2A00
0B40
0168
0504
ENDCHAR
STARTCHAR uni227A
ENCODING 8826
SWIDTH 720 0
DWIDTH 8 0
BBX 6 6 1 0
BITMAP
0010
00A0
5A40
AD00
0190
0020
ENDCHAR
STARTCHAR uni227B
ENCODING 8827
SWIDTH 720 0
DWIDTH 8 0
BBX 6 6 1 0
BITMAP
4000
A000
1A50
07A0
6400
8000
ENDCHAR
STARTCHAR uni227C
ENCODING 8828
SWIDTH 720 0
DWIDTH 8 0
BBX 6 8 1 -1
BITMAP
0010
0060
5A40
BD00
0680
A420
0680
0060
ENDCHAR
STARTCHAR uni227D
ENCODING 8829
SWIDTH 720 0
DWIDTH 8 0
BBX 6 8 1 -1
BITMAP
4000
9000
1A50
07E0
6400
81A0
2900
9000
ENDCHAR
STARTCHAR uni227E
ENCODING 8830
SWIDTH 720 0
DWIDTH 8 0
BBX 7 9 0 -2
BITMAP
0018
01A0
3F40
0690
0018
0004
0000
2A44
51A4
ENDCHAR
STARTCHAR uni227F
ENCODING 8831
SWIDTH 720 0
DWIDTH 8 0
BBX 7 9 0 -2
BITMAP
2000
0A40
01FC
0650
2400
1000
0000
2A44
51A4
ENDCHAR
STARTCHAR uni2280
ENCODING 8832
SWIDTH 720 0
DWIDTH 8 0
BBX 6 9 1 -2
BITMAP
0010
0080
00A0
0680
FE00
0B80
0860
0800
1000
ENDCHAR
STARTCHAR uni2281
ENCODING 8833
SWIDTH 720 0
DWIDTH 8 0
BBX 6 9 1 -2
BITMAP
0140
0200
8200
2900
0BF0
2900
A000
6000
4000
ENDCHAR
STARTCHAR uni2282
ENCODING 8834
SWIDTH 720 0
DWIDTH 8 0
BBX 6 7 1 0
BITMAP
2AA0
9000
C000
8000
C000
9000
2AA0
ENDCHAR
STARTCHAR uni2283
ENCODING 8835
SWIDTH 720 0
DWIDTH 8 0
BBX 6 7 1 0
BITMAP
AA40
0060
0030
0020
0030
0050
AA40
ENDCHAR
STARTCHAR uni2284
ENCODING 8836
SWIDTH 720 0
DWIDTH 8 0
BBX 6 9 1 -1
BITMAP
0040
2AE0
9100
C200
8500
8800
9800
2AA0
2000
ENDCHAR
STARTCHAR uni2285
ENCODING 8837
SWIDTH 720 0
DWIDTH 8 0
BBX 6 9 1 -1
BITMAP
0040
AA80
0290
0230
0420
0830
1490
BA40
2000
ENDCHAR
STARTCHAR uni2286
ENCODING 8838
SWIDTH 720 0
DWIDTH 8 0
BBX 6 8 1 -1
BITMAP
2AA0
9000
8000
8000
9000
2AA0
0000
AAA0
ENDCHAR
STARTCHAR uni2287
ENCODING 8839
SWIDTH 720 0
DWIDTH 8 0
BBX 6 8 1 -1
BITMAP
AA80
0060
0030
0030
0060
AA80
0000
AAA0
ENDCHAR
STARTCHAR uni2288
ENCODING 8840
SWIDTH 720 0
DWIDTH 8 0
BBX 6 11 1 -2
BITMAP
0040
0080
2AE0
9140
8200
8100
9800
2EA0
1400
BAA0
2000
ENDCHAR
STARTCHAR uni2289
ENCODING 8841
SWIDTH 720 0
DWIDTH 8 0
BBX 6 11 1 -2
BITMAP
0040
0080
AA80
0160
0120
0530
0860
AE80
1400
BAA0
2000
ENDCHAR
STARTCHAR uni228A
ENCODING 8842
SWIDTH 720 0
DWIDTH 8 0
BBX 6 10 1 -2
BITMAP
2AA0
9000
C000
8000
C000
9000
2AA0
0200
AEA0
0400
ENDCHAR
STARTCHAR uni228B
ENCODING 8843
SWIDTH 720 0
DWIDTH 8 0
BBX 6 10 1 -2
BITMAP
AA40
0060
0030
0020
0030
0060
AA40
0200
AEA0
0800
ENDCHAR
STARTCHAR uni228C
ENCODING 8844
SWIDTH 636 0
DWIDTH 7 0
BBX 7 7 0 0
BITMAP
5014
5114
5214
5B94
5114
2020
0A80
ENDCHAR
STARTCHAR uni228D
ENCODING 8845
SWIDTH 636 0
DWIDTH 7 0
BBX 7 7 0 0
BITMAP
5014
5014
5014
5314
5114
2020
0A80
ENDCHAR
STARTCHAR uni228E
ENCODING 8846
SWIDTH 636 0
DWIDTH 7 0
BBX 7 7 0 0
BITMAP
5014
5114
5214
5B94
5214
2020
0A80
ENDCHAR
STARTCHAR uni228F
ENCODING 8847
SWIDTH 720 0
DWIDTH 8 0
BBX 7 7 0 0
BITMAP
2AA8
6000
6000
6000
6000
6000
2AA8
ENDCHAR
STARTCHAR uni2290
ENCODING 8848
SWIDTH 720 0
DWIDTH 8 0
BBX 6 7 1 0
BITMAP
AAA0
0020
0020
0020
0020
0020
AAA0
ENDCHAR
STARTCHAR uni2291
ENCODING 8849
SWIDTH 720 0
DWIDTH 8 0
BBX 7 8 0 -1
BITMAP
2AA8
6000
6000
6000
6000
2AA8
0000
2AA8
ENDCHAR
STARTCHAR uni2292
ENCODING 8850
SWIDTH 720 0
DWIDTH 8 0
BBX 6 8 1 -1
BITMAP
AAA0
0020
0020
0020
0020
AAA0
0000
AAA0
ENDCHAR
STARTCHAR uni2293
ENCODING 8851
SWIDTH 635 0
DWIDTH 7 0
BBX 7 6 0 0
BITMAP
6AA4
5014
5014
5014
5014
5014
ENDCHAR
STARTCHAR uni2294
ENCODING 8852
SWIDTH 635 0
DWIDTH 7 0
BBX 7 7 0 0
BITMAP
5014
5014
5014
5014
5014
5014
6AA4
ENDCHAR
STARTCHAR uni2295
ENCODING 8853
SWIDTH 862 0
DWIDTH 9 0
BBX 9 9 0 -2
BITMAP
01A400
099900
208240
508080
7AEAC0
508080
208140
198600
02A400
ENDCHAR
STARTCHAR uni2296
ENCODING 8854
SWIDTH 862 0
DWIDTH 9 0
BBX 9 9 0 -1
BITMAP
06A400
180600
200140
500080
6AAAC0
500080
200140
180600
02A400
ENDCHAR
STARTCHAR uni2297
ENCODING 8855
SWIDTH 862 0
DWIDTH 9 0
BBX 9 9 0 -1
BITMAP
06A400
1D0A00
290A40
526480
50E080
526480
290A40
180A00
02A400
ENDCHAR
STARTCHAR uni2298
ENCODING 8856
SWIDTH 862 0
DWIDTH 9 0
BBX 9 9 0 -1
BITMAP
06A400
190A00
200A40
502480
509080
624080
290140
180600
02A400
ENDCHAR
STARTCHAR uni2299
ENCODING 8857
SWIDTH 862 0
DWIDTH 9 0
BBX 9 9 0 -1
BITMAP
06A400
180600
200140
500080
50D080
504080
200140
180600
02A400
ENDCHAR
STARTCHAR uni229A
ENCODING 8858
SWIDTH 862 0
DWIDTH 9 0
BBX 9 9 0 -1
BITMAP
06A400
180600
200140
51A080
522080
51A080
200140
180600
02A400
ENDCHAR
STARTCHAR uni229B
ENCODING 8859
SWIDTH 862 0
DWIDTH 9 0
BBX 9 9 0 -1
BITMAP
06A400
180600
208140
565880
519080
565880
208140
180600
02A400
ENDCHAR
STARTCHAR uni229C
ENCODING 8860
SWIDTH 862 0
DWIDTH 9 0
BBX 9 9 0 -1
BITMAP
06A400
180600
200140
56A880
500080
56A880
200140
180600
02A400
ENDCHAR
STARTCHAR uni229D
ENCODING 8861
SWIDTH 862 0
DWIDTH 9 0
BBX 9 9 0 -1
BITMAP
06A400
180600
200140
500080
56A880
500080
200140
180600
02A400
ENDCHAR
STARTCHAR uni229E
ENCODING 8862
SWIDTH 932 0
DWIDTH 10 0
BBX 10 9 0 -2
BITMAP
6AAAA0
905020
905020
905020
AAAAA0
905020
905020
905020
6AAAA0
ENDCHAR
STARTCHAR uni229F
ENCODING 8863
SWIDTH 932 0
DWIDTH 10 0
BBX 10 9 0 -2
BITMAP
6AAAA0
900020
900020
900020
AAAAA0
900020
900020
900020
6AAAA0
ENDCHAR
STARTCHAR uni22A0
ENCODING 8864
SWIDTH 932 0
DWIDTH 10 0
BBX 10 9 0 -2
BITMAP
7AAAA0
A401A0
950620
915820
90A020
915820
950620
A401A0
7AAAA0
ENDCHAR
STARTCHAR uni22A1
ENCODING 8865
SWIDTH 932 0
DWIDTH 10 0
BBX 10 9 0 -2
BITMAP
6AAAA0
900020
900020
900020
906020
900020
900020
900020
6AAAA0
ENDCHAR
STARTCHAR uni22A2
ENCODING 8866
SWIDTH 720 0
DWIDTH 8 0
BBX 7 8 0 -1
BITMAP
6000
6000
6000
7AA8
6000
6000
6000
1000
ENDCHAR
STARTCHAR uni22A3
ENCODING 8867
SWIDTH 720 0
DWIDTH 8 0
BBX 6 8 1 -1
BITMAP
0020
0020
0020
AAB0
0020
0020
0020
0010
ENDCHAR
STARTCHAR uni22A4
ENCODING 8868
SWIDTH 720 0
DWIDTH 8 0
BBX 8 7 0 1
BITMAP
6AA9
0140
0140
0140
0140
0140
0140
ENDCHAR
STARTCHAR uni22A5
ENCODING 8869
SWIDTH 720 0
DWIDTH 8 0
BBX 8 8 0 0
BITMAP
0140
0140
0140
0140
0140
0140
0140
6AA9
ENDCHAR
STARTCHAR uni22A6
ENCODING 8870
SWIDTH 509 0
DWIDTH 6 0
BBX 5 7 0 0
BITMAP
5000
5000
5000
7A80
5000
5000
5000
ENDCHAR
STARTCHAR uni22A7
ENCODING 8871
SWIDTH 510 0
DWIDTH 6 0
BBX 5 7 0 0
BITMAP
5000
5000
7A80
5000
7A80
5000
5000
ENDCHAR
STARTCHAR uni22A8
ENCODING 8872
SWIDTH 720 0
DWIDTH 8 0
BBX 7 7 0 0
BITMAP
6000
6000
7AA8
6000
7AA8
6000
1000
ENDCHAR
STARTCHAR uni22A9
ENCODING 8873
SWIDTH 880 0
DWIDTH 10 0
BBX 9 8 0 -1
BITMAP
520000
520000
520000
53AA80
520000
520000
520000
010000
ENDCHAR
STARTCHAR uni22AA
ENCODING 8874
SWIDTH 880 0
DWIDTH 10 0
BBX 9 8 0 -1
BITMAP
962000
962000
962000
963A80
962000
962000
962000
411000
ENDCHAR
STARTCHAR uni22AB
ENCODING 8875
SWIDTH 880 0
DWIDTH 10 0
BBX 9 7 0 0
BITMAP
520000
520000
53AA80
520000
53AA80
520000
520000
ENDCHAR
STARTCHAR uni22AC
ENCODING 8876
SWIDTH 805 0
DWIDTH 9 0
BBX 8 8 0 -1
BITMAP
0805
0814
0850
0FEA
0A00
1800
6800
4400
ENDCHAR
STARTCHAR uni22AD
ENCODING 8877
SWIDTH 805 0
DWIDTH 9 0
BBX 8 7 0 0
BITMAP
0806
0818
0EBA
0940
0FAA
1800
5800
ENDCHAR
STARTCHAR uni22AE
ENCODING 8878
SWIDTH 991 0
DWIDTH 11 0
BBX 11 8 0 -1
BITMAP
088060
088240
088800
08FAA4
098000
0D8000
288000
444000
ENDCHAR
STARTCHAR uni22AF
ENCODING 8879
SWIDTH 991 0
DWIDTH 11 0
BBX 11 7 0 0
BITMAP
088060
088240
08EFA4
08A000
0AEAA4
188000
688000
ENDCHAR
STARTCHAR uni22B0
ENCODING 8880
SWIDTH 720 0
DWIDTH 8 0
BBX 6 7 1 -1
BITMAP
00A0
0020
01A0
BE40
05A0
0020
00A0
ENDCHAR
STARTCHAR uni22B1
ENCODING 8881
SWIDTH 720 0
DWIDTH 8 0
BBX 6 7 1 -1
BITMAP
A000
8000
A400
1BE0
A400
8000
A000
ENDCHAR
STARTCHAR uni22B2
ENCODING 8882
SWIDTH 720 0
DWIDTH 8 0
BBX 7 6 1 0
BITMAP
0024
06A4
6914
A414
0A54
0074
ENDCHAR
STARTCHAR uni22B3
ENCODING 8883
SWIDTH 720 0
DWIDTH 8 0
BBX 7 6 0 0
BITMAP
6000
6A00
51A4
5068
5640
6400
ENDCHAR
STARTCHAR uni22B4
ENCODING 8884
SWIDTH 720 0
DWIDTH 8 0
BBX 8 8 0 -1
BITMAP
0019
01A5
1905
1905
01A5
0019
0000
6AA9
ENDCHAR
STARTCHAR uni22B5
ENCODING 8885
SWIDTH 720 0
DWIDTH 8 0
BBX 8 8 0 -1
BITMAP
6400
5A40
50A4
5064
5A40
6400
0000
6AA9
ENDCHAR
STARTCHAR uni22B6
ENCODING 8886
SWIDTH 1172 0
DWIDTH 13 0
BBX 13 4 0 1
BITMAP
18001900
51002F40
52AABF40
19001900
ENDCHAR
STARTCHAR uni22B7
ENCODING 8887
SWIDTH 1172 0
DWIDTH 13 0
BBX 13 4 0 1
BITMAP
28001900
7E001140
7FAAA140
29001900
ENDCHAR
STARTCHAR uni22B8
ENCODING 8888
SWIDTH 869 0
DWIDTH 10 0
BBX 9 4 0 1
BITMAP
000640
000480
6AA480
000A40
ENDCHAR
STARTCHAR uni22B9
ENCODING 8889
SWIDTH 720 0
DWIDTH 8 0
BBX 8 7 0 0
BITMAP
0100
0140
0140
6829
0100
0140
0140
ENDCHAR
STARTCHAR uni22BA
ENCODING 8890
SWIDTH 491 0
DWIDTH 5 0
BBX 4 8 1 -3
BITMAP
B9
24
24
24
24
24
24
10
ENDCHAR
STARTCHAR uni22BB
ENCODING 8891
SWIDTH 635 0
DWIDTH 7 0
BBX 7 8 0 -2
BITMAP
4004
2020
2460
0880
0980
0300
0000
6AA4
ENDCHAR
STARTCHAR uni22BC
ENCODING 8892
SWIDTH 635 0
DWIDTH 7 0
BBX 7 8 0 -1
BITMAP
6AA4
0100
0300
0980
0880
2460
2020
5014
ENDCHAR
STARTCHAR uni22BD
ENCODING 8893
SWIDTH 635 0
DWIDTH 7 0
BBX 7 8 0 -1
BITMAP
6AA4
4004
2020
2020
0880
0980
0740
0100
ENDCHAR
STARTCHAR uni22BE
ENCODING 8894
SWIDTH 720 0
DWIDTH 8 0
BBX 8 7 0 0
BITMAP
5000
5000
6400
5600
5180
5080
6AA9
ENDCHAR
STARTCHAR uni22BF
ENCODING 8895
SWIDTH 933 0
DWIDTH 10 0
BBX 9 9 1 -2
BITMAP
000180
000680
001880
006080
018080
060080
180080
600080
AAAA80
ENDCHAR
STARTCHAR uni22C0
ENCODING 8896
SWIDTH 946 0
DWIDTH 10 0
BBX 10 12 0 -3
BITMAP
001000
007000
00A400
019800
024C00
030900
060200
080200
080140
140080
200090
600060
ENDCHAR
STARTCHAR uni22C1
ENCODING 8897
SWIDTH 946 0
DWIDTH 10 0
BBX 9 12 1 -3
BITMAP
400040
800140
900200
600600
200900
240C00
081800
082400
052000
025000
02C000
018000
ENDCHAR
STARTCHAR uni22C2
ENCODING 8898
SWIDTH 946 0
DWIDTH 10 0
BBX 9 12 1 -3
BITMAP
0AE400
241900
900200
800240
800140
800140
800140
800140
800140
800140
800140
800140
ENDCHAR
STARTCHAR uni22C3
ENCODING 8899
SWIDTH 946 0
DWIDTH 10 0
BBX 9 12 1 -3
BITMAP
400140
800140
800140
800140
800140
800140
800140
800140
800140
900200
241900
0AA400
ENDCHAR
STARTCHAR uni22C4
ENCODING 8900
SWIDTH 535 0
DWIDTH 6 0
BBX 6 5 0 0
BITMAP
0A00
2180
6090
1A40
0500
ENDCHAR
STARTCHAR uni22C5
ENCODING 8901
SWIDTH 293 0
DWIDTH 3 0
BBX 1 1 1 2
BITMAP
C0
ENDCHAR
STARTCHAR uni22C6
ENCODING 8902
SWIDTH 716 0
DWIDTH 8 0
BBX 6 6 1 0
BITMAP
0500
0A00
BFE0
2F80
2F80
2080
ENDCHAR
STARTCHAR uni22C7
ENCODING 8903
SWIDTH 720 0
DWIDTH 8 0
BBX 8 7 0 -1
BITMAP
2288
1824
0690
6BE9
0960
2698
1004
ENDCHAR
STARTCHAR uni22C8
ENCODING 8904
SWIDTH 829 0
DWIDTH 9 0
BBX 9 8 0 -1
BITMAP
000040
600280
691980
52A180
51E180
5A1980
740780
500040
ENDCHAR
STARTCHAR uni22C9
ENCODING 8905
SWIDTH 829 0
DWIDTH 9 0
BBX 7 8 1 -1
BITMAP
4000
D018
A460
8A80
8740
98A0
E018
4004
ENDCHAR
STARTCHAR uni22CA
ENCODING 8906
SWIDTH 829 0
DWIDTH 9 0
BBX 7 8 1 -1
BITMAP
4000
901C
2468
0A88
0748
18A8
601C
4004
ENDCHAR
STARTCHAR uni22CB
ENCODING 8907
SWIDTH 829 0
DWIDTH 9 0
BBX 7 8 1 -1
BITMAP
4000
9000
2400
0900
0740
1890
6024
8008
ENDCHAR
STARTCHAR uni22CC
ENCODING 8908
SWIDTH 829 0
DWIDTH 9 0
BBX 7 8 1 -1
BITMAP
0004
0018
0060
0180
0740
1890
6024
8008
ENDCHAR
STARTCHAR uni22CD
ENCODING 8909
SWIDTH 720 0
DWIDTH 8 0
BBX 8 5 0 0
BITMAP
4064
1244
0400
0000
6AA9
ENDCHAR
STARTCHAR uni22CE
ENCODING 8910
SWIDTH 594 0
DWIDTH 7 0
BBX 6 7 0 0
BITMAP
5010
2050
1480
0940
0B00
0700
0600
ENDCHAR
STARTCHAR uni22CF
ENCODING 8911
SWIDTH 594 0
DWIDTH 7 0
BBX 6 7 0 0
BITMAP
0100
0600
0700
0A40
0980
2480
6020
ENDCHAR
STARTCHAR uni22D0
ENCODING 8912
SWIDTH 720 0
DWIDTH 8 0
BBX 6 7 1 0
BITMAP
2AA0
9000
CAA0
9400
CAA0
9000
2AA0
ENDCHAR
STARTCHAR uni22D1
ENCODING 8913
SWIDTH 720 0
DWIDTH 8 0
BBX 6 7 1 0
BITMAP
AA40
0060
AA30
0160
AA30
0050
AA40
ENDCHAR
STARTCHAR uni22D2
ENCODING 8914
SWIDTH 635 0
DWIDTH 7 0
BBX 7 7 0 0
BITMAP
0A80
2460
5654
5894
5894
5894
5894
ENDCHAR
STARTCHAR uni22D3
ENCODING 8915
SWIDTH 635 0
DWIDTH 7 0
BBX 7 7 0 0
BITMAP
5454
5894
5894
5894
5654
2460
0A80
ENDCHAR
STARTCHAR uni22D4
ENCODING 8916
SWIDTH 635 0
DWIDTH 7 0
BBX 7 8 0 0
BITMAP
0100
0740
2BA0
6224
5214
5214
5214
5214
ENDCHAR
STARTCHAR uni22D5
ENCODING 8917
SWIDTH 720 0
DWIDTH 8 0
BBX 8 11 0 -3
BITMAP
0450
0950
0950
0950
6EB9
0950
6EB9
0950
0950
0950
0400
ENDCHAR
STARTCHAR uni22D6
ENCODING 8918
SWIDTH 720 0
DWIDTH 8 0
BBX 6 6 1 0
BITMAP
0020
0680
6940
A5C0
0A40
00A0
ENDCHAR
STARTCHAR uni22D7
ENCODING 8919
SWIDTH 720 0
DWIDTH 8 0
BBX 6 6 1 0
BITMAP
8000
6800
1680
31A0
1A00
A000
ENDCHAR
STARTCHAR uni22D8
ENCODING 8920
SWIDTH 1304 0
DWIDTH 14 0
BBX 13 6 1 0
BITMAP
00609180
065A5900
65A59000
A1968000
1A596800
00A19280
ENDCHAR
STARTCHAR uni22D9
ENCODING 8921
SWIDTH 1304 0
DWIDTH 14 0
BBX 14 6 0 0
BITMAP
60918000
1A196800
01A59680
0065A190
065A1900
64A19000
ENDCHAR
STARTCHAR uni22DA
ENCODING 8922
SWIDTH 720 0
DWIDTH 8 0
BBX 6 13 1 -4
BITMAP
0060
1A40
B400
0A40
0060
0000
AAA0
0000
9000
1A00
01E0
1A40
9000
ENDCHAR
STARTCHAR uni22DB
ENCODING 8923
SWIDTH 720 0
DWIDTH 8 0
BBX 6 13 1 -4
BITMAP
9000
1A40
01E0
1A00
9000
0000
AAA0
0000
0060
0A40
B400
1A40
0060
ENDCHAR
STARTCHAR uni22DC
ENCODING 8924
SWIDTH 720 0
DWIDTH 8 0
BBX 6 8 1 -1
BITMAP
AAA0
0000
0060
0640
6400
6400
0640
0060
ENDCHAR
STARTCHAR uni22DD
ENCODING 8925
SWIDTH 720 0
DWIDTH 8 0
BBX 6 8 1 -1
BITMAP
AAA0
0000
9000
1900
0190
0190
1900
9000
ENDCHAR
STARTCHAR uni22DE
ENCODING 8926
SWIDTH 720 0
DWIDTH 8 0
BBX 6 8 1 -1
BITMAP
0060
0680
A420
0690
BD00
5A40
0060
0010
ENDCHAR
STARTCHAR uni22DF
ENCODING 8927
SWIDTH 720 0
DWIDTH 8 0
BBX 6 8 1 -1
BITMAP
9000
2900
81A0
6400
07E0
1A50
9000
4000
ENDCHAR
STARTCHAR uni22E0
ENCODING 8928
SWIDTH 720 0
DWIDTH 8 0
BBX 6 11 1 -3
BITMAP
0050
0090
00A0
0680
FA00
1740
5560
5A50
08A0
0410
1000
ENDCHAR
STARTCHAR uni22E1
ENCODING 8929
SWIDTH 720 0
DWIDTH 8 0
BBX 6 11 1 -3
BITMAP
0200
4200
9500
1E40
0AF0
2900
95A0
2940
A000
5000
4000
ENDCHAR
STARTCHAR uni22E2
ENCODING 8930
SWIDTH 720 0
DWIDTH 8 0
BBX 7 11 0 -2
BITMAP
0010
0020
2AB8
6050
6080
6140
6200
2BA8
0500
2EA8
0800
ENDCHAR
STARTCHAR uni22E3
ENCODING 8931
SWIDTH 720 0
DWIDTH 8 0
BBX 6 11 1 -2
BITMAP
0050
0080
AAE0
0160
0220
0120
0820
AEA0
1400
BAA0
2000
ENDCHAR
STARTCHAR uni22E4
ENCODING 8932
SWIDTH 720 0
DWIDTH 8 0
BBX 7 10 0 -2
BITMAP
2AA8
6000
6000
6000
6000
6000
2AA8
0080
2BA8
0100
ENDCHAR
STARTCHAR uni22E5
ENCODING 8933
SWIDTH 720 0
DWIDTH 8 0
BBX 6 10 1 -2
BITMAP
AAA0
0020
0020
0020
0020
0020
AAA0
0200
AEA0
0800
ENDCHAR
STARTCHAR uni22E6
ENCODING 8934
SWIDTH 720 0
DWIDTH 8 0
BBX 7 11 0 -3
BITMAP
0004
0068
0680
2800
0A40
00A4
0008
0080
1A44
52A4
0500
ENDCHAR
STARTCHAR uni22E7
ENCODING 8935
SWIDTH 720 0
DWIDTH 8 0
BBX 7 10 0 -3
BITMAP
2800
0290
0028
0190
1900
5000
0080
1A84
52A4
0500
ENDCHAR
STARTCHAR uni22E8
ENCODING 8936
SWIDTH 720 0
DWIDTH 8 0
BBX 7 10 0 -3
BITMAP
0008
01A0
2F40
0690
0018
0004
0080
1A44
52A4
0500
ENDCHAR
STARTCHAR uni22E9
ENCODING 8937
SWIDTH 720 0
DWIDTH 8 0
BBX 7 10 0 -3
BITMAP
2000
0A40
01F8
0690
2400
1000
0080
1A84
52A4
0500
ENDCHAR
STARTCHAR uni22EA
ENCODING 8938
SWIDTH 650 0
DWIDTH 7 0
BBX 7 9 0 -2
BITMAP
0020
0054
00A8
0A98
7618
0B58
05A8
0804
1400
ENDCHAR
STARTCHAR uni22EB
ENCODING 8939
SWIDTH 650 0
DWIDTH 7 0
BBX 7 9 0 -2
BITMAP
0050
0080
7980
5680
5274
5690
6D00
5400
2000
ENDCHAR
STARTCHAR uni22EC
ENCODING 8940
SWIDTH 650 0
DWIDTH 7 0
BBX 7 12 0 -3
BITMAP
0010
0050
00A8
0298
2958
2A18
0398
0528
0800
AEA4
1400
1000
ENDCHAR
STARTCHAR uni22ED
ENCODING 8941
SWIDTH 650 0
DWIDTH 7 0
BBX 7 11 0 -2
BITMAP
0040
0080
6480
5A40
52A4
52A4
5A40
6900
0800
6EA8
1400
ENDCHAR
STARTCHAR uni22EE
ENCODING 8942
SWIDTH 519 0
DWIDTH 6 0
BBX 2 8 2 -1
BITMAP
90
00
00
00
90
00
00
90
ENDCHAR
STARTCHAR uni22EF
ENCODING 8943
SWIDTH 953 0
DWIDTH 10 0
BBX 9 1 1 2
BITMAP
918240
ENDCHAR
STARTCHAR uni22F0
ENCODING 8944
SWIDTH 962 0
DWIDTH 11 0
BBX 7 6 2 0
BITMAP
0024
0000
0000
0700
0000
9000
ENDCHAR
STARTCHAR uni22F1
ENCODING 8945
SWIDTH 962 0
DWIDTH 11 0
BBX 7 6 2 0
BITMAP
9000
0000
0000
0600
0000
0024
ENDCHAR
STARTCHAR uni22F2
ENCODING 8946
SWIDTH 838 0
DWIDTH 9 0
BBX 9 7 0 0
BITMAP
01AA40
060000
090000
6EAA40
090000
060000
01AA40
ENDCHAR
STARTCHAR uni22F3
ENCODING 8947
SWIDTH 720 0
DWIDTH 8 0
BBX 6 7 1 0
BITMAP
2AA0
9010
C020
EAB0
C020
9010
2AA0
ENDCHAR
STARTCHAR uni22F4
ENCODING 8948
SWIDTH 497 0
DWIDTH 5 0
BBX 5 5 0 0
BITMAP
1A80
2040
7A80
2080
1A80
ENDCHAR
ENDFONT
